<svg xmlns="http://www.w3.org/2000/svg" xmlns:xlink="http://www.w3.org/1999/xlink" width="164.857" height="40" viewBox="0 0 164.857 40"><defs><linearGradient id="a" x1="0.5" x2="0.5" y2="1" gradientUnits="objectBoundingBox"><stop offset="0" stop-color="#f452ff"/><stop offset="1" stop-color="#832bc1"/></linearGradient></defs><path d="M155.327,0H9.535C9.168,0,8.806,0,8.44,0c-.306,0-.61.008-.919.013a13.219,13.219,0,0,0-2,.177,6.665,6.665,0,0,0-1.9.627A6.435,6.435,0,0,0,2,2,6.257,6.257,0,0,0,.819,3.618a6.6,6.6,0,0,0-.625,1.9,12.994,12.994,0,0,0-.179,2C.006,7.83,0,8.138,0,8.444V31.559c0,.31.006.611.015.922a12.994,12.994,0,0,0,.179,2,6.589,6.589,0,0,0,.625,1.9A6.208,6.208,0,0,0,2,38,6.273,6.273,0,0,0,3.616,39.18a6.7,6.7,0,0,0,1.9.631,13.455,13.455,0,0,0,2,.177c.309.007.613.011.919.011.366,0,.728,0,1.095,0H155.327c.359,0,.725,0,1.084,0,.3,0,.617,0,.922-.011a13.279,13.279,0,0,0,2-.177,6.8,6.8,0,0,0,1.908-.631A6.277,6.277,0,0,0,162.859,38a6.4,6.4,0,0,0,1.182-1.614,6.6,6.6,0,0,0,.619-1.9,13.507,13.507,0,0,0,.186-2c0-.311,0-.611,0-.922.008-.363.008-.725.008-1.094V9.536c0-.366,0-.729-.008-1.092,0-.307,0-.614,0-.921a13.51,13.51,0,0,0-.186-2,6.618,6.618,0,0,0-.619-1.9,6.466,6.466,0,0,0-2.8-2.8,6.767,6.767,0,0,0-1.908-.627,13.049,13.049,0,0,0-2-.177c-.3,0-.617-.011-.922-.013-.359,0-.725,0-1.084,0Z" fill="#a6a6a6"/><path d="M8.445,39.125c-.3,0-.6,0-.9-.011a12.686,12.686,0,0,1-1.869-.163A5.883,5.883,0,0,1,4.015,38.4a5.407,5.407,0,0,1-1.4-1.017,5.32,5.32,0,0,1-1.02-1.4,5.723,5.723,0,0,1-.543-1.657,12.41,12.41,0,0,1-.166-1.875c-.006-.211-.015-.913-.015-.913V8.444s.009-.691.015-.894a12.372,12.372,0,0,1,.166-1.872A5.758,5.758,0,0,1,1.6,4.016a5.373,5.373,0,0,1,1.015-1.4A5.568,5.568,0,0,1,4.014,1.6a5.822,5.822,0,0,1,1.653-.544A12.589,12.589,0,0,1,7.543.887l.9-.012H156.406l.913.013a12.389,12.389,0,0,1,1.858.163,5.939,5.939,0,0,1,1.671.548,5.594,5.594,0,0,1,2.415,2.42,5.763,5.763,0,0,1,.535,1.649,13,13,0,0,1,.174,1.887c0,.283,0,.587,0,.89.008.375.008.732.008,1.092V30.465c0,.363,0,.718-.008,1.075,0,.325,0,.623,0,.93a12.73,12.73,0,0,1-.171,1.854,5.739,5.739,0,0,1-.54,1.67,5.481,5.481,0,0,1-1.016,1.386,5.413,5.413,0,0,1-1.4,1.022,5.862,5.862,0,0,1-1.668.55,12.542,12.542,0,0,1-1.869.163c-.293.007-.6.011-.9.011l-1.084,0Z"/><path d="M32.182,29.228A5.326,5.326,0,0,1,28.8,32.261a10.954,10.954,0,0,1-3.041.32H14.437a10.955,10.955,0,0,1-3.041-.32,5.326,5.326,0,0,1-3.381-3.033,9.863,9.863,0,0,1-.5-3.567h0V14.338h0a9.863,9.863,0,0,1,.5-3.567A5.326,5.326,0,0,1,11.4,7.739a10.954,10.954,0,0,1,3.041-.32H25.76a10.955,10.955,0,0,1,3.041.32,5.326,5.326,0,0,1,3.381,3.033,9.863,9.863,0,0,1,.5,3.567V25.661A9.867,9.867,0,0,1,32.182,29.228Z" fill-rule="evenodd" fill="url(#a)"/><path d="M32.182,29.228A5.326,5.326,0,0,1,28.8,32.261a10.954,10.954,0,0,1-3.041.32H14.437a10.955,10.955,0,0,1-3.041-.32,5.326,5.326,0,0,1-3.381-3.033,9.863,9.863,0,0,1-.5-3.567h0V14.338h0a9.863,9.863,0,0,1,.5-3.567A5.326,5.326,0,0,1,11.4,7.739a10.954,10.954,0,0,1,3.041-.32H25.76a10.955,10.955,0,0,1,3.041.32,5.326,5.326,0,0,1,3.381,3.033,9.863,9.863,0,0,1,.5,3.567V25.661A9.867,9.867,0,0,1,32.182,29.228Z" fill="none" fill-rule="evenodd"/><path d="M21.923,21.882a2.52,2.52,0,0,0-1.824-.654,2.52,2.52,0,0,0-1.824.654,1.157,1.157,0,0,0-.334.725,9.412,9.412,0,0,0,.041,1.9c.066.771.19,1.8.353,2.847a10.83,10.83,0,0,0,.3,1.436,1.424,1.424,0,0,0,1.469.875,1.424,1.424,0,0,0,1.469-.875,10.83,10.83,0,0,0,.3-1.436c.163-1.047.287-2.076.353-2.847a9.412,9.412,0,0,0,.041-1.9A1.157,1.157,0,0,0,21.923,21.882Zm-3.881-3.547A2.059,2.059,0,1,0,20.1,16.275,2.059,2.059,0,0,0,18.042,18.334Zm2.034-8.127a8.849,8.849,0,0,0-2.9,17.2.118.118,0,0,0,.157-.129c-.046-.3-.089-.607-.128-.907a.3.3,0,0,0-.179-.24,7.716,7.716,0,1,1,6.157,0,.3.3,0,0,0-.179.24c-.039.3-.083.6-.128.906a.118.118,0,0,0,.157.129,8.849,8.849,0,0,0-2.954-17.2Zm-.16,4.059a4.793,4.793,0,0,1,3.469,8.287.367.367,0,0,0-.115.288,8.478,8.478,0,0,1-.01,1.011.117.117,0,0,0,.182.1,5.928,5.928,0,1,0-6.672,0,.116.116,0,0,0,.181-.1,8.483,8.483,0,0,1-.01-1.011.367.367,0,0,0-.115-.288,4.793,4.793,0,0,1,3.09-8.287Z" fill="#fff"/><path d="M46.223,27.822H41.49l-1.137,3.356h-2L42.831,18.76h2.083L49.4,31.179H47.359ZM41.98,26.273h3.752l-1.85-5.448H43.83Z" fill="#fff"/><path d="M59.08,26.652c0,2.813-1.506,4.621-3.778,4.621a3.069,3.069,0,0,1-2.849-1.584H52.41v4.484H50.552V22.125h1.8v1.506h.034a3.212,3.212,0,0,1,2.883-1.6C57.566,22.03,59.08,23.847,59.08,26.652Zm-1.91,0c0-1.833-.947-3.038-2.393-3.038-1.42,0-2.375,1.23-2.375,3.038,0,1.824.955,3.046,2.375,3.046C56.223,29.7,57.17,28.5,57.17,26.652Z" fill="#fff"/><path d="M69.045,26.652c0,2.813-1.506,4.621-3.778,4.621a3.069,3.069,0,0,1-2.849-1.584h-.043v4.484H60.517V22.125h1.8v1.506h.034a3.212,3.212,0,0,1,2.883-1.6C67.531,22.03,69.045,23.847,69.045,26.652Zm-1.91,0c0-1.833-.947-3.038-2.393-3.038-1.42,0-2.375,1.23-2.375,3.038,0,1.824.955,3.046,2.375,3.046C66.188,29.7,67.135,28.5,67.135,26.652Z" fill="#fff"/><path d="M70.55,18.76H72.41V31.179H70.55Z" fill="#fff"/><path d="M82.085,28.52c-.25,1.644-1.851,2.771-3.9,2.771-2.634,0-4.269-1.765-4.269-4.6s1.644-4.682,4.19-4.682c2.5,0,4.08,1.721,4.08,4.466v.637H75.794v.112a2.358,2.358,0,0,0,2.436,2.565,2.048,2.048,0,0,0,2.091-1.273h1.765Zm-6.282-2.7h4.526a2.177,2.177,0,0,0-2.221-2.3A2.292,2.292,0,0,0,75.8,25.817Z" fill="#fff"/><path d="M92.087,18.76a3.9,3.9,0,0,1,4.088,4.08,3.939,3.939,0,0,1-4.148,4.1H89.359v4.243H87.431V18.76Zm-2.728,6.559h2.212a2.325,2.325,0,0,0,2.633-2.47,2.317,2.317,0,0,0-2.624-2.462H89.359v4.932Z" fill="#fff"/><path d="M96.854,26.652c0-2.849,1.678-4.639,4.294-4.639s4.295,1.79,4.295,4.639-1.661,4.639-4.295,4.639S96.854,29.509,96.854,26.652Zm6.7,0c0-1.954-.9-3.107-2.4-3.107s-2.4,1.162-2.4,3.107c0,1.962.9,3.106,2.4,3.106S103.549,28.614,103.549,26.652Z" fill="#fff"/><path d="M106.747,26.652c0-2.8,1.54-4.622,3.786-4.622a3.054,3.054,0,0,1,2.84,1.6h.035V18.76h1.867V31.179h-1.808v-1.54h-.034a3.088,3.088,0,0,1-2.883,1.635C108.287,31.273,106.747,29.449,106.747,26.652Zm1.9,0c0,1.858.947,3.046,2.393,3.046,1.429,0,2.384-1.205,2.384-3.046,0-1.825-.955-3.038-2.384-3.038C109.6,23.614,108.649,24.81,108.649,26.652Z" fill="#fff"/><path d="M123.184,25.24a2,2,0,0,0-2.134-1.669c-1.429,0-2.376,1.2-2.376,3.081,0,1.928.956,3.089,2.393,3.089a1.948,1.948,0,0,0,2.117-1.626h1.79a3.618,3.618,0,0,1-3.924,3.176c-2.582,0-4.269-1.765-4.269-4.639,0-2.815,1.687-4.639,4.251-4.639a3.64,3.64,0,0,1,3.925,3.227h-1.773Z" fill="#fff"/><path d="M126.113,28.605c0-1.583,1.213-2.539,3.364-2.668l2.479-.138v-.688c0-1.007-.662-1.575-1.789-1.575a1.731,1.731,0,0,0-1.9,1.274h-1.738c.052-1.636,1.574-2.8,3.691-2.8,2.16,0,3.589,1.179,3.589,2.96v6.205h-1.781V29.689h-.043a3.237,3.237,0,0,1-2.857,1.645A2.744,2.744,0,0,1,126.113,28.605Zm5.843-.817v-.7l-2.229.138c-1.11.069-1.738.551-1.738,1.325,0,.792.654,1.309,1.652,1.309A2.17,2.17,0,0,0,131.955,27.788Z" fill="#fff"/><path d="M138.993,22.022c2.006,0,3.442,1.109,3.485,2.71h-1.747c-.077-.8-.757-1.29-1.79-1.29-1.007,0-1.678.464-1.678,1.17,0,.542.447.9,1.386,1.136l1.523.354c1.824.438,2.513,1.109,2.513,2.435,0,1.635-1.549,2.754-3.761,2.754-2.135,0-3.571-1.094-3.709-2.746h1.841c.13.869.826,1.334,1.954,1.334,1.11,0,1.808-.456,1.808-1.179,0-.56-.345-.86-1.291-1.1l-1.618-.4c-1.636-.4-2.462-1.231-2.462-2.487C135.448,23.115,136.885,22.022,138.993,22.022Z" fill="#fff"/><path d="M146.724,19.982v2.143h1.722V23.6h-1.722v4.991c0,.775.345,1.137,1.1,1.137a5.805,5.805,0,0,0,.611-.043v1.463a5.1,5.1,0,0,1-1.032.086c-1.833,0-2.548-.688-2.548-2.444V23.6H143.54V22.125h1.316V19.982Z" fill="#fff"/><path d="M153.443,22.022c2.006,0,3.442,1.109,3.485,2.71h-1.747c-.077-.8-.757-1.29-1.79-1.29-1.007,0-1.678.464-1.678,1.17,0,.542.447.9,1.386,1.136l1.523.354c1.824.438,2.513,1.109,2.513,2.435,0,1.635-1.549,2.754-3.761,2.754-2.135,0-3.571-1.094-3.709-2.746h1.841c.13.869.826,1.334,1.954,1.334,1.11,0,1.808-.456,1.808-1.179,0-.56-.345-.86-1.291-1.1l-1.618-.4c-1.636-.4-2.462-1.231-2.462-2.487C149.9,23.115,151.334,22.022,153.443,22.022Z" fill="#fff"/><path d="M42.958,14.661H39.236V8.694h.926v5.115h2.8Z" fill="#fff"/><path d="M44.035,8.827a.576.576,0,1,1,.575.542A.547.547,0,0,1,44.035,8.827Zm.132,1.332h.885v4.5h-.885Z" fill="#fff"/><path d="M48.131,10.071c1.013,0,1.675.471,1.761,1.265H49.04c-.083-.331-.405-.542-.91-.542s-.873.235-.873.587c0,.269.228.439.715.55l.749.173c.856.2,1.257.567,1.257,1.229,0,.848-.79,1.414-1.865,1.414s-1.77-.484-1.849-1.282h.889a.914.914,0,0,0,.98.562c.554,0,.947-.248.947-.608,0-.269-.211-.442-.662-.55l-.786-.182c-.856-.2-1.253-.587-1.253-1.257C46.381,10.633,47.113,10.071,48.131,10.071Z" fill="#fff"/><path d="M52.346,9.037v1.142h.976v.748h-.976v2.315c0,.472.194.678.637.678a2.977,2.977,0,0,0,.339-.021v.74a2.913,2.913,0,0,1-.484.045c-.988,0-1.381-.348-1.381-1.216V10.927h-.715v-.748h.715V9.037Z" fill="#fff"/><path d="M58.253,13.445a1.829,1.829,0,0,1-1.952,1.3,2.045,2.045,0,0,1-2.08-2.324A2.076,2.076,0,0,1,56.3,10.071c1.253,0,2.01.856,2.01,2.27v.31h-3.18v.05a1.19,1.19,0,0,0,1.2,1.29,1.08,1.08,0,0,0,1.071-.546Zm-3.126-1.451H57.4a1.087,1.087,0,0,0-1.108-1.167A1.152,1.152,0,0,0,55.127,11.994Z" fill="#fff"/><path d="M59.5,10.158h.856v.715h.066a1.348,1.348,0,0,1,1.344-.8,1.465,1.465,0,0,1,1.559,1.675v2.915h-.889V11.969c0-.724-.314-1.083-.972-1.083a1.033,1.033,0,0,0-1.075,1.141v2.634H59.5v-4.5Z" fill="#fff"/><path d="M66.918,12.408a2.133,2.133,0,1,1,4.247,0,2.133,2.133,0,1,1-4.247,0Zm3.333,0c0-.976-.438-1.547-1.207-1.547s-1.207.571-1.207,1.547.434,1.55,1.207,1.55S70.251,13.388,70.251,12.408Z" fill="#fff"/><path d="M72.357,10.158h.856v.715h.066a1.348,1.348,0,0,1,1.344-.8,1.465,1.465,0,0,1,1.559,1.675v2.915h-.889V11.969c0-.724-.314-1.083-.972-1.083a1.033,1.033,0,0,0-1.075,1.141v2.634h-.889Z" fill="#fff"/></svg>