<svg xmlns="http://www.w3.org/2000/svg" width="35" height="35.226" viewBox="0 0 35 35.226"><g transform="translate(-636 -4223.774)"><rect width="35" height="35" transform="translate(636 4224)" fill="rgba(255,255,255,0)"/><g transform="matrix(0.695, -0.719, 0.719, 0.695, 577.953, 4248.723)"><path d="M57.183,61.952a1.5,1.5,0,0,1-1.046-2.575l9.957-9.687L56.077,38.757a1.5,1.5,0,1,1,2.211-2.026l11,12.006a1.5,1.5,0,0,1-.06,2.088l-11,10.7A1.493,1.493,0,0,1,57.183,61.952Z" fill="#909090"/><path d="M52.039,51.25H31.247c-.5,0-.906-.671-.906-1.5s.406-1.5.906-1.5H52.039c.5,0,.906.671.906,1.5S52.539,51.25,52.039,51.25Z" transform="translate(14.815)" fill="#909090"/></g></g></svg>