<svg xmlns="http://www.w3.org/2000/svg" width="24" height="24" viewBox="0 0 24 24">
  <g id="attachment" transform="translate(-244 -1607)">
    <rect id="Rectangle_1410" data-name="Rectangle 1410" width="24" height="24" transform="translate(244 1607)" fill="#fff" opacity="0"/>
    <path id="Path_1170" data-name="Path 1170" d="M8.225,3.7V16.039A2.056,2.056,0,0,1,6.169,18.1H2.056A2.056,2.056,0,0,1,0,16.039V2.056A2.056,2.056,0,0,1,2.056,0H3.7A2.056,2.056,0,0,1,5.758,2.056V14.394a1.234,1.234,0,0,1-1.234,1.234H3.7a1.234,1.234,0,0,1-1.234-1.234V5.346a.411.411,0,1,1,.823,0v9.048a.411.411,0,0,0,.411.411h.823a.411.411,0,0,0,.411-.411V2.056A1.234,1.234,0,0,0,3.7.823H2.056A1.234,1.234,0,0,0,.823,2.056V16.039a1.234,1.234,0,0,0,1.234,1.234H6.169A1.234,1.234,0,0,0,7.4,16.039V3.7a.411.411,0,1,1,.823,0Z" transform="translate(254.723 1628.539) rotate(-150)" fill="#311348"/>
  </g>
</svg>
