<?xml version="1.0" encoding="UTF-8"?>
<svg width="60px" height="60px" viewBox="0 0 60 60" version="1.1" xmlns="http://www.w3.org/2000/svg" xmlns:xlink="http://www.w3.org/1999/xlink">
    <!-- Generator: Sketch 63.1 (92452) - https://sketch.com -->
    <title>Button / Play</title>
    <desc>Created with Sketch.</desc>
    <g id="Website" stroke="none" stroke-width="1" fill="none" fill-rule="evenodd">
        <g id="Frontpage" transform="translate(-211.000000, -672.000000)" fill="#ED4A50" fill-rule="nonzero">
            <g id="Play-Butoon" transform="translate(211.000000, 672.000000)">
                <g id="Button-/-Play">
                    <path d="M41.4856863,2.28649234 C52.6955266,6.93208868 60.0028663,17.8731935 60,30.0075285 C59.9804554,46.5665793 46.5594918,59.9843713 30.0004376,60 C17.8661027,60 6.92672598,52.6900736 2.28377972,41.4791351 C-2.35916653,30.2681966 0.208768376,17.364294 8.79005287,8.78503738 C17.3713374,0.205780738 30.2758461,-2.35910399 41.4856863,2.28649234 Z M29.9999996,1.52542373 C14.2739256,1.52542373 1.52542371,14.2739258 1.52542371,30 C1.52542371,45.7260742 14.2739256,58.4745763 29.9999996,58.4745763 C45.7260736,58.4745763 58.4745754,45.7260742 58.4745754,30 C58.4589999,14.2803819 45.7196175,1.54099928 29.9999996,1.52542373 Z M23.5965019,18.4884146 C24.0386285,18.2353643 24.5805694,18.2448669 25.0138647,18.5132671 L25.0138647,18.5132671 L41.5337917,28.791472 C41.9498101,29.0510279 42.2033892,29.5118983 42.2033892,30.00844 C42.2033892,30.5049817 41.9498101,30.9658522 41.5337917,31.225408 L41.5337917,31.225408 L24.9858054,41.5036129 C24.554113,41.757255 24.022566,41.7587694 23.5894844,41.5075911 C23.1564028,41.2564127 22.8868348,40.7902684 22.8813556,40.2830761 L22.8813556,40.2830761 L22.8813556,19.733804 C22.8809331,19.2176502 23.1543752,18.7414648 23.5965019,18.4884146 Z"></path>
                </g>
            </g>
        </g>
    </g>
</svg>