<?xml version="1.0" encoding="UTF-8"?>
<svg width="110px" height="110px" viewBox="0 0 110 110" version="1.1" xmlns="http://www.w3.org/2000/svg" xmlns:xlink="http://www.w3.org/1999/xlink">
    <!-- Generator: Sketch 63.1 (92452) - https://sketch.com -->
    <title>button__play-white</title>
    <desc>Created with Sketch.</desc>
    <g id="Website" stroke="none" stroke-width="1" fill="none" fill-rule="evenodd">
        <g id="Frontpage" transform="translate(-1034.000000, -1842.000000)" fill="#FFFFFF" fill-rule="nonzero">
            <g id="Section-/-Causes" transform="translate(0.000000, 1505.000000)">
                <g id="Cause-/-Video" transform="translate(738.000000, 0.000000)">
                    <path d="M372.057092,341.191903 C392.608465,349.708829 406.005255,369.767521 406,392.013802 C405.964168,422.372062 381.359068,446.971347 351.000802,447 C328.754522,447 308.698998,433.598468 300.186929,413.045081 C291.674861,392.491694 296.382742,368.834539 312.115097,353.105902 C327.847452,337.377265 351.505718,332.674976 372.057092,341.191903 Z M350.999999,339.79661 C322.168864,339.79661 298.79661,363.168864 298.79661,392 C298.79661,420.831136 322.168864,444.20339 350.999999,444.20339 C379.831135,444.20339 403.203388,420.831136 403.203388,392 C403.174833,363.1807 379.819299,339.825165 350.999999,339.79661 Z M339.260253,370.895427 C340.070819,370.431501 341.064377,370.448923 341.858752,370.94099 L341.858752,370.94099 L372.145285,389.784365 C372.907985,390.260218 373.37288,391.105147 373.37288,392.015473 C373.37288,392.9258 372.907985,393.770729 372.145285,394.246581 L372.145285,394.246581 L341.80731,413.089957 C341.015874,413.554968 340.041371,413.557744 339.247388,413.09725 C338.453405,412.636757 337.959197,411.782159 337.949152,410.852306 L337.949152,410.852306 L337.949152,373.178641 C337.948377,372.232359 338.449688,371.359352 339.260253,370.895427 Z" id="button__play-white"></path>
                </g>
            </g>
        </g>
    </g>
</svg>