<svg xmlns="http://www.w3.org/2000/svg" width="28" height="28" viewBox="0 0 28 28"><g transform="translate(-1207 -20)"><rect width="28" height="28" transform="translate(1207 20)" fill="rgba(255,255,255,0)"/><path d="M16,14.285c0-1.08-1.629-1.681-2.452-2.006-.5-.206-1.012-.412-1.509-.635a5.4,5.4,0,0,1-1.852-1.235.859.859,0,0,1-.274-.617A5.339,5.339,0,0,1,10.1,8.626a9.4,9.4,0,0,1,.669-1.612A11.466,11.466,0,0,0,11.284,4.9,5.546,5.546,0,0,0,11.421,4c0-2.126-1.115-4-3.43-4s-3.43,1.869-3.43,4a5.6,5.6,0,0,0,.154.909,11.52,11.52,0,0,0,.532,2.109,8.209,8.209,0,0,1,.669,1.612,4.479,4.479,0,0,1,.189,1.166.859.859,0,0,1-.274.617,5.4,5.4,0,0,1-1.852,1.235c-.5.24-1.012.429-1.509.635C1.646,12.622,0,13.2,0,14.285V16H16V14.285Z" transform="translate(1213 26)" fill="none" stroke="#ada1b6" stroke-width="1.5"/></g></svg>