<?xml version="1.0" encoding="UTF-8"?>
<svg width="40px" height="40px" viewBox="0 0 40 40" version="1.1" xmlns="http://www.w3.org/2000/svg" xmlns:xlink="http://www.w3.org/1999/xlink">
    <!-- Generator: Sketch 63.1 (92452) - https://sketch.com -->
    <title>graphic/TwitterWhite</title>
    <desc>Created with Sketch.</desc>
    <g id="Website" stroke="none" stroke-width="1" fill="none" fill-rule="evenodd">
        <g id="Frontpage" transform="translate(-904.000000, -2557.000000)">
            <g id="Share-This" transform="translate(421.000000, 2557.000000)">
                <g id="Social-Networks-/-Lines-White" transform="translate(432.000000, 0.000000)">
                    <g id="graphic/TwitterWhite" transform="translate(51.000000, 0.000000)">
                        <circle id="Oval" stroke-opacity="0.00999781469" stroke="#FFFFFF" cx="20" cy="20" r="19.5"></circle>
                        <path d="M29.531119,13.190819 C28.8566203,13.5954199 28.1113128,13.8896752 27.3147144,14.0471197 C26.6801591,13.3608232 25.7732625,12.932 24.7692308,12.932 C22.8446853,12.932 21.2828078,14.514519 21.2828078,16.4662027 C21.2828078,16.7429641 21.3127653,17.0121 21.3726804,17.270919 C18.4740608,17.1233428 15.9045203,15.7180049 14.1833231,13.577029 C13.8828398,14.1009468 13.7112648,14.7087454 13.7112648,15.3555686 C13.7112648,16.5814826 14.3267562,17.6634088 15.2631565,18.2972238 C14.6921475,18.2801785 14.1533656,18.1195941 13.682215,17.8562895 L13.682215,17.8997998 C13.682215,19.6128497 14.884602,21.0419612 16.4814301,21.3653728 C16.189117,21.4483564 15.8804635,21.4896239 15.5622781,21.4896239 C15.3375965,21.4896239 15.1183617,21.4685416 14.9059354,21.4272741 C15.3498518,22.8308177 16.6371185,23.8530855 18.1635917,23.8799991 C16.9702828,24.8287031 15.4655969,25.3938884 13.8320028,25.3938884 C13.5505834,25.3938884 13.2723413,25.3777403 13,25.345444 C14.5432676,26.3466295 16.3774864,26.932 18.3465143,26.932 C24.7624222,26.932 28.2697247,21.5474881 28.2697247,16.8766349 C28.2697247,16.7227789 28.2670013,16.5693714 28.2611006,16.4186553 C28.9424078,15.9198568 29.5342963,15.298153 30,14.5894285 C29.3754305,14.8702269 28.7027474,15.0604163 27.9973834,15.1456426 C28.7177262,14.7087454 29.2705791,14.0157205 29.531119,13.190819" stroke="#311348"></path>
                    </g>
                </g>
            </g>
        </g>
    </g>
</svg>