<svg xmlns="http://www.w3.org/2000/svg" width="179.771" height="41" viewBox="0 0 179.771 41"><g transform="translate(0)"><g transform="translate(0.5 0.5)"><path d="M169.057.5h-159L9.531.5,9.226.5,8.751.511l-.215,0A15.063,15.063,0,0,0,6.38.691a7.5,7.5,0,0,0-2.026.619A6.858,6.858,0,0,0,2.629,2.473a6.229,6.229,0,0,0-1.92,3.48,11.826,11.826,0,0,0-.192,2c0,.136-.007.275-.01.461,0,.046,0,.082,0,.165,0,.149,0,.216,0,.3V31.91c0,.111,0,.111,0,.219,0,.084,0,.149,0,.3,0,.081,0,.116,0,.162,0,.186.006.326.01.465a11.825,11.825,0,0,0,.193,2A6.18,6.18,0,0,0,2.63,38.526a6.682,6.682,0,0,0,1.724,1.163,7.533,7.533,0,0,0,2.027.623,15.247,15.247,0,0,0,2.155.176c.349.007.676.011,1,.011l.526,0H169.645l.589,0c.321,0,.658,0,1-.011a15.048,15.048,0,0,0,2.152-.176,7.655,7.655,0,0,0,2.035-.623,6.688,6.688,0,0,0,1.723-1.164,6.357,6.357,0,0,0,1.257-1.592,6.191,6.191,0,0,0,.66-1.882,12.116,12.116,0,0,0,.2-1.993c0-.146,0-.3,0-.465,0-.127,0-.229,0-.464,0-.072,0-.145,0-.22,0-.242,0-.436,0-.878V9.97c0-.55,0-.793-.008-1.1,0-.231,0-.334,0-.463,0-.17,0-.319,0-.459a12.135,12.135,0,0,0-.2-2,6.2,6.2,0,0,0-.659-1.879,6.411,6.411,0,0,0-1.259-1.6,6.861,6.861,0,0,0-1.721-1.163,7.621,7.621,0,0,0-2.036-.62,14.858,14.858,0,0,0-2.15-.176l-.191,0-.309,0-.5-.005-.583,0Z" transform="translate(-0.5 -0.5)" stroke="#a6a6a6" stroke-width="1" fill-rule="evenodd"/><path d="M66.883,73.193H63V67.128h1.18v4.935h2.7Zm2.815,0H68.5V67.128h1.2Zm6.271-4.619-1.061.325a1.036,1.036,0,0,0-1.1-.855.859.859,0,0,0-.949.77c0,.334.214.6.659.684l.847.163a1.85,1.85,0,0,1,1.694,1.788,1.99,1.99,0,0,1-2.19,1.873,2.211,2.211,0,0,1-2.412-1.9l1.095-.291a1.217,1.217,0,0,0,1.326,1.138c.633,0,.984-.316.984-.744,0-.351-.265-.624-.736-.718l-.847-.171A1.766,1.766,0,0,1,71.684,68.9a2.2,2.2,0,0,1,4.285-.325Zm6.39-.325H80.443v4.944H79.254V68.249H77.338V67.128h5.021Zm5.415,4.944h-3.8V67.128h3.8V68.24H85.157v1.386h2.369v1.052H85.157v1.4h2.617Zm7.092,0h-1.24l-2.754-4.3v4.3h-1.18V67.128h1.471l2.523,4.012V67.128h1.18Zm5.724-3.036a1.9,1.9,0,1,0,1.89-2.019A1.87,1.87,0,0,0,100.59,70.156Zm-1.223.009a3.118,3.118,0,1,1,3.113,3.156A3.056,3.056,0,0,1,99.367,70.165Zm13.242,3.028h-1.24l-2.754-4.3v4.3h-1.18V67.128h1.471l2.523,4.012V67.128h1.18Z" transform="translate(-47.277 -50.27)" fill="#fff" fill-rule="evenodd"/></g><g transform="translate(-473.5 -4806.568)"><path d="M87.643,702.492c-.023-.009-.2-.06-.377-.116a2.969,2.969,0,0,1-.6-.26c-.316-.191-.762-.609-.762-.716a.339.339,0,0,1,.13-.186c.07-.06.265-.233.432-.381a2.281,2.281,0,0,1,.339-.27,1.117,1.117,0,0,1,.246.186,2.081,2.081,0,0,0,1.581.493c.5-.042.762-.2.823-.5.084-.432-.214-.679-1.065-.879a3.757,3.757,0,0,1-1.832-.748,1.75,1.75,0,0,1-.288-.4,1.49,1.49,0,0,1-.107-.781,1.39,1.39,0,0,1,.112-.79,2.4,2.4,0,0,1,2.506-1.092,3.093,3.093,0,0,1,1.195.39,2.425,2.425,0,0,1,.711.6,3.869,3.869,0,0,1-.465.488l-.46.442-.153-.139a1.568,1.568,0,0,0-1.99-.284c-.27.265-.139.6.293.767a6.215,6.215,0,0,0,.8.232c1.292.33,1.8.669,2.013,1.339a1.929,1.929,0,0,1-.883,2.357,2.987,2.987,0,0,1-1.492.26C87.987,702.511,87.671,702.5,87.643,702.492Z" transform="translate(493.093 4127.792)" fill="#fff" fill-rule="evenodd"/><path d="M213.328,702.391a2.432,2.432,0,0,1-1.432-1.232,3.488,3.488,0,0,1-.4-1.911,3.563,3.563,0,0,1,.381-1.813,2.643,2.643,0,0,1,1.45-1.288,2.873,2.873,0,0,1,2.45.339,3.465,3.465,0,0,1,1.153,3.3,3.261,3.261,0,0,1-.26,1.116.167.167,0,0,0-.042.1,2.988,2.988,0,0,1-.66.916,2.309,2.309,0,0,1-1.757.581A2.244,2.244,0,0,1,213.328,702.391Zm1.464-1.288c.53-.246.814-.888.814-1.832a1.9,1.9,0,0,0-.781-1.809,1.357,1.357,0,0,0-1.544.26,2.844,2.844,0,0,0-.4,2.194,1.354,1.354,0,0,0,1.911,1.186Z" transform="translate(373.337 4127.803)" fill="#fff"/><path d="M355.79,703.946a2.265,2.265,0,0,1-1.246-.907c-.47-.7-.544-1.2-.521-3.7l.014-1.72h1.3l.023,2.046a12.838,12.838,0,0,0,.088,2.185c.033.079.084.191.116.256a1.551,1.551,0,0,0,.586.563,1.484,1.484,0,0,0,.995-.047,1.248,1.248,0,0,0,.511-.535c.033-.079.088-.2.126-.284a13.815,13.815,0,0,0,.079-2.171l.019-2.036h1.3l-.023,2.176c-.023,2.4-.023,2.375-.339,3.022a2.218,2.218,0,0,1-1.362,1.139A6.1,6.1,0,0,1,355.79,703.946Z" transform="translate(237.438 4126.292)" fill="#fff" fill-rule="evenodd"/><path d="M775.745,702.434a2.689,2.689,0,0,1-1.636-1.683,4.725,4.725,0,0,1,0-2.78,2.782,2.782,0,0,1,1.655-1.743,2.9,2.9,0,0,1,2.087.06,2.738,2.738,0,0,1,.8.6,2.2,2.2,0,0,1,.362.59,4.1,4.1,0,0,1-.9.451c-.274.121-.279.121-.349.033-.042-.051-.116-.149-.167-.209a1.267,1.267,0,0,0-1.148-.358,1.381,1.381,0,0,0-1.06.995,2.061,2.061,0,0,0-.111.907,2.1,2.1,0,0,0,.246,1.246,1.294,1.294,0,0,0,1.646.637,1.4,1.4,0,0,0,.59-.516c.056-.088.13-.158.163-.158a8.483,8.483,0,0,1,1.093.628,2.353,2.353,0,0,1-.432.656,2.292,2.292,0,0,1-1.013.651,2.2,2.2,0,0,1-.916.107A2.268,2.268,0,0,1,775.745,702.434Z" transform="translate(-162.922 4127.754)" fill="#fff" fill-rule="evenodd"/><path d="M1001.815,702.463a2.605,2.605,0,0,1-1.678-1.613,4.148,4.148,0,0,1-.237-1.562,3.566,3.566,0,0,1,.391-1.846,2.583,2.583,0,0,1,2.7-1.371,2.138,2.138,0,0,1,.86.251,1.71,1.71,0,0,1,.651.493,3.985,3.985,0,0,1,.009,4.988,2.313,2.313,0,0,1-.99.618,2.2,2.2,0,0,1-.916.107A3.893,3.893,0,0,1,1001.815,702.463Zm1.358-1.325a1.382,1.382,0,0,0,.725-.934,2.423,2.423,0,0,0,.1-.879,2.024,2.024,0,0,0-.493-1.6,1.19,1.19,0,0,0-1.125-.344c-.665.158-1,.623-1.13,1.553a2.149,2.149,0,0,0,.809,2.2A1.6,1.6,0,0,0,1003.173,701.138Z" transform="translate(-378.414 4127.775)" fill="#fff"/><path d="M1144.5,703.864a2.269,2.269,0,0,1-.218-.088.41.41,0,0,0-.13-.042,2.672,2.672,0,0,1-.79-.59,2.361,2.361,0,0,1-.5-.939l-.116-.353-.023-2.171-.019-2.176h1.3l.019,2.036a13.73,13.73,0,0,0,.079,2.171c.037.079.093.209.13.293a1.4,1.4,0,0,0,.539.553,1.649,1.649,0,0,0,.962.019,1.55,1.55,0,0,0,.586-.563c.033-.065.084-.177.116-.256a12.335,12.335,0,0,0,.079-2.2l.014-2.059.66.014.66.014.014,1.651a11.816,11.816,0,0,1-.181,3.073,2.255,2.255,0,0,1-1.525,1.571,2.464,2.464,0,0,1-.906.093A4.862,4.862,0,0,1,1144.5,703.864Z" transform="translate(-514.576 4126.387)" fill="#fff" fill-rule="evenodd"/><path d="M496.909,700.68l.014-3.152.614-.014.618-.014,1.288,1.938,1.292,1.939.014-1.939.009-1.934h1.3v6.327l-.609-.014-.609-.014-.6-.883c-.33-.483-.618-.907-.646-.939a1.088,1.088,0,0,1-.107-.177c-.028-.065-.065-.116-.084-.116s-.06-.061-.093-.14-.074-.139-.1-.139-.051-.042-.065-.093a.417.417,0,0,0-.084-.149c-.06-.065-.6-.869-.772-1.153l-.1-.163v3.975h-1.3Z" transform="translate(101.2 4126.387)" fill="#fff" fill-rule="evenodd"/><path d="M640.9,700.761V697.6h.976c.535,0,1.19.023,1.45.051a2.609,2.609,0,0,1,2.6,2.111,5.392,5.392,0,0,1,.06,1,2.9,2.9,0,0,1-.107,1.093,2.444,2.444,0,0,1-.386.814,3.041,3.041,0,0,1-1.869,1.2,11.835,11.835,0,0,1-1.474.051H640.9Zm2.65,1.8a1.714,1.714,0,0,0,1.116-1.785,1.936,1.936,0,0,0-.391-1.353,2.007,2.007,0,0,0-1.571-.525h-.5v3.78l.6-.028A3.928,3.928,0,0,0,643.55,702.565Z" transform="translate(-36.104 4126.292)" fill="#fff"/><path d="M905.909,700.68l.014-3.152.642-.014.637-.014v5.072h2.51v1.255H905.9Z" transform="translate(-288.785 4126.387)" fill="#fff" fill-rule="evenodd"/><path d="M1285.9,700.471V697.3l1.269.028a4.681,4.681,0,0,1,2.436.381,2.622,2.622,0,0,1,1.362,2.05,5.556,5.556,0,0,1-.065,1.715,2.873,2.873,0,0,1-1.86,1.985,5.18,5.18,0,0,1-1.9.177H1285.9Zm2.375,1.864a1.732,1.732,0,0,0,1.371-2.073,1.686,1.686,0,0,0-.446-1.181,2.039,2.039,0,0,0-1.52-.465h-.479v3.766h.414A4.907,4.907,0,0,0,1288.276,702.335Z" transform="translate(-651.119 4126.578)" fill="#fff"/></g><g transform="translate(72.322 13.211)"><g transform="translate(0.067 0.05)"><g transform="translate(0 0)"><path d="M768.712,12.858a7.3,7.3,0,0,1-1.41-.044.487.487,0,0,1-.209-.256c-.014-.054-.018-1.9-.016-5.952l.006-5.873.05-.074A1.729,1.729,0,0,1,767.907.3a7.6,7.6,0,0,1,1.076-.225,11.058,11.058,0,0,1,1.549,0,6.438,6.438,0,0,1,1.252.288,5.243,5.243,0,0,1,.849.352c.113.056.258.133.324.169.117.064.559.354.63.412.018.016.111.089.205.163a9.7,9.7,0,0,1,.855.837c.044.056.091.113.1.125a7.133,7.133,0,0,1,.465.66,5.8,5.8,0,0,1,.459.891,6.438,6.438,0,0,1,.453,1.72c.012.082.024.151.026.155a1.51,1.51,0,0,0,.173-.054,5.324,5.324,0,0,1,.626-.165,6.281,6.281,0,0,1,1.167,0,3.844,3.844,0,0,1,1.036.338,3.471,3.471,0,0,1,.573.35c.006.006.05.042.1.08a4.772,4.772,0,0,1,.533.533c.034.044.066.085.072.091a4.094,4.094,0,0,1,.38.628,3.6,3.6,0,0,1,.362,1.575,4.141,4.141,0,0,1-.07.724,4.233,4.233,0,0,1-.205.674,5.155,5.155,0,0,1-.274.533c-.008.01-.044.066-.079.121s-.07.1-.076.111-.042.052-.08.1a4.919,4.919,0,0,1-.654.636l-.161.119a3.767,3.767,0,0,1-.473.264,3.158,3.158,0,0,1-.9.3c-.022.006-.157.022-.3.038-.221.024-.859.028-4.054.024C771.766,12.87,769.455,12.864,768.712,12.858Z" transform="translate(-751.643 -0.05)" fill="#fff" fill-rule="evenodd"/><path d="M341.065,167.438a.271.271,0,0,1-.185-.213c-.008-.046-.022-.225-.032-.4s-.03-.441-.04-.6-.03-.421-.04-.583c-.044-.642-.058-.855-.082-1.193a6.741,6.741,0,0,1,0-1.127c.036-.958.054-1.445.125-3.42.01-.294.028-.813.04-1.157.02-.676.028-.759.076-.833a.276.276,0,0,1,.336-.07c.119.056.137.127.153.592.01.227.026.648.038.936s.03.74.04,1.006c.034.813.06,1.487.08,1.962.01.249.028.724.042,1.056a5.333,5.333,0,0,1,0,1.016c-.04.515-.076.982-.123,1.579-.01.133-.028.364-.04.513s-.03.376-.038.505a1.22,1.22,0,0,1-.044.29A.281.281,0,0,1,341.065,167.438Z" transform="translate(-333.809 -154.644)" fill="#fff" fill-rule="evenodd"/><path d="M460.914,129.949a.248.248,0,0,1-.143-.082c-.093-.093-.095-.111-.125-.616-.01-.2-.028-.511-.04-.694s-.028-.467-.038-.634-.03-.483-.044-.7a20.133,20.133,0,0,1,0-2.022c.014-.481.034-1.191.046-1.579s.026-1.016.038-1.4l.04-1.529c.012-.459.03-.869.042-.909a.31.31,0,0,1,.563-.066,12.067,12.067,0,0,1,.1,1.911c.012.376.03.96.04,1.3s.028.922.04,1.3.03.919.04,1.207c.026.666.026,1.36,0,1.67-.01.133-.028.386-.04.563l-.04.594c-.01.149-.028.412-.04.583a3.8,3.8,0,0,1-.1.968C461.192,129.923,461.085,129.968,460.914,129.949Z" transform="translate(-451.236 -117.158)" fill="#fff" fill-rule="evenodd"/><path d="M582.174,148.1a.361.361,0,0,1-.219-.26c-.008-.046-.024-.262-.034-.477-.026-.547-.054-1.064-.078-1.559a29.522,29.522,0,0,1,0-3.27c.026-1.036.052-2.157.081-3.29.01-.465.026-.867.034-.9a.465.465,0,0,1,.143-.211c.042-.032.086-.04.205-.04.181,0,.253.04.322.179.04.085.044.137.06.811.012.4.028,1.06.04,1.475s.03,1.054.04,1.418.03,1.058.044,1.539a15.884,15.884,0,0,1,0,1.8c-.014.233-.034.571-.044.755s-.028.491-.04.684-.028.507-.038.694-.026.37-.034.4A.365.365,0,0,1,582.174,148.1Z" transform="translate(-570.095 -135.322)" fill="#fff" fill-rule="evenodd"/><path d="M643.194,87.956a.4.4,0,0,1-.209-.183,6.006,6.006,0,0,1-.1-1.312c-.03-.672-.058-1.262-.076-1.592-.008-.161-.008-.614,0-1.006.016-.759.044-2.189.076-3.966.01-.6.03-1.5.04-2.008l.022-.915.054-.089a.388.388,0,0,1,.6-.072c.1.1.1.127.129,1.068.02.825.03,1.312.082,3.8.012.533.03,1.332.04,1.775a14.265,14.265,0,0,1,0,1.567c-.01.155-.028.483-.04.726-.022.453-.04.809-.082,1.545-.024.4-.028.423-.081.505A.411.411,0,0,1,643.194,87.956Z" transform="translate(-629.868 -75.163)" fill="#fff" fill-rule="evenodd"/><path d="M282.354,223.014c-.07-.062-.074-.087-.119-.718-.012-.165-.03-.41-.04-.543s-.028-.382-.04-.553c-.022-.334-.044-.618-.082-1.089a11.313,11.313,0,0,1,.02-1.447c.036-.742.062-1.29.082-1.72.012-.231.03-.6.04-.825s.028-.612.038-.869a5.063,5.063,0,0,1,.04-.515.226.226,0,0,1,.225-.135.174.174,0,0,1,.155.058c.07.07.076.109.1.7.012.221.03.567.04.771s.028.531.04.734.028.543.04.759.03.551.04.744.03.551.042.795a4.058,4.058,0,0,1,0,.9c-.014.161-.032.392-.042.513s-.028.34-.04.483-.03.366-.04.493c-.042.5-.06.734-.078.962-.032.4-.04.443-.107.509a.179.179,0,0,1-.159.058A.192.192,0,0,1,282.354,223.014Z" transform="translate(-276.384 -210.283)" fill="#fff" fill-rule="evenodd"/><path d="M400.406,141.92c-.1-.08-.1-.07-.169-1.159-.012-.183-.03-.463-.04-.624s-.028-.435-.04-.608-.03-.459-.044-.632a8.488,8.488,0,0,1,0-.919c.014-.334.032-.92.044-1.3s.03-.97.04-1.308.028-.922.04-1.3.03-.928.04-1.227.02-.6.02-.672c0-.235.121-.362.328-.336a.208.208,0,0,1,.165.082c.08.087.084.121.113,1,.01.338.028.867.038,1.177.034.962.06,1.728.08,2.3.01.3.028.829.04,1.167s.024.7.032.809a3.33,3.33,0,0,1-.008.443c-.012.137-.032.384-.044.549-.02.3-.044.622-.08,1.1-.01.139-.028.4-.04.573s-.032.427-.044.553c-.022.229-.022.231-.1.308a.2.2,0,0,1-.193.074A.247.247,0,0,1,400.406,141.92Z" transform="translate(-392.051 -129.18)" fill="#fff" fill-rule="evenodd"/><path d="M520.765,136.971c-.137-.093-.145-.137-.185-.94-.012-.227-.03-.553-.04-.724s-.028-.5-.04-.724-.03-.529-.04-.67c-.012-.165-.012-.475,0-.865.012-.334.028-.964.04-1.4s.03-1.145.04-1.579.03-1.078.04-1.433.022-.793.022-.976c0-.505.02-.666.086-.752a.339.339,0,0,1,.551.026,8.863,8.863,0,0,1,.1,1.913c.012.392.03,1.022.04,1.4s.03.984.04,1.348.03.978.042,1.36a9.549,9.549,0,0,1,0,1.006c-.012.171-.032.465-.044.652s-.03.473-.04.634l-.04.644c-.06.976-.064,1-.205,1.087A.422.422,0,0,1,520.765,136.971Z" transform="translate(-509.98 -124.23)" fill="#fff" fill-rule="evenodd"/><path d="M702.392,53.6a.523.523,0,0,1-.139-.135c-.052-.082-.058-.141-.1-.924q-.039-.709-.081-1.453a18.23,18.23,0,0,1-.022-1.978c.012-.569.032-1.485.042-2.032s.03-1.439.04-1.982c.054-2.72.064-3.042.085-3.115a.512.512,0,0,1,.1-.155.417.417,0,0,1,.69.181c.006.028.022.471.032.986s.03,1.352.04,1.861.03,1.32.04,1.8.03,1.378.044,1.992c.032,1.4.032,1.74,0,2.243-.014.221-.034.551-.046.734s-.028.473-.038.644-.028.473-.038.67c-.024.406-.04.487-.119.573a.379.379,0,0,1-.318.145A.312.312,0,0,1,702.392,53.6Z" transform="translate(-687.911 -40.87)" fill="#fff" fill-rule="evenodd"/><path d="M224.032,315.155c-.07-.064-.078-.1-.123-.712-.028-.39-.058-.765-.08-1.046-.01-.127-.028-.362-.04-.523s-.032-.39-.044-.513a6.33,6.33,0,0,1,0-1c.012-.117.032-.334.044-.483.026-.334.054-.684.08-.976.01-.121.028-.352.04-.513.042-.567.052-.626.125-.688a.192.192,0,0,1,.233-.028c.1.05.1.044.167.777.026.278.052.557.078.855.012.133.03.328.04.433s.028.3.04.433.03.32.04.414a1.946,1.946,0,0,1,0,.551c-.01.089-.028.28-.04.423s-.03.352-.04.463-.028.314-.04.453-.03.352-.042.473-.028.316-.038.433c-.058.65-.064.7-.109.755a.174.174,0,0,1-.135.064A.15.15,0,0,1,224.032,315.155Z" transform="translate(-219.225 -302.44)" fill="#fff" fill-rule="evenodd"/><path d="M165.941,305.33a5.612,5.612,0,0,1-.145-1.294c-.012-.149-.03-.366-.04-.483s-.028-.334-.04-.483-.032-.366-.044-.483a6,6,0,0,1,0-1.006c.012-.117.032-.334.044-.483.028-.364.056-.726.08-1.006.01-.127.028-.358.04-.513.028-.362.06-.712.072-.769a.18.18,0,0,1,.292-.081c.056.048.07.121.119.668.02.239.04.461.08.9.012.123.03.326.042.447.052.573.062.678.083.865a5.3,5.3,0,0,1,0,.946c-.012.1-.032.286-.044.412s-.03.326-.042.443c-.032.336-.056.6-.078.845-.091.984-.1,1.026-.147,1.082a.159.159,0,0,1-.137.044C165.993,305.384,165.975,305.376,165.941,305.33Z" transform="translate(-162.318 -292.677)" fill="#fff" fill-rule="evenodd"/><path d="M108.208,311.028a1.825,1.825,0,0,1-.087-.563c-.012-.143-.03-.348-.04-.453s-.028-.3-.04-.443-.03-.338-.04-.443-.028-.308-.04-.453-.032-.334-.042-.421a3.937,3.937,0,0,1,0-.754c.012-.095.03-.29.042-.435s.03-.356.04-.473l.04-.463.04-.463c.01-.117.028-.32.04-.453.052-.608.054-.614.2-.614.109,0,.153.05.167.187.006.058.02.205.032.326s.03.3.04.4l.04.4c.012.123.03.3.04.4.022.211.05.509.08.835.012.127.032.3.042.386a3.026,3.026,0,0,1,0,.688c-.01.078-.03.247-.042.374s-.03.308-.04.4-.028.266-.04.382-.03.288-.04.382-.028.276-.04.4-.03.292-.042.366a2.066,2.066,0,0,0-.018.221.507.507,0,0,1-.07.272A.253.253,0,0,1,108.208,311.028Z" transform="translate(-105.73 -298.472)" fill="#fff" fill-rule="evenodd"/><path d="M50.942,335.494c-.058-.028-.068-.056-.089-.247-.016-.153-.034-.324-.078-.714-.02-.175-.046-.416-.082-.724-.01-.095-.028-.247-.038-.342s-.03-.266-.044-.382a1.9,1.9,0,0,1,0-.594c.012-.121.032-.3.042-.4s.028-.256.04-.352.028-.268.04-.378c.032-.3.058-.531.08-.738.012-.1.028-.26.038-.348a.834.834,0,0,1,.038-.2.142.142,0,0,1,.217-.018,2.118,2.118,0,0,1,.089.513c.01.089.028.239.04.338s.03.239.04.316.028.223.04.322.03.245.04.322.028.223.04.322.03.237.04.3a2.129,2.129,0,0,1,0,.565c-.01.052-.028.187-.042.3s-.03.26-.04.332-.028.213-.04.312-.03.245-.04.322l-.04.312c-.1.771-.1.8-.157.847A.1.1,0,0,1,50.942,335.494Z" transform="translate(-49.571 -323.375)" fill="#fff" fill-rule="evenodd"/><path d="M.293,384.01a.488.488,0,0,1-.028-.137,1.35,1.35,0,0,0-.018-.177c-.012-.06-.03-.189-.042-.29s-.03-.235-.04-.3-.028-.2-.04-.292-.032-.231-.044-.308a1.664,1.664,0,0,1,.044-.608c.01-.066.028-.207.04-.312s.03-.245.04-.312.028-.2.04-.3c.036-.294.04-.31.072-.342a.174.174,0,0,1,.1-.03c.093,0,.119.046.149.262.014.095.032.217.042.272s.028.169.04.251.03.2.04.262.028.171.04.247.03.2.042.268a1.571,1.571,0,0,1-.02.511c-.01.06-.03.179-.042.262s-.032.2-.042.268-.026.167-.036.231-.03.179-.042.256c-.06.388-.062.392-.185.392C.331,384.081.321,384.075.293,384.01Z" transform="translate(-0.067 -372.943)" fill="#fff" fill-rule="evenodd"/></g></g></g></g></svg>