<svg xmlns="http://www.w3.org/2000/svg" width="61" height="61" viewBox="0 0 61 61">
  <g id="icon-handraised-white" transform="translate(-1320 -805)">
    <rect id="Rectangle_1421" data-name="Rectangle 1421" width="61" height="61" transform="translate(1320 805)" fill="#fff" opacity="0"/>
    <path id="Path_1325" data-name="Path 1325" d="M57.713,22.514a3.615,3.615,0,0,0-1.838.326v-1.19a3.615,3.615,0,0,0-3.61-3.605,3.567,3.567,0,0,0-1.557.367,3.6,3.6,0,0,0-7.144.6,3.571,3.571,0,0,0-1.491-.331,3.615,3.615,0,0,0-3.615,3.6V34.916a7.154,7.154,0,0,0-4.4-3.156,3.392,3.392,0,0,0-3.163.775c-1.853,2.159.319,4.876,1.033,5.767a18.591,18.591,0,0,1,3.094,6.217c.9,2.64,1.83,5.37,4.861,8.139a12.705,12.705,0,0,0,1.614,1.2l.24,11.548A1.061,1.061,0,0,0,42.772,66.5h.034a1.06,1.06,0,0,0,1.061-1.033l-.234-11.792a1.7,1.7,0,0,0-.827-1.5,10.511,10.511,0,0,1-1.5-1.09c-2.612-2.388-3.416-4.746-4.267-7.243A20.583,20.583,0,0,0,33.6,36.984c-1.188-1.485-1.549-2.516-1.1-3.041a1.856,1.856,0,0,1,1.434-.031c1.072.309,3.093,1.487,4.591,5.9,0,.013.015.022.021.034a1.016,1.016,0,0,0,.11.189.615.615,0,0,0,.273.285,1.078,1.078,0,0,0,.159.108,1.093,1.093,0,0,0,.2.054,1.027,1.027,0,0,0,.2.04c.015,0,.028.009.042.009A.979.979,0,0,0,39.7,40.5a.932.932,0,0,0,.172-.021c.013,0,.022-.015.034-.02a1.043,1.043,0,0,0,.19-.11,1.119,1.119,0,0,0,.161-.108,3.245,3.245,0,0,0,.234-.328,1.027,1.027,0,0,0,.047-.172,1.044,1.044,0,0,0,.046-.231c0-.012.007-.023.007-.036V22.285a1.487,1.487,0,0,1,2.974,0V34.375a1.062,1.062,0,0,0,2.123,0V19.1a1.487,1.487,0,0,1,2.974,0V34.375a1.062,1.062,0,0,0,2.123,0V21.649a1.487,1.487,0,0,1,2.974,0V35.666a1.062,1.062,0,0,0,2.123,0V26.1A1.471,1.471,0,0,1,56.37,25a1.5,1.5,0,0,1,1.149-.379,1.556,1.556,0,0,1,1.338,1.587v12.7c0,5.734-1.549,10.085-4.495,12.584a1.682,1.682,0,0,0-.595,1.325l1.02,11.9a1.06,1.06,0,0,0,1.061,1.033h.026a1.062,1.062,0,0,0,1.033-1.086L55.884,52.98c2.357-2.077,5.084-6.183,5.084-14.065v-12.7a3.7,3.7,0,0,0-3.255-3.7Z" transform="translate(1303 794.883)" fill="#fff"/>
  </g>
</svg>
