<svg xmlns="http://www.w3.org/2000/svg" width="42" height="42" viewBox="0 0 42 42">
  <g id="icon-handholding-white" transform="translate(-1016 -457)">
    <rect id="Rectangle_1422" data-name="Rectangle 1422" width="42" height="42" transform="translate(1016 457)" fill="rgba(255,255,255,0)"/>
    <path id="Union_6" data-name="Union 6" d="M5423.228,23338.781l.047-1.9a.826.826,0,0,1,1.652,0l-.064,2.033a.774.774,0,0,1-.81.734A.783.783,0,0,1,5423.228,23338.781Zm14.064.557c-.9-.064-.744-.99-.762-1.453-.012-.562-.064-1.506.6-1.758,3.907-1.506,6.268-6.414,4.768-11.129-.744-2.367-4.868-4.41-7.21-5.834-2.279-1.377-2.589.27-2.085.832l4.733,4.633a2.256,2.256,0,0,1-.176,3.182l-8.517,7.6a.892.892,0,0,1-.585.24h-5.43a2.568,2.568,0,0,1-2.524-3.613,2.428,2.428,0,0,1-1.582-2.988c-3.884-.8-.779-5.436.486-3.936.837.99-1.441,1.711-.568,2.209a1.641,1.641,0,0,0,.955.158h6.367a.816.816,0,0,1,0,1.633h-5.2c-.762.111-.732,1.471.544,1.453h5.887l4.089-3.947a.812.812,0,1,1,1.148,1.148l-4.329,4.188a.807.807,0,0,1-.568.223h-5.014c-1.048.1-1.212,1.84.311,1.84h5.108l8.388-7.463c.263-.24.146-.7-.129-.979l-4.622-4.521c-1.7-2.045.3-5.6,4.17-3.275,2.618,1.594,6.971,3.736,7.919,6.742a10.605,10.605,0,0,1-5.3,12.916c-.028.566.234,1.906-.8,1.906Zm-11.961-12.582-.469-.48a2.787,2.787,0,0,1-4.235.146l-3.883-3.744c-1.289-1.311-.744-3.6.439-4.586a2.7,2.7,0,0,1,1.681-2.975,2.849,2.849,0,0,1,1.388-3.516,2.357,2.357,0,0,1,3.251-2.863v-2.238a.817.817,0,0,1,1.634,0v3.549l3.942,4a2.613,2.613,0,0,1-.615,3.994c.955.943,2.149,1.869,1.458,3.439a2.722,2.722,0,0,1-.633.842,2.82,2.82,0,0,1-.773.5c.838.8,1.857,1.6,1.2,3.164a2.656,2.656,0,0,1-2.429,1.6A2.782,2.782,0,0,1,5425.331,23326.756Zm-6.467-8.775,7.6,7.592c1.083,1.055,2.231-.27,1.634-.891l-8.119-7.867a.791.791,0,0,0-.457-.172C5418.891,23316.643,5418.637,23317.744,5418.864,23317.98Zm-.926,3.6,3.866,3.727c.808.814,2.267.193,1.6-.48l-5.331-5.324A1.72,1.72,0,0,0,5417.938,23321.576Zm3.14-5.963,5.823,5.631c.644.607,2.085-.322,1.353-1.107l-6.965-6.936a.409.409,0,0,0-.275-.113C5420.43,23313.088,5419.867,23314.469,5421.078,23315.613Zm1.324-3.6,4.429,4.4c.955.879,1.669-.609,1.054-1.281l-4.61-4.635a1.105,1.105,0,0,0-.77-.334C5421.813,23310.166,5421.3,23310.924,5422.4,23312.018Zm17.672,7.387c.24-2.32.176-6.924-2.343-7.293a.8.8,0,0,1-.744-.8v-4.955a.814.814,0,0,1,1.628,0v4.328c3.169,1.119,3.433,5.775,3.093,8.893a.822.822,0,0,1-1.634-.176Z" transform="translate(-4393.086 -22844.359)" fill="#fff"/>
  </g>
</svg>
