<svg xmlns="http://www.w3.org/2000/svg" width="42" height="42" viewBox="0 0 42 42">
  <g id="icon-group-white" transform="translate(-1016 -457)">
    <rect id="Rectangle_1423" data-name="Rectangle 1423" width="42" height="42" transform="translate(1016 457)" fill="rgba(255,255,255,0)"/>
    <path id="Union_5" data-name="Union 5" d="M5868.742,22504.441c-.409,0-.743-.332-.743-1.066v-2.5a5.32,5.32,0,0,1,4.634-5.332,5.264,5.264,0,0,1,4.025,1.168,6.507,6.507,0,0,1,9.8-.811,4.348,4.348,0,0,1,5.534-.549l1.724-1.719v-4.592a2.142,2.142,0,0,1,3.481-1.744,2.148,2.148,0,0,1,.809,1.672v5.264a4.355,4.355,0,0,1-1.281,3.092l-2.85,2.834v3.547a.744.744,0,0,1-.741.74Zm20.02-8.271a2.923,2.923,0,0,0-2.094,2.852V22503h5.094a.667.667,0,0,0,.647-.664v-2.48a.742.742,0,0,1,.217-.523l3.02-3.006a3.032,3.032,0,0,0,.92-2.158v-5.215a.686.686,0,0,0-.751-.664.717.717,0,0,0-.622.73v4.895c0,.2-.061.387-.394.7l-2.228,2.219a.752.752,0,0,1-1.051,0,2.884,2.884,0,0,0-2.759-.662Zm-16.152.844a3.845,3.845,0,0,0-3.157,3.828v1.809a.332.332,0,0,0,.334.332h7.24c.008,0,0-.016,0-.016v-2.236a3.787,3.787,0,0,0-4.417-3.717Zm5.894,3.717v2.236h6.667v-4.035a4.213,4.213,0,0,1,.283-1.52.486.486,0,0,0-.119-.52,5.015,5.015,0,0,0-7.4.527.753.753,0,0,0-.06.822h-.015A5.173,5.173,0,0,1,5878.5,22500.73Zm-9.481-10.109a4.228,4.228,0,1,1,4.227,4.209A4.218,4.218,0,0,1,5869.023,22490.621Zm4.227-2.75a2.747,2.747,0,1,0,0-.014Zm16.016,5.688a3.466,3.466,0,1,1,3.483-3.465,3.478,3.478,0,0,1-3.483,3.465Zm-2.141-3.465a2.141,2.141,0,1,0,2.141-2.133A2.136,2.136,0,0,0,5887.125,22490.094Zm-5.524,2.521a3.532,3.532,0,1,1,3.552-3.529,3.539,3.539,0,0,1-3.552,3.529Zm-2.08-3.514a2.08,2.08,0,1,0,2.08-2.074A2.076,2.076,0,0,0,5879.521,22489.1Z" transform="translate(-4846.002 -22016.551)" fill="#fff"/>
  </g>
</svg>
