<svg xmlns="http://www.w3.org/2000/svg" width="28" height="28" viewBox="0 0 28 28"><g transform="translate(-1281 -369)"><rect width="28" height="28" transform="translate(1281 369)" fill="rgba(255,255,255,0)"/><path d="M22.349,11.171H16.124v-4.3A2.622,2.622,0,0,0,13.506,4.25H4.178A2.622,2.622,0,0,0,1.56,6.868V12.7A2.588,2.588,0,0,0,2,14.15c.923,1.776,5.179,4.4,5.225,4.429a.6.6,0,0,0,.3.085.573.573,0,0,0,.534-.792A16.063,16.063,0,0,1,7.346,15.3h3.076V19.61a2.618,2.618,0,0,0,2.6,2.614h6.152a16.063,16.063,0,0,1-.715,2.561.573.573,0,0,0,.534.792.6.6,0,0,0,.3-.085c.046-.027,4.3-2.653,5.225-4.429a2.588,2.588,0,0,0,.442-1.453V13.789a2.622,2.622,0,0,0-2.611-2.618ZM9.223,14.15H6.654a.592.592,0,0,0-.438.2.573.573,0,0,0-.131.461c0,.054.138.888.384,1.88a13.6,13.6,0,0,1-3.46-3.076.581.581,0,0,0-.058-.108,1.4,1.4,0,0,1-.261-.83V6.868A1.469,1.469,0,0,1,4.178,5.4h9.327a1.469,1.469,0,0,1,1.465,1.465v4.3H13.021a2.618,2.618,0,0,0-1.969.9,3.356,3.356,0,0,1-1.188-.258A5,5,0,0,0,10.93,9.152h.311a.577.577,0,1,0,0-1.153H9.419V6.972a.577.577,0,1,0-1.153,0V8H6.47a.577.577,0,1,0,0,1.153h3.3a3.8,3.8,0,0,1-.846,2,3.9,3.9,0,0,1-.769-1.284.577.577,0,1,0-1.077.415,5.183,5.183,0,0,0,.9,1.538,3.779,3.779,0,0,1-1.488.273h0a.577.577,0,0,0,0,1.153h0a4.641,4.641,0,0,0,2.434-.634,4.079,4.079,0,0,0,1.557.557,2.518,2.518,0,0,0-.077.615v.384Zm14.61,5.46a1.4,1.4,0,0,1-.261.83.55.55,0,0,0-.058.1,13.355,13.355,0,0,1-3.46,3.076,16.328,16.328,0,0,0,.384-1.88.573.573,0,0,0-.131-.461.584.584,0,0,0-.434-.208H13.021a1.465,1.465,0,0,1-1.465-1.461V13.789a1.469,1.469,0,0,1,1.465-1.465h9.327a1.469,1.469,0,0,1,1.465,1.465Zm-4.064-2.138h0l-1.538-3.845h0a.308.308,0,0,0-.031-.062l-.023-.038a.246.246,0,0,0-.038-.05l-.031-.038-.042-.035-.046-.023a.15.15,0,0,0-.042-.023l-.058-.031h0a.135.135,0,0,0-.042,0l-.058-.019H17.6l-.065.019a.146.146,0,0,0-.038,0h0l-.058.031-.058.023a.334.334,0,0,0-.042.035l-.042.035-.035.038a.565.565,0,0,0-.038.05v.038l-.035.062h0l-1.538,3.845h0l-.769,1.922a.577.577,0,0,0,.323.769.523.523,0,0,0,.215.042.581.581,0,0,0,.534-.361l.623-1.561h2.307l.623,1.561a.584.584,0,0,0,.538.361.519.519,0,0,0,.211-.042.577.577,0,0,0,.323-.769Zm-2.757-.354L17.7,15.4l.684,1.715Z" transform="translate(1282.101 367.893)" fill="#ada1b6"/></g></svg>