<svg xmlns="http://www.w3.org/2000/svg" width="42" height="42" viewBox="0 0 42 42">
  <g id="icon-handstogether-white" transform="translate(-1014 -457)">
    <rect id="Rectangle_1425" data-name="Rectangle 1425" width="42" height="42" transform="translate(1014 457)" fill="rgba(255,255,255,0)"/>
    <path id="Union_4" data-name="Union 4" d="M5021.433,23342.348l-4.32-4.67a.946.946,0,0,1,.034-1.322l2.79-2.717-.444-4.773a7.439,7.439,0,0,1,1.191-4.8l4.594-6.863a2.428,2.428,0,0,1,2.688-1.045,2.555,2.555,0,0,1,1.8,3.064l-1.021,4.529a2.4,2.4,0,0,1,.851,1.67l.272,7a4.626,4.626,0,0,1-.919,2.889l-2.96,3.9-3.266,3.172a.942.942,0,0,1-.642.256A.865.865,0,0,1,5021.433,23342.348Zm-2.416-5.295,3.062,3.309,1.8-1.74-3.063-3.312Zm7.69-18.811-4.56,6.861a5.777,5.777,0,0,0-.883,3.588l.476,4.877,3.4,3.658,2.346-3.1a2.592,2.592,0,0,0,.545-1.672l-.274-7a.475.475,0,0,0-.408-.42.48.48,0,0,0-.476.35l-.444,1.707a7.945,7.945,0,0,0-.237,1.984l.034,1.988a.9.9,0,1,1-1.8.033l-.034-1.986a12.638,12.638,0,0,1,.271-2.508l.444-1.707a2.189,2.189,0,0,1,1.871-1.707l.987-4.387a.7.7,0,0,0-.681-.859A.7.7,0,0,0,5026.707,23318.242Zm11.635,24.105-3.265-3.172-2.96-3.9a4.437,4.437,0,0,1-.919-2.893l.306-6.967a2.376,2.376,0,0,1,.817-1.67l-1.021-4.529a2.554,2.554,0,0,1,1.8-3.064,2.427,2.427,0,0,1,2.688,1.045l4.561,6.826a7.5,7.5,0,0,1,1.189,4.809l-.442,4.77,2.79,2.719a.955.955,0,0,1,.068,1.324l-4.32,4.666a.9.9,0,0,1-1.293.037Zm-1.191-3.727,1.8,1.74,3.063-3.309-1.8-1.744Zm-3.436-13.588a.4.4,0,0,0-.41.42l-.271,7a2.493,2.493,0,0,0,.511,1.672l2.347,3.135,3.4-3.66.476-4.875a5.551,5.551,0,0,0-.885-3.588l-4.558-6.863a.7.7,0,0,0-.748-.277.668.668,0,0,0-.512.836l.987,4.389a2.227,2.227,0,0,1,1.871,1.707l.444,1.707a8.639,8.639,0,0,1,.271,2.473l-.034,1.986a.9.9,0,1,1-1.8-.033l.034-1.988a7.948,7.948,0,0,0-.239-1.984l-.408-1.707a.445.445,0,0,0-.414-.354C5033.757,23325.029,5033.736,23325.031,5033.715,23325.033Zm-7.724-10.762-1.055-1.848a1.154,1.154,0,0,1,.41-1.533,1.215,1.215,0,0,1,.85-.1.963.963,0,0,1,.681.521l1.019,1.813a1.3,1.3,0,0,1,.1.871,1.08,1.08,0,0,1-.512.7,1.42,1.42,0,0,1-.544.139A1.125,1.125,0,0,1,5025.991,23314.271Zm7.52.383a1.187,1.187,0,0,1-.41-1.568l1.021-1.811a1.066,1.066,0,0,1,1.5-.418,1.176,1.176,0,0,1,.509.7,1.251,1.251,0,0,1-.1.869l-1.02,1.813a1.083,1.083,0,0,1-.953.557A1.063,1.063,0,0,1,5033.511,23314.654Zm-3-.838a1.107,1.107,0,0,1-1.087-1.113v-2.09a1.088,1.088,0,1,1,2.176,0v2.09a1.071,1.071,0,0,1-1.031,1.115A.573.573,0,0,1,5030.516,23313.816Z" transform="translate(-3995.861 -22846.5)" fill="#fff"/>
  </g>
</svg>
