<svg xmlns="http://www.w3.org/2000/svg" width="15.746" height="17.144" viewBox="0 0 15.746 17.144"><g transform="translate(0 0)"><path d="M39.865,48.711,38.86,47.66l-5.015,4.8-2.505-2.5L30.31,50.983,33.823,54.5Z" transform="translate(-27.216 -40.119)" fill="#fff"/><path d="M13.589,10.57h-.515a1.446,1.446,0,0,0-1.355,1.522v.217h-.259A2.272,2.272,0,0,0,9.33,14.7V25.323a2.272,2.272,0,0,0,2.129,2.391H22.947a2.272,2.272,0,0,0,2.129-2.391V14.7a2.272,2.272,0,0,0-2.129-2.391h-.259v-.217a1.446,1.446,0,0,0-1.355-1.522h-.515a1.446,1.446,0,0,0-1.355,1.522v.217H14.944v-.217a1.622,1.622,0,0,0-.4-1.077A1.285,1.285,0,0,0,13.589,10.57Zm-.71,1.522a.207.207,0,0,1,.194-.217h.517a.207.207,0,0,1,.194.217v1.739a.207.207,0,0,1-.194.217h-.515a.207.207,0,0,1-.194-.217ZM23.913,25.323a1.033,1.033,0,0,1-.968,1.087H11.459a1.033,1.033,0,0,1-.968-1.087V17.988H23.915ZM20.622,12.092a.207.207,0,0,1,.194-.217h.517a.207.207,0,0,1,.194.217v1.739a.207.207,0,0,1-.194.217h-.515a.207.207,0,0,1-.194-.217ZM19.46,13.614v.217a1.446,1.446,0,0,0,1.355,1.522h.517a1.446,1.446,0,0,0,1.355-1.522v-.217h.257a1.033,1.033,0,0,1,.968,1.087v1.978H10.492V14.7a1.033,1.033,0,0,1,.968-1.087h.257v.217a1.446,1.446,0,0,0,1.355,1.522h.517a1.446,1.446,0,0,0,1.355-1.522v-.217Z" transform="translate(-9.33 -10.57)" fill="#fff"/></g></svg>