<svg xmlns="http://www.w3.org/2000/svg" width="166.786" height="41" viewBox="0 0 166.786 41"><g transform="translate(0)"><g transform="translate(0.5 0.5)"><path d="M156.814.5H9.363L8.875.5,8.592.5l-.44.007-.2,0a12.979,12.979,0,0,0-2,.176,6.589,6.589,0,0,0-1.879.619,6.356,6.356,0,0,0-1.6,1.164,6.171,6.171,0,0,0-1.163,1.6A6.512,6.512,0,0,0,.694,5.953a12.724,12.724,0,0,0-.179,2c0,.136-.007.275-.009.461,0,.046,0,.082,0,.165,0,.149,0,.216,0,.3V31.91c0,.111,0,.111,0,.219,0,.084,0,.149,0,.3,0,.081,0,.116,0,.162,0,.186.005.326.009.465a12.722,12.722,0,0,0,.179,2,6.5,6.5,0,0,0,.618,1.881,6.123,6.123,0,0,0,1.164,1.593,6.193,6.193,0,0,0,1.6,1.163,6.62,6.62,0,0,0,1.879.623,13.137,13.137,0,0,0,2,.176c.324.007.627.011.923.011l.488,0h148l.546,0c.3,0,.61,0,.925-.011a12.966,12.966,0,0,0,2-.176,6.726,6.726,0,0,0,1.887-.623,6.2,6.2,0,0,0,1.6-1.164,6.307,6.307,0,0,0,1.166-1.592,6.518,6.518,0,0,0,.612-1.882,13.032,13.032,0,0,0,.185-1.993c0-.146,0-.3,0-.465,0-.127,0-.229,0-.464,0-.072,0-.145,0-.22,0-.242,0-.436,0-.878V9.97c0-.55,0-.793-.008-1.1,0-.231,0-.334,0-.463,0-.17,0-.319,0-.459a13.052,13.052,0,0,0-.185-2,6.527,6.527,0,0,0-.611-1.879,6.384,6.384,0,0,0-2.764-2.763,6.694,6.694,0,0,0-1.888-.62,12.8,12.8,0,0,0-1.994-.176l-.177,0-.287,0L157.905.5l-.541,0Z" transform="translate(-0.5 -0.5)" stroke="#a6a6a6" stroke-width="1" fill-rule="evenodd"/><path d="M301.714,43.482a1.1,1.1,0,0,0,1.507-.387,1.109,1.109,0,0,0-.384-1.515c-4.364-2.6-11.268-2.849-15.422-1.582a1.105,1.105,0,0,0,.638,2.116C291.672,41.011,297.924,41.219,301.714,43.482Zm-.124,3.352a.925.925,0,0,0-.3-1.267A17.071,17.071,0,0,0,288.079,44a.921.921,0,0,0,.533,1.764,15.359,15.359,0,0,1,11.717,1.378A.914.914,0,0,0,301.59,46.835Zm-1.439,3.22a.739.739,0,0,0-.243-1.013c-3.1-1.9-6.942-2.348-11.421-1.318a.737.737,0,0,0,.326,1.436c4.093-.94,7.569-.557,10.33,1.14A.73.73,0,0,0,300.151,50.054ZM294.759,33A11.824,11.824,0,1,1,283,44.824,11.791,11.791,0,0,1,294.759,33Zm20.233,10.915c2.474.6,3.482,1.544,3.482,3.242,0,2.009-1.526,3.307-3.889,3.307a6.607,6.607,0,0,1-4.475-1.726.133.133,0,0,1-.013-.185l1.112-1.33a.132.132,0,0,1,.091-.047.139.139,0,0,1,.1.032,4.65,4.65,0,0,0,3.233,1.343c1.067,0,1.73-.464,1.73-1.211,0-.674-.328-1.051-2.271-1.5-2.283-.555-3.6-1.273-3.6-3.3,0-1.893,1.531-3.216,3.723-3.216a5.977,5.977,0,0,1,3.9,1.358.134.134,0,0,1,.025.182l-.991,1.405a.133.133,0,0,1-.188.03,4.6,4.6,0,0,0-2.775-1.06c-.944,0-1.58.456-1.58,1.135C312.6,43.087,312.961,43.429,314.992,43.915Zm10.541,2.275a2.223,2.223,0,0,0-2.136-2.434,2.449,2.449,0,0,0,0,4.868A2.2,2.2,0,0,0,325.533,46.191ZM323.818,41.9c1.9,0,3.828,1.473,3.828,4.289s-1.926,4.288-3.828,4.288a3.258,3.258,0,0,1-2.556-1.163V52.6a.134.134,0,0,1-.133.134h-1.818a.133.133,0,0,1-.133-.134V42.2a.133.133,0,0,1,.133-.134h1.818a.134.134,0,0,1,.133.134v.935A3.179,3.179,0,0,1,323.818,41.9Zm8.765,6.738a2.271,2.271,0,0,0,2.271-2.418,2.326,2.326,0,0,0-2.3-2.45,2.265,2.265,0,0,0-2.256,2.419A2.319,2.319,0,0,0,332.583,48.64Zm0-6.738a4.3,4.3,0,1,1-4.37,4.319A4.276,4.276,0,0,1,332.583,41.9Zm9.586.167a.133.133,0,0,1,.133.134v1.571a.133.133,0,0,1-.133.134h-2v3.779c0,.6.26.863.843.863a2.281,2.281,0,0,0,1.067-.259.132.132,0,0,1,.129.006.134.134,0,0,1,.063.114v1.5a.134.134,0,0,1-.067.116,3.3,3.3,0,0,1-1.7.426,2.169,2.169,0,0,1-2.417-2.476V43.908h-.874a.133.133,0,0,1-.132-.134V42.2a.133.133,0,0,1,.132-.134h.874V40.013a.134.134,0,0,1,.133-.134h1.818a.133.133,0,0,1,.133.134v2.057Zm6.97.008h3.106a.132.132,0,0,1,.124.086l2.124,5.572,1.939-5.568a.134.134,0,0,1,.126-.09h1.893a.133.133,0,0,1,.109.058.135.135,0,0,1,.014.124l-3.154,8.195c-.654,1.691-1.4,2.32-2.738,2.32a3.812,3.812,0,0,1-1.942-.5.133.133,0,0,1-.057-.173l.616-1.359a.131.131,0,0,1,.185-.062,2.088,2.088,0,0,0,1,.286c.4,0,.687-.131.982-.79l-2.6-6.269h-1.7v6.27a.134.134,0,0,1-.133.134h-1.818a.133.133,0,0,1-.133-.134v-6.27h-.873a.134.134,0,0,1-.133-.134V42.2a.134.134,0,0,1,.133-.134h.873v-.387c0-1.8.887-2.749,2.567-2.749a4.969,4.969,0,0,1,1.511.218.134.134,0,0,1,.094.128v1.54a.133.133,0,0,1-.175.127,3.052,3.052,0,0,0-1.024-.19c-.635,0-.919.331-.919,1.074Zm-4.041-.008a.134.134,0,0,1,.133.134v7.975a.134.134,0,0,1-.133.134h-1.818a.134.134,0,0,1-.133-.134V42.2a.134.134,0,0,1,.133-.134Zm-.9-3.631a1.311,1.311,0,1,1-1.3,1.311A1.307,1.307,0,0,1,344.2,38.438Zm16,4.425h-.333v.427h.333c.166,0,.266-.082.266-.214S360.366,42.863,360.2,42.863Zm.216.609.362.509h-.305l-.326-.467h-.28v.467h-.255v-1.35h.6c.312,0,.517.16.517.431A.4.4,0,0,1,360.415,43.472Zm-.284-1.29a1.162,1.162,0,1,0,1.145,1.158A1.147,1.147,0,0,0,360.132,42.182Zm-.007,2.452a1.29,1.29,0,1,1,1.286-1.294A1.278,1.278,0,0,1,360.125,44.633Z" transform="translate(-211.931 -24.824)" fill="#fff" fill-rule="evenodd"/><path d="M66.883,73.193H63V67.128h1.18v4.935h2.7Zm2.815,0H68.5V67.128h1.2Zm6.271-4.619-1.061.325a1.036,1.036,0,0,0-1.1-.855.859.859,0,0,0-.949.77c0,.334.214.6.659.684l.847.163a1.85,1.85,0,0,1,1.694,1.788,1.99,1.99,0,0,1-2.19,1.873,2.211,2.211,0,0,1-2.412-1.9l1.095-.291a1.217,1.217,0,0,0,1.326,1.138c.633,0,.984-.316.984-.744,0-.351-.265-.624-.736-.718l-.847-.171A1.766,1.766,0,0,1,71.684,68.9a2.2,2.2,0,0,1,4.285-.325Zm6.39-.325H80.443v4.944H79.254V68.249H77.338V67.128h5.021Zm5.415,4.944h-3.8V67.128h3.8V68.24H85.157v1.386h2.369v1.052H85.157v1.4h2.617Zm7.092,0h-1.24l-2.754-4.3v4.3h-1.18V67.128h1.471l2.523,4.012V67.128h1.18Zm5.724-3.036a1.9,1.9,0,1,0,1.89-2.019A1.87,1.87,0,0,0,100.59,70.156Zm-1.223.009a3.118,3.118,0,1,1,3.113,3.156A3.056,3.056,0,0,1,99.367,70.165Zm13.242,3.028h-1.24l-2.754-4.3v4.3h-1.18V67.128h1.471l2.523,4.012V67.128h1.18Z" transform="translate(-47.277 -50.27)" fill="#fff" fill-rule="evenodd"/></g></g></svg>