<svg id="icon_social_share_twitter_white" xmlns="http://www.w3.org/2000/svg" width="40" height="40" viewBox="0 0 40 40">
  <g id="Frontpage" transform="translate(-904 -2557)">
    <g id="Share-This" transform="translate(421 2557)">
      <g id="Social-Networks-_-Lines-White" data-name="Social-Networks-/-Lines-White" transform="translate(432)">
        <g id="graphic_TwitterWhite" data-name="graphic/TwitterWhite" transform="translate(51)">
          <circle id="Oval" cx="19.5" cy="19.5" r="19.5" transform="translate(0.5 0.5)" fill="none" stroke="rgba(255,255,255,0.01)" stroke-width="1"/>
          <path id="Path_1159" data-name="Path 1159" d="M29.531,13.191a6.906,6.906,0,0,1-2.216.856,3.458,3.458,0,0,0-2.545-1.115,3.511,3.511,0,0,0-3.486,3.534,3.563,3.563,0,0,0,.09.8,9.855,9.855,0,0,1-7.189-3.694,3.571,3.571,0,0,0,1.08,4.72,3.45,3.45,0,0,1-1.581-.441V17.9a3.523,3.523,0,0,0,2.8,3.466,3.362,3.362,0,0,1-.919.124,3.438,3.438,0,0,1-.656-.062,3.494,3.494,0,0,0,3.258,2.453,6.936,6.936,0,0,1-4.332,1.514A7.071,7.071,0,0,1,13,25.345a9.791,9.791,0,0,0,5.347,1.587A9.925,9.925,0,0,0,28.27,16.877c0-.154,0-.307-.009-.458A7.113,7.113,0,0,0,30,14.589a6.894,6.894,0,0,1-2,.556,3.535,3.535,0,0,0,1.534-1.955" fill="none" stroke="#fff" stroke-width="1" fill-rule="evenodd"/>
        </g>
      </g>
    </g>
  </g>
</svg>
