<?xml version="1.0" encoding="UTF-8"?>
<svg width="40px" height="40px" viewBox="0 0 40 40" version="1.1" xmlns="http://www.w3.org/2000/svg" xmlns:xlink="http://www.w3.org/1999/xlink">
    <!-- Generator: Sketch 63.1 (92452) - https://sketch.com -->
    <title>graphic/FacebookWhite</title>
    <desc>Created with Sketch.</desc>
    <g id="Website" stroke="none" stroke-width="1" fill="none" fill-rule="evenodd">
        <g id="Frontpage" transform="translate(-853.000000, -2557.000000)">
            <g id="Share-This" transform="translate(421.000000, 2557.000000)">
                <g id="Social-Networks-/-Lines-White" transform="translate(432.000000, 0.000000)">
                    <g id="graphic/FacebookWhite" transform="translate(0.000000, 1.000000)">
                        <circle id="Oval" stroke-opacity="0.00999781469" stroke="#FFFFFF" cx="20" cy="19" r="19.5"></circle>
                        <path d="M28,27.082 C28,27.5965946 27.7555556,27.932 27.2622222,27.932 L23.1111111,27.932 L23.1111111,21.4995676 L25.2222222,21.4995676 L25.5422222,18.7428108 L23.1111111,18.7428108 L23.1111111,17.3092973 C23.1111111,16.5741622 23.3022222,15.9860541 24.3244444,15.9860541 L25.7777778,15.9860541 L25.7777778,13.7944324 C25.3333333,13.7622703 24.6444444,13.6933514 23.7422222,13.6933514 C21.8666667,13.6933514 20.4444444,14.8787568 20.4444444,17.0565946 L20.4444444,18.7428108 L18.2222222,18.7428108 L18.2222222,21.4995676 L20.4444444,21.4995676 L20.4444444,27.932 L12.7466667,27.932 C12.2488889,27.932 12,27.5965946 12,27.082 L12,12.0760541 C12,11.5614595 12.2488889,10.932 12.7466667,10.932 L27.2622222,10.932 C27.7555556,10.932 28,11.5614595 28,12.0760541 L28,27.082 L28,27.082 Z" stroke="#311348"></path>
                    </g>
                </g>
            </g>
        </g>
    </g>
</svg>