<svg xmlns="http://www.w3.org/2000/svg" width="42" height="42" viewBox="0 0 42 42">
  <g id="icon-handsup-white" transform="translate(-1013 -457)">
    <rect id="Rectangle_1424" data-name="Rectangle 1424" width="42" height="42" transform="translate(1013 457)" fill="rgba(255,255,255,0)"/>
    <path id="Union_2" data-name="Union 2" d="M5237.945,23676.5h-.132a8.849,8.849,0,0,1-2.873-.523.418.418,0,0,1-.274-.393v-3.875a3.1,3.1,0,0,1-.781-.928,8.832,8.832,0,0,1-.884-4.32v-5.953c0-1.061.653-1.607,1.3-1.607a1.165,1.165,0,0,1,.467.1v-.152a1.415,1.415,0,0,1,1.452-1.461,1.517,1.517,0,0,1,.66.15,1.46,1.46,0,0,1,2.9.037,1.424,1.424,0,0,1,2,1.367v6.9a.338.338,0,0,0,.165.289.323.323,0,0,0,.325,0,3.735,3.735,0,0,0,.36-.223,2.952,2.952,0,0,1,1.672-.613,2.119,2.119,0,0,0,2.594-.012,2.941,2.941,0,0,1,1.672.611,4.106,4.106,0,0,0,.361.225.334.334,0,0,0,.326,0,.346.346,0,0,0,.163-.289v-6.895a1.422,1.422,0,0,1,2-1.367,1.461,1.461,0,0,1,2.9-.039,1.5,1.5,0,0,1,.657-.146,1.409,1.409,0,0,1,1.454,1.469v.15a1.134,1.134,0,0,1,.467-.1,1.415,1.415,0,0,1,1.292,1.605v5.959a8.737,8.737,0,0,1-.885,4.32,3.109,3.109,0,0,1-.775.928v3.875a.418.418,0,0,1-.273.393,8.87,8.87,0,0,1-2.885.523h-.121a8.787,8.787,0,0,1-2.984-.523.417.417,0,0,1-.274-.393v-2.908c0-.883,0-1-.786-1.787a9.234,9.234,0,0,1-.959-1.166,4.249,4.249,0,0,0-1.147-1.205,7.9,7.9,0,0,0-.716-.412.843.843,0,0,0-1.545.006,7.388,7.388,0,0,0-.716.41,4.217,4.217,0,0,0-1.147,1.205,8.721,8.721,0,0,1-.956,1.164c-.786.793-.786.906-.786,1.785v2.908a.417.417,0,0,1-.273.393,8.78,8.78,0,0,1-2.991.523Zm-4.12-16v5.949c0,3.779,1.341,4.607,1.425,4.652a.4.4,0,0,1,.237.381v3.809a7.988,7.988,0,0,0,4.883,0v-2.607a2.551,2.551,0,0,1,1.03-2.373,8.5,8.5,0,0,0,.871-1.062,5.015,5.015,0,0,1,1.365-1.414,8.46,8.46,0,0,1,.79-.453v-.006c.62-.322.75-.428.753-.768,0-.2-.237-.494-.885-.494a2.158,2.158,0,0,0-1.214.477c-.142.1-.287.189-.438.273a1.167,1.167,0,0,1-1.693-1.041v-6.885a.6.6,0,0,0-.15-.479.585.585,0,0,0-.462-.193.542.542,0,0,0-.415.186.554.554,0,0,0-.132.436v5.1a.411.411,0,0,1-.182.416.415.415,0,0,1-.636-.416v-6.092c0-.416-.2-.818-.651-.818s-.649.42-.649.818v6.115a.415.415,0,0,1-.819,0v-5.168a.622.622,0,0,0-.213-.482.676.676,0,0,0-.438-.156.594.594,0,0,0-.622.639v5.846a.418.418,0,0,1-.184.416.416.416,0,0,1-.636-.416v-4.189c0-.529-.243-.771-.468-.771S5233.826,23659.973,5233.826,23660.5Zm12.182,6.115c0,.332.132.438.747.76.271.143.534.293.79.455a5.087,5.087,0,0,1,1.365,1.414,8.106,8.106,0,0,0,.876,1.059,2.565,2.565,0,0,1,1.031,2.377v2.6a8.015,8.015,0,0,0,4.883,0v-3.8a.4.4,0,0,1,.234-.365c.081-.053,1.422-.881,1.422-4.65l-.038-5.967c0-.529-.244-.771-.467-.771s-.468.24-.468.771v4.189a.416.416,0,1,1-.821,0v-5.846a.625.625,0,0,0-.3-.578.617.617,0,0,0-.649,0,.632.632,0,0,0-.3.578v5.168a.415.415,0,0,1-.819,0v-6.115c0-.416-.2-.818-.65-.818s-.651.42-.651.818v6.092a.41.41,0,0,1-.182.416.415.415,0,0,1-.636-.416v-5.1a.554.554,0,0,0-.132-.436.544.544,0,0,0-.415-.186.586.586,0,0,0-.45.2.594.594,0,0,0-.143.471v6.885a1.159,1.159,0,0,1-.552,1,1.172,1.172,0,0,1-1.139.055,5.129,5.129,0,0,1-.436-.275,2.188,2.188,0,0,0-1.216-.477C5246.244,23666.125,5246.008,23666.42,5246.008,23666.619Zm2.134-11.643a.426.426,0,0,1-.354-.213.419.419,0,0,1,.008-.414l1.27-2.111a.424.424,0,0,1,.362-.2.418.418,0,0,1,.355.217l1.18,2.152a.419.419,0,0,1-.363.619Zm.729-.814,1.028.033-.5-.912Zm-8.639.65a.411.411,0,0,1-.014-.4l1.188-2.156a.415.415,0,0,1,.355-.217.425.425,0,0,1,.362.2l1.263,2.1a.425.425,0,0,1,.007.418.418.418,0,0,1-.355.213l-2.458.047A.414.414,0,0,1,5240.232,23654.813Zm1.059-.617,1.025-.033-.531-.889Zm3.945-.941-1.23-2.131a.423.423,0,0,1,0-.418.416.416,0,0,1,.358-.207h2.459a.416.416,0,0,1,.36.625l-1.229,2.131a.415.415,0,0,1-.719,0Zm.357-1.037.511-.879-1.021-.01Z" transform="translate(-4211.1 -23186.5)" fill="#fff" stroke="#fff" stroke-width="0.5"/>
  </g>
</svg>
