<svg xmlns="http://www.w3.org/2000/svg" width="18" height="18" viewBox="0 0 18 18"><g transform="translate(0 0)"><path d="M7.876,14a.47.47,0,0,0-.355.5v2.75H4.391a.456.456,0,0,0-.391.5V29.373A2.4,2.4,0,0,0,6.152,32H19.97C21.12,32,22,30.853,22,29.373V14.5a.456.456,0,0,0-.391-.5H7.876ZM8.3,15H21.217V29.373c0,1.021-.467,1.625-1.247,1.625H7.809a2.89,2.89,0,0,0,.5-1.625Zm2.115,2.25a.47.47,0,0,0-.355.5v4.5a.456.456,0,0,0,.391.5h8.609a.456.456,0,0,0,.391-.5v-4.5a.456.456,0,0,0-.391-.5H10.42Zm-5.637,1H7.522V29.373a1.489,1.489,0,0,1-1.26,1.617L6.226,31H6.152a1.45,1.45,0,0,1-1.37-1.625Zm6.065,0h7.826v3.5H10.848Zm-.428,6.5a.469.469,0,0,0-.373.523.444.444,0,0,0,.41.477h8.609a.515.515,0,0,0,0-1H10.42Zm0,3a.469.469,0,0,0-.373.523.444.444,0,0,0,.41.477h8.609a.515.515,0,0,0,0-1H10.42Z" transform="translate(-4 -13.998)" fill="#fff"/></g></svg>