<svg id="icon_social_share_facebook_white" xmlns="http://www.w3.org/2000/svg" width="40" height="40" viewBox="0 0 40 40">
  <g id="Frontpage" transform="translate(-853 -2557)">
    <g id="Share-This" transform="translate(421 2557)">
      <g id="Social-Networks-_-Lines-White" data-name="Social-Networks-/-Lines-White" transform="translate(432)">
        <g id="graphic_FacebookWhite" data-name="graphic/FacebookWhite" transform="translate(0 1)">
          <circle id="Oval" cx="19.5" cy="19.5" r="19.5" transform="translate(0.5 -0.5)" fill="none" stroke="rgba(255,255,255,0.01)" stroke-width="1"/>
          <path id="Path_1158" data-name="Path 1158" d="M28,27.082c0,.515-.244.85-.738.85H23.111V21.5h2.111l.32-2.757H23.111V17.309c0-.735.191-1.323,1.213-1.323h1.453V13.794c-.444-.032-1.133-.1-2.036-.1a3.117,3.117,0,0,0-3.3,3.363v1.686H18.222V21.5h2.222v6.432h-7.7c-.5,0-.747-.335-.747-.85V12.076c0-.515.249-1.144.747-1.144H27.262c.493,0,.738.629.738,1.144V27.082Z" fill="none" stroke="#fff" stroke-width="1" fill-rule="evenodd"/>
        </g>
      </g>
    </g>
  </g>
</svg>
