<svg xmlns="http://www.w3.org/2000/svg" width="289.807" height="73.267" viewBox="0 0 289.807 73.267"><g transform="translate(0.003 0)"><g transform="translate(82.028 41.867)"><path d="M15.9,14.164H4.947V24.422H0V0H4.947V9.591h11V0h4.994V24.422H15.949Z" transform="translate(33.16 0)" fill="#f6f7f8"/><path d="M0,12.224A11.852,11.852,0,0,1,3.6,3.437,12.163,12.163,0,0,1,12.542.009,11.017,11.017,0,0,1,22.689,5.782L18.34,7.906a6.583,6.583,0,0,0-5.8-3.436,7.749,7.749,0,0,0,0,15.484,6.485,6.485,0,0,0,5.75-3.436l4.349,2.1a11.065,11.065,0,0,1-10.147,5.8,12.162,12.162,0,0,1-8.905-3.438A11.852,11.852,0,0,1,0,12.224Z" transform="translate(123.915 0)" fill="#f6f7f8"/><path d="M5.039,24.424h0L0,24.423V.023H11.086c.192-.015.387-.023.579-.023A7.254,7.254,0,0,1,16.78,2.113a7.731,7.731,0,0,1,2.274,5.763,7.011,7.011,0,0,1-5.209,7.26L19.2,24.42l-5.806,0L8.735,15.679h-3.7v8.745Zm0-19.956V11.21h5.3c.1.008.194.013.283.013a3.284,3.284,0,0,0,2.8-1.609,3.444,3.444,0,0,0,0-3.548,3.287,3.287,0,0,0-2.8-1.609c-.093,0-.187,0-.28.012Z" transform="translate(95.991 0)" fill="#f6f7f8"/><path d="M0,0H5.076V14.226a5.473,5.473,0,0,0,5.408,5.535,5.473,5.473,0,0,0,5.408-5.535V0h5.052V14.372c0,5.972-3.344,10.05-10.436,10.05S0,20.319,0,14.42Z" transform="translate(66.321 0)" fill="#f6f7f8"/><path d="M15.949,14.164h-11V24.422H0V0H4.947V9.591h11V0h4.994V24.422H15.949Z" transform="translate(157.075 0)" fill="#f6f7f8"/><path d="M0,12.223A11.863,11.863,0,0,1,3.589,3.437,12.124,12.124,0,0,1,12.515.009,11.039,11.039,0,0,1,22.689,5.782L18.325,7.9A6.543,6.543,0,0,0,12.539,4.47a7.749,7.749,0,0,0,0,15.482,6.446,6.446,0,0,0,5.786-3.435l4.363,2.1a11.086,11.086,0,0,1-10.149,5.8A12.124,12.124,0,0,1,3.606,21,11.863,11.863,0,0,1,0,12.223Z" transform="translate(0 0)" fill="#f6f7f8"/></g><g transform="translate(96.078 8.015)"><path d="M0,0H5.759l6.58,18.247L18.884,0h5.777L15.5,23.812H9.163Z" transform="translate(0 0.393)" fill="#f6f7f8"/><path d="M0,0H5.061V23.812H0Z" transform="translate(33.946 0.393)" fill="#f6f7f8"/><path d="M0,12.22A12,12,0,0,1,12.463.009,10.961,10.961,0,0,1,22.568,5.8L18.223,7.928A6.475,6.475,0,0,0,12.463,4.44a7.8,7.8,0,0,0,0,15.56,6.423,6.423,0,0,0,5.759-3.489L22.568,18.6a11.014,11.014,0,0,1-10.105,5.826A12,12,0,0,1,0,12.22Z" transform="translate(49.669 0.053)" fill="#f6f7f8"/><path d="M6.981,4.448H0V0H18.971V4.448H12.077V23.812h-5.1Z" transform="translate(80.859 0.393)" fill="#f6f7f8"/><path d="M12.221,24.431h-.058A12.213,12.213,0,0,1,0,12.221,11.917,11.917,0,0,1,11.917,0c.158,0,.319,0,.477.01A12.21,12.21,0,0,1,20.817,20.9,12.146,12.146,0,0,1,12.221,24.431Zm.173-19.938c-4.233,0-7.189,3.2-7.189,7.779s2.956,7.781,7.189,7.781h.022A7.206,7.206,0,0,0,19.6,12.273C19.6,7.692,16.638,4.493,12.394,4.493Z" transform="translate(108.187 0)" fill="#f6f7f8"/><path d="M5.061,23.835h0L0,23.834V.023H11.1c.193-.015.39-.023.584-.023a7.4,7.4,0,0,1,7.391,7.663,6.821,6.821,0,0,1-5.235,6.979l5.374,9.19-5.793,0L8.762,15.252h-3.7v8.583Zm.071-19.47v6.542h5.235c.08.006.161.009.24.009a3.28,3.28,0,0,0,0-6.56c-.079,0-.16,0-.24.009Z" transform="translate(143.654 0.371)" fill="#f6f7f8"/><path d="M9.145,13.956,0,0H5.794l5.9,9.525L17.523,0h5.725L14.172,13.956v9.8H9.11Z" transform="translate(170.479 0.446)" fill="#f6f7f8"/></g><g transform="translate(-0.003 0)"><path d="M40.476,71.841.222,2.417A1.6,1.6,0,0,1,1.615,0h14.4L50.021,58.594a1.64,1.64,0,0,1,0,1.6L43.259,71.841a1.614,1.614,0,0,1-2.783,0ZM34.728,2.554a1.694,1.694,0,0,1,0-1.7A1.715,1.715,0,0,1,36.2,0H50.458L67.2,28.93a1.74,1.74,0,0,1,0,1.7L59.091,44.5ZM67.722,0h14.06a1.836,1.836,0,0,1,1.575.916,1.814,1.814,0,0,1,0,1.816l-7.04,12.119Z" transform="translate(0 0)" fill="#f4f4f5"/><g transform="translate(16.013 0)" opacity="0.71"><g transform="translate(0)"><path d="M12.947,22.277,0,0,25.854,14.792l6.9,22.079ZM38.763,7.426,34.467,0H51.709l2.207,12.653Z" transform="translate(0)" fill="#f4f4f5"/></g></g><g transform="translate(41.867 0)" opacity="0.54"><g transform="translate(0)"><path d="M6.9,36.871,0,14.792,7.081,27.05,17.223,44.5ZM30.529,13.505l-2.447-.852L25.854,0l8.653,14.851Z" transform="translate(0)" fill="#f4f4f5"/></g></g></g></g></svg>