<?xml version="1.0" encoding="UTF-8"?>
<svg width="127px" height="127px" viewBox="0 0 127 127" version="1.1" xmlns="http://www.w3.org/2000/svg" xmlns:xlink="http://www.w3.org/1999/xlink">
    <!-- Generator: Sketch 63.1 (92452) - https://sketch.com -->
    <title>Favicon/circular</title>
    <desc>Created with Sketch.</desc>
    <g id="Website" stroke="none" stroke-width="1" fill="none" fill-rule="evenodd">
        <g id="Frontpage" transform="translate(-639.000000, -3409.000000)">
            <g id="Footer-V3" transform="translate(-1.000000, 3409.000000)">
                <g id="Favicon/circular" transform="translate(640.000000, 0.000000)">
                    <circle id="Oval" fill="#FFFFFF" cx="63.5" cy="63.5" r="63.5"></circle>
                    <g id="Logo" transform="translate(15.000000, 25.000000)" fill-rule="nonzero">
                        <g id="LOGO---BLACK" transform="translate(0.000000, 8.143333)">
                            <path d="M18.7804835,-8.23447003e-07 L2.11277354,-8.23447003e-07 C1.44632887,-8.23447003e-07 0.830144325,0.354239094 0.496211161,0.930986464 C0.162277997,1.50773383 0.161297444,2.21879694 0.493638677,2.7964631 L47.006743,83.3582952 C47.3395252,83.9352232 47.954916,84.2906832 48.6209415,84.2906832 C49.286967,84.2906832 49.9023577,83.9352232 50.2351399,83.3582952 L58.0370992,69.8498728 C58.3678951,69.2718706 58.3678951,68.5619208 58.0370992,67.9839186 L18.7804835,-8.23447003e-07 Z M58.5751654,-3.06455451e-15 L42.080229,-3.06455451e-15 C41.3810324,0.00632052231 40.7373193,0.381954384 40.3878422,0.987579384 C40.0383651,1.59320438 40.0352468,2.33849468 40.3796438,2.9470229 L68.5170483,51.691374 L77.8961832,35.443257 C78.2489034,34.8323276 78.2489034,34.0796316 77.8961832,33.4687023 L58.5751654,-3.06455451e-15 Z M88.4180916,17.230458 L78.4712723,-1.28819767e-15 L94.7243257,-1.28819767e-15 C95.4758026,0.000887832101 96.1698332,0.402250449 96.5454073,1.05314392 C96.9209815,1.70403739 96.9211511,2.50576701 96.5458524,3.15681934 L88.4180916,17.230458 Z" id="Shape" fill="#1E1E1E"></path>
                            <path d="M33.7031807,25.8469211 L18.7804835,0 L48.6234097,17.230458 L56.6080153,42.8478372 L33.7031807,25.8469211 Z M78.4712723,0 L58.5751654,0 L63.5485751,8.6164631 L81.0431298,14.6758779 L78.4712723,0 Z" id="Shape" fill="#000000" opacity="0.2"></path>
                            <path d="M56.7980662,31.3855471 L68.5219847,51.691374 L56.6080153,42.8478372 L48.6234097,17.230458 L48.6234097,17.230458 L56.7980662,31.3855471 Z M78.4712723,0 L81.0431298,14.6734097 L83.8815522,15.660687 L88.4180916,17.2329262 L78.4712723,0 Z" id="Shape" fill="#000000" opacity="0.45"></path>
                        </g>
                    </g>
                </g>
            </g>
        </g>
    </g>
</svg>