<svg xmlns="http://www.w3.org/2000/svg" width="196.428" height="192.59" viewBox="0 0 196.428 192.59"><g transform="translate(-113 -97)"><path d="M5.33,9.512A4.683,4.683,0,0,0,8.546,7.7,4.589,4.589,0,0,0,9.5,4.155,4.583,4.583,0,0,0,7.689,1,4.6,4.6,0,0,0,4.165.044,4.6,4.6,0,0,0,1,1.859,4.6,4.6,0,0,0,.044,5.383,4.615,4.615,0,0,0,1.853,8.54,4.512,4.512,0,0,0,5.33,9.512Z" transform="translate(216.218 279.733)" fill="#31aeb4"/><path d="M4.443,7.926a3.757,3.757,0,0,1-2.9-.813A3.848,3.848,0,0,1,.036,4.486a3.829,3.829,0,0,1,.8-2.935A3.829,3.829,0,0,1,3.471.036a3.829,3.829,0,0,1,2.935.8A3.816,3.816,0,0,1,7.919,3.46a3.827,3.827,0,0,1-.8,2.952A3.893,3.893,0,0,1,4.443,7.926Z" transform="translate(217.014 280.529)" fill="#31aeb4"/><path d="M9390.247-1173.794h0l-5.748-13.5,7.651-3.256a5.2,5.2,0,0,1,2.027-.446,3.614,3.614,0,0,1,3.386,2.207,3.583,3.583,0,0,1,.206,2.36,3.126,3.126,0,0,1-1.194,1.719,2.95,2.95,0,0,1,.727-.09,3.609,3.609,0,0,1,3.249,2.3,3.931,3.931,0,0,1,.1,2.989,4.416,4.416,0,0,1-2.512,2.365l-7.894,3.359Zm5.327-8.517a1.645,1.645,0,0,0-.644.139l-3.5,1.491,1.069,2.51,3.5-1.491a1.312,1.312,0,0,0,.812-1.8A1.325,1.325,0,0,0,9395.574-1182.311Zm-2.414-5.133a1.433,1.433,0,0,0-.565.121l-3.382,1.439.991,2.329,3.381-1.439a1.247,1.247,0,0,0,.7-1.682A1.2,1.2,0,0,0,9393.16-1187.444Z" transform="translate(-9148.079 1460.796)" fill="#31aeb4" stroke="rgba(0,0,0,0)" stroke-miterlimit="10" stroke-width="1"/><path d="M14.054,16.171c3.889-2.654,4.164-5.958,2.106-8.975L11.248,0,8.068,2.17l4.849,7.105a2.707,2.707,0,0,1-.748,4.133,2.713,2.713,0,0,1-4.14-.8L3.18,5.506,0,7.676,4.923,14.89C6.957,17.871,10.165,18.824,14.054,16.171Z" transform="translate(250.927 259.677)" fill="#31aeb4"/><path d="M12.779,10.727,2.766,0,0,2.582,10.012,13.309Z" transform="translate(265.517 254.776)" fill="#31aeb4"/><path d="M17.476,4.815l-2.542-2.1-3.76,4.542L2.413,0,0,2.915l11.3,9.357Z" transform="translate(271.498 248.796)" fill="#31aeb4"/><path d="M9397.278-1174.073h0l-12.776-7.213,3.027-5.366c1.559-2.763,3.959-4.347,6.584-4.347a7.483,7.483,0,0,1,3.7,1.034,7.013,7.013,0,0,1,3.588,4.591,8.312,8.312,0,0,1-1.081,5.917l-3.039,5.384Zm-3.548-13.139a3.807,3.807,0,0,0-3.316,2.164l-1.18,2.088,7.032,3.969,1.168-2.07a4,4,0,0,0,.423-3.207,4.109,4.109,0,0,0-1.947-2.327A4.43,4.43,0,0,0,9393.73-1187.212Z" transform="translate(-9104.899 1423.203)" fill="#31aeb4" stroke="rgba(0,0,0,0)" stroke-miterlimit="10" stroke-width="1"/><path d="M15.063,5.2,1.34,0,0,3.539l13.723,5.2Z" transform="translate(288.142 223.181)" fill="#31aeb4"/><path d="M15.139,12.673l-8.675-1.83L16.42,6.6l.754-3.573L2.815,0,2.03,3.724,10.3,5.468.8,9.536,0,13.346l14.358,3.029Z" transform="translate(290.893 206.024)" fill="#31aeb4"/><path d="M15.18,6.558A8.478,8.478,0,0,0,12.371.045L6.629,0,6.573,7.084l3.146.025.027-3.366,1.232.01a4.569,4.569,0,0,1,.858,2.779A4.054,4.054,0,0,1,7.558,10.59,4.054,4.054,0,0,1,3.344,6.464,3.646,3.646,0,0,1,5.107,3.376L3.46.195A6.9,6.9,0,0,0,0,6.438c-.035,4.378,2.863,7.965,7.527,8S15.145,10.936,15.18,6.558Z" transform="translate(294.248 189.112)" fill="#31aeb4"/><path d="M15.986,5.062,10.358,6.584,8.578,0l-3.1.838,1.78,6.584L4.9,8.059,3.079,1.327,0,2.16,2.808,12.545l14.165-3.83Z" transform="translate(290.656 165.386)" fill="#31aeb4"/><path d="M9386.526-1175.431h0l-2.027-4.3L9395.41-1191l1.753,3.721-1.691,1.623,2.6,5.512,2.326-.269,1.756,3.721-15.627,1.26Zm6.484-7.969h0l-4.512,4.413,6.265-.691-1.753-3.721Z" transform="translate(-9098.114 1337.357)" fill="#31aeb4" stroke="rgba(0,0,0,0)" stroke-miterlimit="10" stroke-width="1"/><path d="M19.476,10.215l-7.858,6.022,5.609-8.956L16.21,5.954,6.091,9.026,13.949,3l-2.3-3L0,8.926,3.2,13.1l8.474-2.614-4.74,7.486,3.2,4.173,11.647-8.926Z" transform="translate(273.257 128.996)" fill="#31aeb4"/><path d="M10,0,0,10.739l2.769,2.579,10-10.739Z" transform="translate(268.147 121.569)" fill="#31aeb4"/><path d="M3.745,0,1.825,2.684,6.619,6.115,0,15.364l3.077,2.2,8.54-11.933Z" transform="translate(261.789 111.753)" fill="#31aeb4"/><path d="M6.931,0,0,12.934l3.335,1.787L10.266,1.787Z" transform="translate(250.581 106.821)" fill="#31aeb4"/><path d="M5.1,0,3.994,2.991l6.539,2.426L9.615,7.892,3.22,5.52,2.1,8.531,8.5,10.9l-.849,2.29L1.109,10.767,0,13.758,10.086,17.5l5.1-13.758Z" transform="translate(236.658 100.249)" fill="#31aeb4"/><path d="M8.054.175C4.182-.541,1.684.987,1.148,3.886.543,7.153,3.7,8.454,5.99,9.392c1.545.6,2.384,1.023,2.243,1.78-.116.627-.684,1.037-1.917.809A6.819,6.819,0,0,1,2.526,9.735L0,12.019a8.951,8.951,0,0,0,5.49,3.1c3.7.685,6.143-1.033,6.591-3.456C12.714,8.242,9.495,7.02,7.2,6.1,5.727,5.495,4.857,5,5.009,4.176c.128-.692,1.007-1.089,2.283-.853A6.63,6.63,0,0,1,11.548,6.08l2.485-2.426A8.976,8.976,0,0,0,8.054.175Z" transform="translate(222.832 97)" fill="#31aeb4"/><path d="M4.447.016a4.683,4.683,0,0,0-3.3,1.652A4.589,4.589,0,0,0,.018,5.164,4.583,4.583,0,0,0,1.676,8.4,4.6,4.6,0,0,0,5.149,9.53,4.6,4.6,0,0,0,8.4,7.87,4.6,4.6,0,0,0,9.526,4.4,4.615,4.615,0,0,0,7.873,1.156,4.512,4.512,0,0,0,4.447.016Z" transform="translate(201.009 97.561)" fill="#31aeb4"/><path d="M3.7.013A3.757,3.757,0,0,1,6.56.967a3.848,3.848,0,0,1,1.378,2.7A3.829,3.829,0,0,1,7,6.557,3.829,3.829,0,0,1,4.291,7.941,3.829,3.829,0,0,1,1.4,7,3.816,3.816,0,0,1,.014,4.3,3.827,3.827,0,0,1,.958,1.4,3.893,3.893,0,0,1,3.7.013Z" transform="translate(201.805 98.357)" fill="#31aeb4"/><path d="M9391.029-1173.93a3.609,3.609,0,0,1-3.449-2.318,3.592,3.592,0,0,1-.13-2.366,3.135,3.135,0,0,1,1.25-1.68,2.95,2.95,0,0,1-.631.068,3.619,3.619,0,0,1-3.269-2.4,3.93,3.93,0,0,1-.007-2.991,4.407,4.407,0,0,1,2.588-2.28l8-3.1,5.306,13.681-7.755,3.006A5.273,5.273,0,0,1,9391.029-1173.93Zm4.077-7.312-3.426,1.328a1.309,1.309,0,0,0-.743.682,1.268,1.268,0,0,0,0,.977,1.192,1.192,0,0,0,1.135.8,1.454,1.454,0,0,0,.528-.1l3.426-1.328-.915-2.359Zm-2.116-5.457-3.549,1.375a1.313,1.313,0,0,0-.868,1.776,1.335,1.335,0,0,0,1.253.887,1.644,1.644,0,0,0,.6-.12l3.548-1.375-.985-2.543Z" transform="translate(-9212.201 1290.258)" fill="#31aeb4" stroke="rgba(0,0,0,0)" stroke-miterlimit="10" stroke-width="1"/><path d="M3.546,1.416c-3.972,2.527-4.354,5.82-2.394,8.9l4.676,7.351L9.076,15.6,4.459,8.344a2.707,2.707,0,0,1,.882-4.107,2.713,2.713,0,0,1,4.112.931l4.617,7.258,3.249-2.066L12.63,2.99C10.694-.054,7.518-1.111,3.546,1.416Z" transform="translate(156.491 108.241)" fill="#31aeb4"/><path d="M0,2.491,9.661,13.536l2.848-2.491L2.848,0Z" transform="translate(146.387 117.075)" fill="#31aeb4"/><path d="M0,7.254,2.473,9.439l3.9-4.418L14.9,12.552l2.506-2.836L6.41,0Z" transform="translate(135.329 123.857)" fill="#31aeb4"/><path d="M9391.93-1173.977a7.41,7.41,0,0,1-3.875-1.156,7.017,7.017,0,0,1-3.436-4.707,8.3,8.3,0,0,1,1.274-5.878L9389.1-1191l12.538,7.626-3.2,5.262C9396.844-1175.485,9394.47-1173.977,9391.93-1173.977Zm-1.971-12.077h0l-1.234,2.031a3.99,3.99,0,0,0-.528,3.19,4.108,4.108,0,0,0,1.871,2.39,4.426,4.426,0,0,0,2.272.689,3.788,3.788,0,0,0,3.27-2.055l1.246-2.05-6.9-4.2Z" transform="translate(-9257.32 1326.474)" fill="#31aeb4" stroke="rgba(0,0,0,0)" stroke-miterlimit="10" stroke-width="1"/><path d="M0,3.493,13.546,9.134,15,5.641,1.455,0Z" transform="translate(120.295 152.356)" fill="#31aeb4"/><path d="M2.35,3.675l8.61,2.114L.871,9.7,0,13.247l14.251,3.5.907-3.7-8.2-2.014L16.574,7.28,17.5,3.5,3.252,0Z" transform="translate(114.799 161.764)" fill="#31aeb4"/><path d="M.008,7.641a8.478,8.478,0,0,0,2.6,6.6l5.737.228L8.627,7.39,5.483,7.264l-.134,3.363-1.231-.049a4.569,4.569,0,0,1-.769-2.8,4.054,4.054,0,0,1,4.405-3.92,4.054,4.054,0,0,1,4.08,4.258,3.646,3.646,0,0,1-1.86,3.03l1.545,3.232a6.9,6.9,0,0,0,3.657-6.129C15.35,3.87,12.568.193,7.908.007S.182,3.267.008,7.641Z" transform="translate(113 180.705)" fill="#31aeb4"/><path d="M.868,7.048,6.542,5.711l1.564,6.638,3.126-.737L9.669,4.975l2.377-.56,1.6,6.788,3.105-.731L14.283,0,0,3.365Z" transform="translate(114.11 206.622)" fill="#31aeb4"/><path d="M9390.773-1175.729h0l-1.63-3.776,1.741-1.567-2.416-5.595-2.336.2-1.633-3.778,15.661-.75,1.885,4.363-11.271,10.907Zm7.3-11.781h0l-6.284.486,1.631,3.778,4.653-4.264Z" transform="translate(-9267.248 1413.754)" fill="#31aeb4" stroke="rgba(0,0,0,0)" stroke-miterlimit="10" stroke-width="1"/><path d="M2.2,11.621l8.049-5.765-5.9,8.769.974,1.359,10.213-2.742L7.494,19.008l2.2,3.076,11.93-8.544L18.565,9.265,10.011,11.6l4.98-7.328L11.93,0,0,8.544Z" transform="translate(125.654 233.706)" fill="#31aeb4"/><path d="M2.685,13.078,13.026,2.667,10.341,0,0,10.411Z" transform="translate(139.182 250.355)" fill="#31aeb4"/><path d="M7.685,17.536l2.006-2.62L5.011,11.331,11.926,2.3l-3-2.3L0,11.65Z" transform="translate(146.47 256.115)" fill="#31aeb4"/><path d="M3.275,14.6l7.348-12.7L7.348,0,0,12.7Z" transform="translate(158.726 264.236)" fill="#31aeb4"/><path d="M9.959,17.653,11.165,14.7,4.709,12.062l1-2.444,6.313,2.58,1.215-2.973L6.923,6.645l.924-2.261L14.3,7.022l1.207-2.953L5.55,0,0,13.584Z" transform="translate(167.57 268.262)" fill="#31aeb4"/><path d="M5.862,15.056c3.847.843,6.393-.6,7.024-3.483.711-3.245-2.4-4.648-4.66-5.661C6.7,5.263,5.877,4.812,6.042,4.06c.137-.623.718-1.014,1.943-.745A6.819,6.819,0,0,1,11.7,5.683l2.6-2.2A8.951,8.951,0,0,0,8.913.207C5.238-.6,2.74,1.039,2.213,3.446c-.744,3.4,2.434,4.722,4.694,5.713,1.455.657,2.309,1.182,2.13,2-.151.688-1.042,1.055-2.31.778A6.63,6.63,0,0,1,2.563,9.041L0,11.384A8.976,8.976,0,0,0,5.862,15.056Z" transform="translate(182.459 274.296)" fill="#31aeb4"/></g></svg>