<svg xmlns="http://www.w3.org/2000/svg" xmlns:xlink="http://www.w3.org/1999/xlink" width="400" height="512" viewBox="0 0 400 512">
  <defs>
    <clipPath id="clip-path">
      <rect id="Rectangle" width="400" height="512" transform="translate(142 232)" fill="#d8d8d8" stroke="#979797" stroke-miterlimit="10" stroke-width="1" opacity="0"/>
    </clipPath>
  </defs>
  <g id="g-brandpatter--red" transform="translate(-346 -428)" opacity="0.246">
    <g id="Pattern_Square" data-name="Pattern Square" transform="translate(204 196)" clip-path="url(#clip-path)">
      <path id="Path_2" data-name="Path 2" d="M684,838H672.107l-25.833-44.766a1.279,1.279,0,0,1,0-1.255l5.585-9.672a1.263,1.263,0,0,1,2.2,0l31.05,53.786A1.247,1.247,0,0,1,684.054,838Zm-165.5,0H506.61l-25.826-44.766a1.243,1.243,0,0,1,0-1.255l5.577-9.672a1.262,1.262,0,0,1,2.2,0l31.051,53.786A1.247,1.247,0,0,1,518.556,838Zm-82.744,0H423.865l-25.833-44.766a1.279,1.279,0,0,1,0-1.255l5.585-9.672a1.262,1.262,0,0,1,2.2,0l31.05,53.786A1.247,1.247,0,0,1,435.812,838Zm-165.5,0H258.368l-25.826-44.766a1.243,1.243,0,0,1,0-1.255l5.577-9.672a1.263,1.263,0,0,1,2.2,0l31.05,53.786A1.247,1.247,0,0,1,270.316,838Zm-165.5,0H92.871L67.039,793.233a1.239,1.239,0,0,1,0-1.255l5.585-9.672a1.255,1.255,0,0,1,2.2,0l31.051,53.786A1.248,1.248,0,0,1,104.818,838Zm496.49,0H589.361L563.53,793.233a1.274,1.274,0,0,1,0-1.255l5.585-9.672a1.262,1.262,0,0,1,2.2,0l31.051,53.786A1.256,1.256,0,0,1,601.295,838Zm-248.242,0H341.12l-25.832-44.766a1.279,1.279,0,0,1,0-1.255l5.585-9.672a1.262,1.262,0,0,1,2.2,0l31.051,53.786A1.256,1.256,0,0,1,353.053,838Zm-165.5,0H175.623l-25.833-44.766a1.279,1.279,0,0,1,0-1.255l5.585-9.672a1.262,1.262,0,0,1,2.2,0l31.05,53.786A1.255,1.255,0,0,1,187.557,838Zm387.847-.03H563.47L550.6,815.674a1.279,1.279,0,0,1,0-1.255l6.671-11.543,19.176,33.215a1.248,1.248,0,0,1-1.076,1.878Zm-37.3-.623a1.246,1.246,0,0,1,0-1.255l6.215-10.774,7.339,12.652H539.139A1.247,1.247,0,0,1,538.06,837.346Zm-210.942.623H315.23l-12.873-22.295a1.279,1.279,0,0,1,0-1.255l6.671-11.543L328.2,836.091a1.248,1.248,0,0,1-1.076,1.878Zm-37.3-.623a1.248,1.248,0,0,1,0-1.255l6.215-10.774,7.339,12.652H290.9A1.248,1.248,0,0,1,289.818,837.346Zm-165.467,0a1.248,1.248,0,0,1,0-1.255l6.224-10.774,7.294,12.652H125.431A1.246,1.246,0,0,1,124.351,837.346Zm-82.775,0a1.248,1.248,0,0,1,0-1.255L47.8,825.317l7.34,12.652H42.657A1.248,1.248,0,0,1,41.576,837.346Zm604.646.623-12.872-22.295a1.239,1.239,0,0,1,0-1.255l6.664-11.543L659.2,836.091a1.255,1.255,0,0,1-1.086,1.878Zm-24.3,0a1.255,1.255,0,0,1-1.086-1.878l6.223-10.774,7.3,12.652Zm-141.2,0-12.873-22.295a1.243,1.243,0,0,1,0-1.255l6.671-11.543L493.7,836.091a1.254,1.254,0,0,1-1.085,1.878Zm-24.314,0a1.255,1.255,0,0,1-1.086-1.878l6.224-10.774,7.3,12.652Zm-58.409,0-12.873-22.295a1.243,1.243,0,0,1,0-1.255l6.664-11.543,19.162,33.215a1.255,1.255,0,0,1-1.065,1.878Zm-24.321,0a1.255,1.255,0,0,1-1.086-1.878l6.224-10.774,7.3,12.652Zm-141.2,0-12.873-22.295a1.243,1.243,0,0,1,0-1.255l6.672-11.543,19.176,33.215a1.255,1.255,0,0,1-1.086,1.878Zm-24.335,0a1.255,1.255,0,0,1-1.086-1.878l6.223-10.774,7.339,12.652Zm-46.521,0H149.739l-12.872-22.295a1.239,1.239,0,0,1,0-1.255l6.664-11.543,19.176,33.215a1.248,1.248,0,0,1-1.077,1.878Zm-94.612,0L54.145,815.674a1.279,1.279,0,0,1,0-1.255l6.671-11.543,19.147,33.215a1.247,1.247,0,0,1-1.057,1.878Zm460.706-15.558-31.05-53.778a1.255,1.255,0,0,1,1.115-1.908h11.889l25.833,44.766a1.277,1.277,0,0,1,0,1.255l-5.584,9.665a1.255,1.255,0,0,1-2.2,0Zm-82.744,0-31.051-53.778a1.248,1.248,0,0,1,1.116-1.908h11.889l25.825,44.766a1.237,1.237,0,0,1,0,1.255l-5.577,9.665a1.255,1.255,0,0,1-2.2,0Zm-82.752,0-31.05-53.778a1.255,1.255,0,0,1,1.115-1.908h11.889l25.833,44.766a1.242,1.242,0,0,1,0,1.255l-5.585,9.665a1.255,1.255,0,0,1-2.2,0Zm-82.715,0-31.08-53.778a1.254,1.254,0,0,1,1.145-1.908h11.889L287.3,811.491a1.277,1.277,0,0,1,0,1.255l-5.585,9.665a1.255,1.255,0,0,1-2.2,0Zm-82.774,0-31.051-53.778a1.248,1.248,0,0,1,1.086-1.908h11.919l25.825,44.766a1.238,1.238,0,0,1,0,1.255l-5.577,9.665a1.255,1.255,0,0,1-2.2,0Zm-82.752,0-31.05-53.778a1.255,1.255,0,0,1,1.071-1.908H95.9l25.833,44.766a1.277,1.277,0,0,1,0,1.255l-5.541,9.665a1.255,1.255,0,0,1-2.2,0Zm-82.744,0L.19,768.633a1.248,1.248,0,0,1,1.116-1.908H13.194l25.833,44.766a1.277,1.277,0,0,1,0,1.255l-5.584,9.665a1.255,1.255,0,0,1-2.2,0Zm579.249,0-31.064-53.778a1.247,1.247,0,0,1,1.094-1.908h11.888l25.833,44.766a1.237,1.237,0,0,1,0,1.255l-5.584,9.665a1.248,1.248,0,0,1-2.165,0Zm4.894-36.4-10.031-17.375a1.248,1.248,0,0,1,1.072-1.864h11.889l12.872,22.295a1.277,1.277,0,0,1,0,1.255l-6.656,11.529Zm-92.79-17.375a1.246,1.246,0,0,1,1.078-1.878h11.889l12.872,22.309a1.237,1.237,0,0,1,0,1.255l-6.664,11.529Zm-82.752,0a1.254,1.254,0,0,1,1.122-1.864h11.852l12.873,22.295a1.242,1.242,0,0,1,0,1.255l-6.671,11.529Zm-82.745,0a1.247,1.247,0,0,1,1.086-1.878h11.889l12.872,22.309a1.277,1.277,0,0,1,0,1.255l-6.671,11.529Zm-82.723,0a1.255,1.255,0,0,1,1.057-1.864H287.32l12.873,22.295a1.242,1.242,0,0,1,0,1.255l-6.635,11.529Zm-82.774,0a1.254,1.254,0,0,1,1.086-1.864h11.889l12.872,22.295a1.242,1.242,0,0,1,0,1.255l-6.671,11.529Zm-82.745,0a1.248,1.248,0,0,1,1.086-1.864H121.83L134.7,789.064a1.272,1.272,0,0,1,0,1.255l-6.671,11.529Zm-82.751,0a1.254,1.254,0,0,1,1.085-1.878H39.078L51.951,789.05a1.242,1.242,0,0,1,0,1.255l-6.664,11.543Zm604.062-1.878h12.469a1.247,1.247,0,0,1,1.086,1.878L637.5,779.406Zm-82.745,0H559.9a1.247,1.247,0,0,1,1.086,1.878l-6.224,10.773Zm-82.744,0h12.439a1.255,1.255,0,0,1,1.086,1.878l-6.224,10.773Zm-82.752,0h12.454a1.247,1.247,0,0,1,1.085,1.878l-6.2,10.773Zm-82.745,0h12.44a1.254,1.254,0,0,1,1.085,1.878l-6.223,10.773Zm-82.744,0h12.476A1.255,1.255,0,0,1,230,768.633l-6.224,10.773Zm-82.752,0h12.469a1.247,1.247,0,0,1,1.086,1.878l-6.216,10.773Zm-82.745,0H63.4a1.255,1.255,0,0,1,1.086,1.878L58.24,779.406ZM154.092,752.76H142.2l-25.825-44.766a1.243,1.243,0,0,1,0-1.255l5.585-9.665a1.247,1.247,0,0,1,2.2,0l31.05,53.779a1.248,1.248,0,0,1-1.057,1.91Zm413.745,0H555.948l-25.825-44.766a1.239,1.239,0,0,1,0-1.255l5.577-9.665a1.255,1.255,0,0,1,2.2,0l31.051,53.779a1.248,1.248,0,0,1-1.058,1.909Zm-248.242,0H307.706l-25.825-44.766a1.239,1.239,0,0,1,0-1.255l5.577-9.665a1.255,1.255,0,0,1,2.2,0l31.051,53.779a1.248,1.248,0,0,1-1.058,1.909Zm413.746,0H721.453L695.62,707.994a1.279,1.279,0,0,1,0-1.255l5.577-9.665a1.255,1.255,0,0,1,2.2,0l31.051,53.779a1.248,1.248,0,0,1-1.059,1.909Zm-82.752,0H638.7l-25.833-44.766a1.279,1.279,0,0,1,0-1.255l5.585-9.665a1.255,1.255,0,0,1,2.2,0l31.05,53.779a1.255,1.255,0,0,1-1.071,1.909Zm-165.5,0H473.2l-25.833-44.766a1.279,1.279,0,0,1,0-1.255l5.584-9.665a1.255,1.255,0,0,1,2.2,0l31.05,53.779a1.255,1.255,0,0,1-1.071,1.909Zm-248.242,0H224.962L199.13,707.994a1.279,1.279,0,0,1,0-1.255l5.585-9.665a1.255,1.255,0,0,1,2.2,0l31.05,53.779a1.255,1.255,0,0,1-1.071,1.909Zm165.511,0H390.473l-25.832-44.766a1.239,1.239,0,0,1,0-1.255l5.6-9.665a1.248,1.248,0,0,1,2.165,0l31.057,53.779a1.255,1.255,0,0,1-1.071,1.908Zm222.336,0H612.809l-12.872-22.295a1.26,1.26,0,0,1,0-1.248l6.671-11.551,19.176,33.186a1.247,1.247,0,0,1-1.059,1.908Zm-248.242,0H364.568L351.7,730.465a1.261,1.261,0,0,1,0-1.248l6.671-11.551,19.176,33.186a1.247,1.247,0,0,1-1.059,1.908Zm82.752,0H447.32l-12.873-22.295a1.23,1.23,0,0,1,0-1.248l6.664-11.551,19.176,33.186a1.248,1.248,0,0,1-1.058,1.908Zm248.241,0H695.561l-12.873-22.295a1.226,1.226,0,0,1,0-1.248l6.664-11.551,19.184,33.186a1.255,1.255,0,0,1-1.071,1.908Zm-413.738,0H281.823l-12.873-22.295a1.226,1.226,0,0,1,0-1.248l6.664-11.551L294.8,750.852a1.255,1.255,0,0,1-1.071,1.908Zm236.382,0-12.872-22.295a1.226,1.226,0,0,1,0-1.248l6.671-11.551,19.147,33.186a1.255,1.255,0,0,1-1.057,1.908Zm57.3-.652a1.248,1.248,0,0,1,0-1.256l6.216-10.774,7.339,12.652H588.471A1.246,1.246,0,0,1,587.391,752.108Zm-165.46,0a1.246,1.246,0,0,1,0-1.256l6.223-10.774,7.3,12.652h-12.45A1.247,1.247,0,0,1,421.931,752.108Zm-82.774,0a1.248,1.248,0,0,1,0-1.256l6.216-10.774,7.339,12.652H340.237A1.247,1.247,0,0,1,339.157,752.108Zm-128.2.623H199.078L186.2,730.436a1.263,1.263,0,0,1,0-1.247l6.672-11.522,19.175,33.186a1.247,1.247,0,0,1-1.075,1.878Zm-37.3-.623a1.248,1.248,0,0,1,0-1.256l6.216-10.774,7.339,12.652H174.74A1.246,1.246,0,0,1,173.66,752.108Zm-45.445.623H116.326l-12.872-22.295a1.263,1.263,0,0,1,0-1.247l6.671-11.522L129.3,750.852a1.247,1.247,0,0,1-1.076,1.878Zm543.01,0a1.254,1.254,0,0,1-1.085-1.878l6.223-10.774L683.7,752.73Zm-165.5,0a1.255,1.255,0,0,1-1.086-1.878l6.224-10.774L518.2,752.73Zm-248.234,0a1.254,1.254,0,0,1-1.085-1.878l6.223-10.774,7.339,12.652Zm-165.5,0a1.248,1.248,0,0,1-1.079-1.878l6.216-10.774,7.339,12.652Zm567.808-15.551-31.05-53.785a1.255,1.255,0,0,1,1.115-1.908H641.76l25.833,44.766a1.237,1.237,0,0,1,0,1.255l-5.584,9.672a1.262,1.262,0,0,1-2.2,0Zm-82.744,0-31.051-53.785a1.255,1.255,0,0,1,1.072-1.908h11.889L584.8,726.252a1.277,1.277,0,0,1,0,1.255l-5.541,9.672a1.261,1.261,0,0,1-2.2,0Zm-82.745,0-31.05-53.785a1.247,1.247,0,0,1,1.115-1.908h11.889L502.1,726.252a1.242,1.242,0,0,1,0,1.255l-5.577,9.672a1.262,1.262,0,0,1-2.2,0Zm-82.751,0-31.051-53.785a1.255,1.255,0,0,1,1.116-1.908h11.888l25.833,44.766a1.277,1.277,0,0,1,0,1.255l-5.585,9.672a1.261,1.261,0,0,1-2.2,0Zm-82.745,0-31.05-53.785a1.247,1.247,0,0,1,1.115-1.908h11.889l25.833,44.766a1.277,1.277,0,0,1,0,1.255l-5.585,9.672a1.261,1.261,0,0,1-2.2,0Zm-165.5,0-31.051-53.785a1.255,1.255,0,0,1,1.086-1.908h11.919l25.832,44.766a1.272,1.272,0,0,1,0,1.255l-5.585,9.672a1.261,1.261,0,0,1-2.2,0Zm-82.745,0-31.05-53.785a1.247,1.247,0,0,1,1.115-1.908H62.533l25.825,44.766a1.242,1.242,0,0,1,0,1.255l-5.578,9.672a1.261,1.261,0,0,1-2.2,0Zm165.5,0-31.051-53.785a1.247,1.247,0,0,1,1.086-1.908H228l25.825,44.766a1.238,1.238,0,0,1,0,1.255l-5.585,9.672a1.254,1.254,0,0,1-2.165,0Zm408.6-53.785a1.247,1.247,0,0,1,1.086-1.878h11.888l12.873,22.295a1.277,1.277,0,0,1,0,1.255l-6.671,11.552Zm-82.752,0a1.255,1.255,0,0,1,1.086-1.878H584.9l12.872,22.295a1.237,1.237,0,0,1,0,1.255l-6.664,11.552Zm-82.745,0a1.255,1.255,0,0,1,1.086-1.878h11.889l12.873,22.295a1.242,1.242,0,0,1,0,1.255l-6.672,11.552Zm-82.707,0a1.247,1.247,0,0,1,1.085-1.878h11.889l12.873,22.295a1.277,1.277,0,0,1,0,1.255l-6.671,11.552Zm-82.789,0a1.255,1.255,0,0,1,1.086-1.878h11.889l12.872,22.295a1.238,1.238,0,0,1,0,1.255l-6.664,11.552Zm-82.744,0a1.247,1.247,0,0,1,1.085-1.878h11.889l12.873,22.295a1.277,1.277,0,0,1,0,1.255l-6.672,11.552Zm-82.745,0a1.247,1.247,0,0,1,1.086-1.878h11.889l12.872,22.295a1.277,1.277,0,0,1,0,1.255l-6.671,11.552Zm-82.752,0a1.255,1.255,0,0,1,1.086-1.878H88.417l12.872,22.295a1.238,1.238,0,0,1,0,1.255l-6.664,11.552Zm604.033-1.878,12.469.014a1.247,1.247,0,0,1,1.086,1.878l-6.216,10.774Zm-330.979,0,12.477.014a1.254,1.254,0,0,1,1.085,1.878l-6.223,10.774Zm-248.219,0,12.439.014a1.254,1.254,0,0,1,1.086,1.878l-6.223,10.774Zm496.483,0h12.476a1.247,1.247,0,0,1,1.086,1.878L604.1,694.167Zm-82.745,0h12.461a1.255,1.255,0,0,1,1.086,1.878l-6.209,10.773Zm-82.752,0h12.469a1.247,1.247,0,0,1,1.086,1.878L438.6,694.167Zm-165.5,0h12.476a1.248,1.248,0,0,1,1.079,1.878L273.1,694.167Zm-82.744,0H195.5a1.247,1.247,0,0,1,1.086,1.878l-6.223,10.773ZM534.461,667.55H522.572l-25.833-44.766a1.277,1.277,0,0,1,0-1.255l5.577-9.658a1.255,1.255,0,0,1,2.2,0l31.05,53.778a1.255,1.255,0,0,1-1.076,1.9Zm248.263,0H770.835L745,622.784a1.272,1.272,0,0,1,0-1.255l5.555-9.658a1.255,1.255,0,0,1,2.2,0l31.05,53.778a1.247,1.247,0,0,1-1.062,1.9Zm-165.5,0H605.338l-25.826-44.766a1.242,1.242,0,0,1,0-1.255l5.549-9.658a1.255,1.255,0,0,1,2.2,0l31.051,53.778a1.248,1.248,0,0,1-1.062,1.9Zm-248.242,0H357.1l-25.825-44.766a1.238,1.238,0,0,1,0-1.255l5.548-9.658a1.255,1.255,0,0,1,2.2,0l31.051,53.778a1.248,1.248,0,0,1-1.062,1.9Zm-165.489,0H191.586L165.76,622.784a1.237,1.237,0,0,1,0-1.255l5.6-9.658a1.247,1.247,0,0,1,2.165,0l31.051,53.778a1.248,1.248,0,0,1-1.062,1.9Zm496.483,0H688.091l-25.833-44.766a1.277,1.277,0,0,1,0-1.255l5.556-9.658a1.255,1.255,0,0,1,2.2,0l31.05,53.778a1.255,1.255,0,0,1-1.075,1.9Zm-248.242,0H439.849l-25.833-44.766a1.242,1.242,0,0,1,0-1.255l5.556-9.658a1.255,1.255,0,0,1,2.2,0l31.05,53.778a1.254,1.254,0,0,1-1.075,1.9Zm-165.5,0H274.352L248.52,622.784a1.277,1.277,0,0,1,0-1.255l5.556-9.658a1.255,1.255,0,0,1,2.2,0l31.05,53.778a1.255,1.255,0,0,1-1.076,1.9Zm350.519-.644a1.249,1.249,0,0,1,0-1.256l6.216-10.773,7.339,12.652H637.839A1.249,1.249,0,0,1,636.759,666.905Zm-165.468,0a1.249,1.249,0,0,1,0-1.256l6.223-10.773,7.3,12.652h-12.45A1.25,1.25,0,0,1,471.291,666.905Zm-45.474.623H413.928l-12.872-22.295a1.279,1.279,0,0,1,0-1.255l6.671-11.543L426.9,665.649a1.248,1.248,0,0,1-1.076,1.879Zm-37.307-.623a1.249,1.249,0,0,1,0-1.256l6.216-10.773,7.339,12.652H389.59A1.249,1.249,0,0,1,388.51,666.905Zm-165.489,0a1.249,1.249,0,0,1,0-1.256l6.216-10.773,7.339,12.652H224.1A1.249,1.249,0,0,1,223.021,666.905Zm-45.445.623H165.686l-12.872-22.295a1.279,1.279,0,0,1,0-1.255l6.671-11.543,19.176,33.214a1.248,1.248,0,0,1-1.076,1.879Zm567.347,0-12.873-22.295a1.243,1.243,0,0,1,0-1.255l6.664-11.543L757.9,665.649a1.255,1.255,0,0,1-1.085,1.879Zm-24.314,0a1.256,1.256,0,0,1-1.086-1.879l6.224-10.773,7.3,12.652Zm-58.416,0-12.873-22.295a1.279,1.279,0,0,1,0-1.255l6.671-11.543,19.155,33.214a1.248,1.248,0,0,1-1.065,1.879Zm-82.767,0-12.873-22.295a1.243,1.243,0,0,1,0-1.255l6.671-11.543L592.4,665.649a1.256,1.256,0,0,1-1.086,1.879Zm-24.336,0A1.256,1.256,0,0,1,554,665.649l6.224-10.773,7.339,12.652Zm-58.409,0-12.872-22.295a1.239,1.239,0,0,1,0-1.255l6.664-11.543,19.184,33.214a1.256,1.256,0,0,1-1.086,1.879Zm-165.468,0-12.872-22.295a1.239,1.239,0,0,1,0-1.255l6.671-11.543,19.147,33.214a1.255,1.255,0,0,1-1.057,1.879Zm-24.328,0a1.256,1.256,0,0,1-1.086-1.879l6.224-10.773,7.3,12.652Zm-46.557,0H248.439l-12.872-22.295a1.239,1.239,0,0,1,0-1.255l6.664-11.543,19.176,33.214a1.248,1.248,0,0,1-1.077,1.879Zm-118.969,0a1.247,1.247,0,0,1-1.078-1.879l6.215-10.773,7.339,12.652Zm485.064-15.551-31.05-53.785a1.255,1.255,0,0,1,1.115-1.908h11.889l25.833,44.766a1.277,1.277,0,0,1,0,1.255l-5.585,9.672a1.261,1.261,0,0,1-2.2,0Zm-165.5,0-31.051-53.785a1.255,1.255,0,0,1,1.116-1.908H442.88l25.832,44.766a1.272,1.272,0,0,1,0,1.255l-5.585,9.672a1.261,1.261,0,0,1-2.2,0Zm82.781,0-31.08-53.785a1.247,1.247,0,0,1,1.145-1.908h11.889l25.826,44.766a1.242,1.242,0,0,1,0,1.255l-5.578,9.672a1.262,1.262,0,0,1-2.2,0Zm-165.526,0-31.05-53.785a1.247,1.247,0,0,1,1.071-1.908h11.889l25.833,44.766a1.277,1.277,0,0,1,0,1.255l-5.541,9.672a1.262,1.262,0,0,1-2.2,0Zm-82.744,0-31.051-53.785a1.248,1.248,0,0,1,1.116-1.908H277.39l25.826,44.766a1.237,1.237,0,0,1,0,1.255l-5.577,9.672a1.262,1.262,0,0,1-2.2,0Zm-82.752,0-31.05-53.785a1.254,1.254,0,0,1,1.085-1.908h11.919l25.833,44.766a1.277,1.277,0,0,1,0,1.255l-5.585,9.672a1.262,1.262,0,0,1-2.2,0Zm-82.745,0-31.05-53.785A1.247,1.247,0,0,1,100,596.284h11.889l25.826,44.766a1.242,1.242,0,0,1,0,1.255l-5.577,9.672a1.263,1.263,0,0,1-2.2,0Zm579.236,0-31.058-53.785a1.255,1.255,0,0,1,1.065-1.908H691.07L716.9,641.05a1.237,1.237,0,0,1,0,1.255l-5.563,9.672a1.254,1.254,0,0,1-2.164,0Zm-5.137-53.785a1.248,1.248,0,0,1,1.122-1.879h11.852l12.873,22.3a1.277,1.277,0,0,1,0,1.255l-6.671,11.551Zm-165.468,0a1.256,1.256,0,0,1,1.086-1.879h11.889l12.872,22.3a1.237,1.237,0,0,1,0,1.255l-6.671,11.551Zm-82.774,0a1.248,1.248,0,0,1,1.086-1.879h11.889l12.872,22.3a1.277,1.277,0,0,1,0,1.255l-6.671,11.551Zm-82.752,0a1.256,1.256,0,0,1,1.086-1.879h11.889l12.872,22.3a1.238,1.238,0,0,1,0,1.255l-6.664,11.551Zm-82.744,0a1.248,1.248,0,0,1,1.085-1.879h11.889l12.873,22.3a1.277,1.277,0,0,1,0,1.255l-6.671,11.551Zm-82.708,0a1.248,1.248,0,0,1,1.086-1.879h11.889l12.872,22.3a1.277,1.277,0,0,1,0,1.255l-6.671,11.551Zm-82.789,0a1.256,1.256,0,0,1,1.086-1.879h11.889l12.872,22.3a1.238,1.238,0,0,1,0,1.255l-6.664,11.551Zm496.49,0a1.248,1.248,0,0,1,1.079-1.879h11.889l12.872,22.3a1.238,1.238,0,0,1,0,1.255l-6.664,11.551Zm107.572-1.879h12.469a1.248,1.248,0,0,1,1.086,1.879L736.2,608.965Zm-82.744,0h12.454a1.248,1.248,0,0,1,1.085,1.879l-6.2,10.773Zm-82.745,0h12.477a1.255,1.255,0,0,1,1.085,1.879l-6.223,10.773Zm-82.781,0h12.469a1.248,1.248,0,0,1,1.086,1.879l-6.216,10.773Zm-82.715,0h12.439a1.256,1.256,0,0,1,1.086,1.879l-6.223,10.773Zm-82.745,0h12.461a1.256,1.256,0,0,1,1.086,1.879l-6.208,10.773Zm-82.751,0H244.85a1.248,1.248,0,0,1,1.086,1.879l-6.216,10.773Zm-82.767,0h12.476a1.256,1.256,0,0,1,1.086,1.879l-6.223,10.773Zm517.112-14.061H654.838l-25.833-44.766a1.277,1.277,0,0,1,0-1.255l5.585-9.672a1.255,1.255,0,0,1,2.2,0l31.05,53.778a1.255,1.255,0,0,1-1.066,1.916Zm-165.5,0H489.342l-25.826-44.766a1.242,1.242,0,0,1,0-1.255l5.577-9.672a1.255,1.255,0,0,1,2.2,0l31.05,53.778a1.255,1.255,0,0,1-1.066,1.916Zm-248.242,0H241.1l-25.826-44.766a1.242,1.242,0,0,1,0-1.255l5.578-9.672a1.255,1.255,0,0,1,2.2,0l31.05,53.778a1.255,1.255,0,0,1-1.066,1.916Zm496.49,0H737.591l-25.826-44.766a1.242,1.242,0,0,1,0-1.255l5.57-9.672a1.255,1.255,0,0,1,2.2,0l31.05,53.778a1.254,1.254,0,0,1-1.066,1.916Zm-165.5,0H572.094l-25.833-44.766a1.238,1.238,0,0,1,0-1.255l5.585-9.672a1.255,1.255,0,0,1,2.2,0L585.1,580.337a1.262,1.262,0,0,1-1.079,1.916Zm-165.475,0H406.619l-25.833-44.766a1.277,1.277,0,0,1,0-1.255l5.563-9.672a1.255,1.255,0,0,1,2.2,0l31.05,53.778a1.255,1.255,0,0,1-1.066,1.916Zm-82.737,0h-11.9l-25.825-44.766a1.238,1.238,0,0,1,0-1.255l5.585-9.672a1.247,1.247,0,0,1,2.164,0l31.051,53.778a1.255,1.255,0,0,1-1.067,1.915Zm-165.5,0H158.385l-25.833-44.766a1.277,1.277,0,0,1,0-1.255l5.556-9.672a1.255,1.255,0,0,1,2.2,0l31.051,53.778a1.263,1.263,0,0,1-1.079,1.915Zm541.426-.029-12.873-22.3a1.242,1.242,0,0,1,0-1.255l6.671-11.552,19.176,33.215a1.255,1.255,0,0,1-1.085,1.886Zm-24.335,0a1.263,1.263,0,0,1-1.086-1.886l6.223-10.766,7.34,12.652Zm-58.41,0-12.872-22.3a1.238,1.238,0,0,1,0-1.255l6.664-11.552,19.183,33.215a1.263,1.263,0,0,1-1.086,1.886Zm-24.335,0a1.255,1.255,0,0,1-1.086-1.886l6.223-10.766,7.339,12.652Zm-58.38,0-12.872-22.3a1.277,1.277,0,0,1,0-1.255l6.671-11.552,19.139,33.215a1.255,1.255,0,0,1-1.049,1.886Zm-24.357,0a1.255,1.255,0,0,1-1.086-1.886l6.215-10.766,7.339,12.652Zm-58.424,0-12.872-22.3a1.238,1.238,0,0,1,0-1.255l6.671-11.552,19.176,33.215a1.255,1.255,0,0,1-1.086,1.886Zm-24.3,0a1.262,1.262,0,0,1-1.085-1.886l6.223-10.766,7.3,12.652Zm-58.446,0-12.872-22.3a1.237,1.237,0,0,1,0-1.255l6.664-11.552,19.176,33.215a1.255,1.255,0,0,1-1.079,1.886Zm-24.3,0a1.255,1.255,0,0,1-1.086-1.886l6.224-10.766,7.3,12.652Zm-58.453,0-12.873-22.3a1.277,1.277,0,0,1,0-1.255l6.671-11.552,19.176,33.215a1.255,1.255,0,0,1-1.086,1.886Zm-24.314,0a1.255,1.255,0,0,1-1.086-1.886l6.216-10.766,7.339,12.652Zm-58.432,0-12.872-22.3a1.238,1.238,0,0,1,0-1.255l6.664-11.552,19.184,33.215a1.263,1.263,0,0,1-1.086,1.886Zm-24.3,0a1.263,1.263,0,0,1-1.086-1.886l6.187-10.766,7.339,12.652Zm-58.454,0-12.872-22.3a1.277,1.277,0,0,1,0-1.255l6.671-11.552,19.176,33.215a1.255,1.255,0,0,1-1.086,1.886Zm-24.321,0a1.255,1.255,0,0,1-1.085-1.886l6.215-10.766,7.339,12.652Zm567.809-15.529L644.9,512.916a1.248,1.248,0,0,1,1.116-1.908h11.889l25.825,44.766a1.237,1.237,0,0,1,0,1.255l-5.577,9.665a1.255,1.255,0,0,1-2.2,0Zm-82.752,0-31.05-53.778a1.255,1.255,0,0,1,1.078-1.938h11.889l25.833,44.766a1.279,1.279,0,0,1,0,1.255l-5.549,9.694a1.255,1.255,0,0,1-2.2,0Zm-82.745,0L479.4,512.916a1.247,1.247,0,0,1,1.115-1.908h11.889l25.833,44.766a1.277,1.277,0,0,1,0,1.255l-5.585,9.665a1.255,1.255,0,0,1-2.2,0Zm-82.744,0L396.66,512.916a1.248,1.248,0,0,1,1.116-1.908h11.889l25.825,44.766a1.238,1.238,0,0,1,0,1.255l-5.577,9.665a1.255,1.255,0,0,1-2.2,0Zm-82.752,0-31.05-53.778a1.255,1.255,0,0,1,1.115-1.908h11.889l25.833,44.766a1.277,1.277,0,0,1,0,1.255l-5.585,9.665a1.255,1.255,0,0,1-2.2,0Zm-82.744,0-31.051-53.778a1.248,1.248,0,0,1,1.086-1.938h11.889l25.833,44.767a1.277,1.277,0,0,1,0,1.255l-5.556,9.694a1.255,1.255,0,0,1-2.2,0Zm-165.5,0-31.05-53.778a1.255,1.255,0,0,1,1.115-1.908H78.671L104.5,555.774a1.277,1.277,0,0,1,0,1.255l-5.585,9.665a1.255,1.255,0,0,1-2.2,0Zm82.752,0-31.05-53.778a1.247,1.247,0,0,1,1.078-1.908h11.9l25.826,44.766a1.242,1.242,0,0,1,0,1.255l-5.585,9.665a1.247,1.247,0,0,1-2.164,0Zm491.346-53.778a1.255,1.255,0,0,1,1.086-1.908h11.888l12.873,22.317a1.242,1.242,0,0,1,0,1.255l-6.671,11.552Zm-82.745,0a1.247,1.247,0,0,1,1.086-1.908h11.889l12.872,22.317a1.277,1.277,0,0,1,0,1.255l-6.671,11.552Zm-82.752,0a1.255,1.255,0,0,1,1.086-1.908h11.889l12.873,22.317a1.242,1.242,0,0,1,0,1.255L524.5,546.132Zm-82.744,0a1.255,1.255,0,0,1,1.086-1.908h11.889l12.872,22.317a1.277,1.277,0,0,1,0,1.255l-6.671,11.552Zm-82.745,0a1.247,1.247,0,0,1,1.086-1.908H352.8l12.872,22.317a1.272,1.272,0,0,1,0,1.255L359,546.132Zm-82.751,0a1.255,1.255,0,0,1,1.085-1.908h11.889l12.873,22.317a1.242,1.242,0,0,1,0,1.255l-6.664,11.552Zm-82.745,0a1.247,1.247,0,0,1,1.086-1.908h11.889l12.872,22.317a1.277,1.277,0,0,1,0,1.255l-6.671,11.552Zm-82.744,0a1.247,1.247,0,0,1,1.085-1.908h11.882l12.88,22.317a1.277,1.277,0,0,1,0,1.255l-6.672,11.552Zm604.032-1.908H708.1a1.255,1.255,0,0,1,1.079,1.908l-6.216,10.744Zm-82.723,0,12.439.03a1.247,1.247,0,0,1,1.086,1.878l-6.187,10.744Zm-82.745,0,12.469.03a1.255,1.255,0,0,1,1.086,1.878l-6.215,10.744Zm-82.744,0,12.439.03a1.255,1.255,0,0,1,1.086,1.878l-6.187,10.744Zm-82.767,0h12.476a1.247,1.247,0,0,1,1.064,1.908l-6.2,10.744Zm-82.731,0,12.44.03a1.255,1.255,0,0,1,1.086,1.878l-6.224,10.744Zm-82.751,0,12.446.03a1.248,1.248,0,0,1,1.079,1.878L206.5,523.661Zm-82.745,0,12.44.03a1.247,1.247,0,0,1,1.085,1.878l-6.187,10.744Zm599.857-14.134H704.382L678.55,452.108a1.277,1.277,0,0,1,0-1.255l5.585-9.672a1.255,1.255,0,0,1,2.2,0l31.05,53.778a1.255,1.255,0,0,1-1.066,1.916Zm-165.5,0H538.886L513.06,452.108a1.242,1.242,0,0,1,0-1.255l5.577-9.672a1.255,1.255,0,0,1,2.2,0l31.05,53.778a1.255,1.255,0,0,1-1.066,1.916Zm-82.745,0H456.141l-25.833-44.766a1.277,1.277,0,0,1,0-1.255l5.585-9.672a1.255,1.255,0,0,1,2.2,0l31.05,53.778a1.255,1.255,0,0,1-1.066,1.916Zm-248.242,0H207.9l-25.832-44.766a1.272,1.272,0,0,1,0-1.255l5.585-9.672a1.255,1.255,0,0,1,2.2,0L220.9,494.959a1.262,1.262,0,0,1-1.079,1.916Zm413.745,0H621.645l-25.833-44.766a1.237,1.237,0,0,1,0-1.255l5.57-9.672a1.247,1.247,0,0,1,2.2,0l31.051,53.778a1.255,1.255,0,0,1-1.067,1.916Zm-330.979,0H290.666l-25.832-44.766a1.272,1.272,0,0,1,0-1.255l5.563-9.672a1.255,1.255,0,0,1,2.2,0l31.05,53.778a1.254,1.254,0,0,1-1.066,1.915Zm82.752,0H373.418l-25.825-44.766a1.238,1.238,0,0,1,0-1.255l5.585-9.672a1.247,1.247,0,0,1,2.164,0l31.051,53.778a1.255,1.255,0,0,1-1.067,1.915Zm-248.242,0H125.148L99.322,452.108a1.242,1.242,0,0,1,0-1.255l5.577-9.672a1.255,1.255,0,0,1,2.2,0l31.051,53.778a1.255,1.255,0,0,1-1.067,1.915Zm517.1-.029a1.255,1.255,0,0,1-1.086-1.886l6.224-10.773,7.339,12.659Zm-82.737,0a1.255,1.255,0,0,1-1.086-1.886l6.215-10.773,7.339,12.659Zm-82.724,0a1.262,1.262,0,0,1-1.085-1.886l6.223-10.773,7.3,12.659Zm-58.453,0-12.872-22.3a1.277,1.277,0,0,1,0-1.255l6.708-11.543,19.139,33.215a1.255,1.255,0,0,1-1.086,1.886Zm-24.321,0a1.255,1.255,0,0,1-1.086-1.886l6.216-10.773,7.339,12.659Zm-82.752,0a1.255,1.255,0,0,1-1.078-1.886l6.215-10.773,7.339,12.659Zm-58.416,0-12.872-22.3a1.237,1.237,0,0,1,0-1.255l6.664-11.543,19.184,33.215a1.263,1.263,0,0,1-1.086,1.886Zm-24.335,0a1.255,1.255,0,0,1-1.086-1.886l6.223-10.773,7.339,12.659Zm-58.417,0-12.872-22.3a1.277,1.277,0,0,1,0-1.255l6.671-11.543,19.176,33.215a1.255,1.255,0,0,1-1.086,1.886Zm-24.321,0a1.255,1.255,0,0,1-1.078-1.886l6.215-10.773,7.339,12.659Zm-82.723,0a1.263,1.263,0,0,1-1.086-1.886L80.1,484.186l7.3,12.659Zm603.534-.008-12.872-22.295a1.237,1.237,0,0,1,0-1.255l6.664-11.543,19.176,33.215a1.255,1.255,0,0,1-1.079,1.878Zm-82.752,0-12.872-22.295a1.277,1.277,0,0,1,0-1.255l6.671-11.543,19.176,33.215a1.255,1.255,0,0,1-1.086,1.878Zm-82.744,0-12.873-22.295a1.242,1.242,0,0,1,0-1.255l6.664-11.543,19.184,33.215a1.262,1.262,0,0,1-1.086,1.878Zm-165.5,0-12.873-22.295a1.277,1.277,0,0,1,0-1.255l6.671-11.543,19.176,33.215a1.254,1.254,0,0,1-1.086,1.878Zm-248.242,0L86.391,474.542a1.242,1.242,0,0,1,0-1.255l6.671-11.543,19.176,33.215a1.254,1.254,0,0,1-1.085,1.878Zm543.517-15.55-31.087-53.778a1.255,1.255,0,0,1,1.152-1.908h11.889l25.832,44.766a1.259,1.259,0,0,1,0,1.247l-5.585,9.672a1.255,1.255,0,0,1-2.2,0Zm-82.782,0-31.05-53.778a1.247,1.247,0,0,1,1.115-1.908h11.889l25.833,44.766a1.263,1.263,0,0,1,0,1.247l-5.584,9.672a1.255,1.255,0,0,1-2.2,0Zm-165.5,0-31.05-53.778a1.254,1.254,0,0,1,1.115-1.908h11.889l25.833,44.766a1.263,1.263,0,0,1,0,1.247l-5.585,9.672a1.255,1.255,0,0,1-2.2,0Zm-82.744,0-31.051-53.778a1.248,1.248,0,0,1,1.116-1.908h11.888l25.826,44.766a1.224,1.224,0,0,1,0,1.247l-5.577,9.672a1.255,1.255,0,0,1-2.2,0Zm-165.5,0-31.05-53.778A1.255,1.255,0,0,1,116.3,425.6h11.888l25.833,44.766a1.259,1.259,0,0,1,0,1.247l-5.555,9.672a1.255,1.255,0,0,1-2.2,0Zm-82.744,0L32.466,427.509a1.248,1.248,0,0,1,1.116-1.908H45.471L71.3,470.367a1.224,1.224,0,0,1,0,1.247l-5.577,9.672a1.255,1.255,0,0,1-2.2,0Zm413.738,0L446.2,427.509a1.248,1.248,0,0,1,1.079-1.908h11.889L485,470.367a1.228,1.228,0,0,1,0,1.247l-5.578,9.672a1.247,1.247,0,0,1-2.165,0Zm-248.242,0-31.05-53.778a1.247,1.247,0,0,1,1.078-1.908H210.93l25.833,44.766a1.224,1.224,0,0,1,0,1.247l-5.585,9.672a1.247,1.247,0,0,1-2.165,0Zm408.631-53.778a1.248,1.248,0,0,1,1.086-1.879h11.888l12.873,22.288a1.279,1.279,0,0,1,0,1.255l-6.671,11.551Zm-82.782,0a1.256,1.256,0,0,1,1.086-1.879h11.889l12.873,22.288a1.243,1.243,0,0,1,0,1.255l-6.664,11.551Zm-82.744,0a1.248,1.248,0,0,1,1.086-1.879h11.889l12.872,22.288a1.279,1.279,0,0,1,0,1.255l-6.671,11.551Zm-82.745,0a1.248,1.248,0,0,1,1.086-1.879h11.889l12.872,22.288a1.274,1.274,0,0,1,0,1.255l-6.671,11.551Zm-82.751,0a1.255,1.255,0,0,1,1.085-1.879H319.6l12.873,22.288a1.243,1.243,0,0,1,0,1.255L325.8,460.724Zm-82.745,0a1.248,1.248,0,0,1,1.086-1.879h11.889l12.872,22.288a1.279,1.279,0,0,1,0,1.255l-6.671,11.551Zm-82.745,0a1.248,1.248,0,0,1,1.079-1.879H154.1l12.872,22.288a1.239,1.239,0,0,1,0,1.255l-6.664,11.551Zm-82.751,0a1.256,1.256,0,0,1,1.086-1.879H71.354l12.873,22.288a1.243,1.243,0,0,1,0,1.255l-6.671,11.551Zm604.062-1.879H674.91A1.248,1.248,0,0,1,676,427.509l-6.216,10.773Zm-82.774,0h12.476a1.256,1.256,0,0,1,1.086,1.879l-6.224,10.773Zm-82.723,0h12.476a1.247,1.247,0,0,1,1.078,1.879l-6.215,10.773Zm-82.745,0h12.469a1.248,1.248,0,0,1,1.086,1.879l-6.216,10.773Zm-82.745,0h12.477a1.255,1.255,0,0,1,1.085,1.879l-6.223,10.773Zm-82.767,0h12.469a1.248,1.248,0,0,1,1.086,1.879l-6.215,10.773Zm-82.73,0H178.4a1.248,1.248,0,0,1,1.086,1.879l-6.223,10.773Zm-82.744,0H95.69a1.256,1.256,0,0,1,1.086,1.879l-6.223,10.773ZM518.5,412.4H506.61l-25.826-44.766a1.242,1.242,0,0,1,0-1.255l5.577-9.665a1.255,1.255,0,0,1,2.2,0l31.051,53.778a1.247,1.247,0,0,1-1.058,1.909Zm-82.744,0H423.865l-25.833-44.766a1.277,1.277,0,0,1,0-1.255l5.585-9.665a1.255,1.255,0,0,1,2.2,0l31.05,53.778a1.247,1.247,0,0,1-1.057,1.909Zm-165.5,0H258.368l-25.826-44.766a1.242,1.242,0,0,1,0-1.255l5.577-9.665a1.255,1.255,0,0,1,2.2,0l31.05,53.778a1.247,1.247,0,0,1-1.057,1.909Zm-165.5,0H92.871L67.039,367.632a1.238,1.238,0,0,1,0-1.255l5.585-9.665a1.247,1.247,0,0,1,2.2,0l31.051,53.778a1.248,1.248,0,0,1-1.058,1.909Zm496.49,0H589.361L563.53,367.632a1.273,1.273,0,0,1,0-1.255l5.585-9.665a1.255,1.255,0,0,1,2.2,0l31.051,53.778A1.255,1.255,0,0,1,601.3,412.4Zm-413.738,0H175.623l-25.833-44.766a1.277,1.277,0,0,1,0-1.255l5.585-9.665a1.255,1.255,0,0,1,2.2,0l31.05,53.778a1.254,1.254,0,0,1-1.069,1.909Zm496.512-.022H672.136l-25.862-44.744a1.277,1.277,0,0,1,0-1.255l5.585-9.665a1.255,1.255,0,0,1,2.2,0l31.05,53.778a1.248,1.248,0,0,1-1.071,1.886Zm-108.665,0H563.47l-12.872-22.3a1.279,1.279,0,0,1,0-1.255l6.671-11.543,19.176,33.215a1.248,1.248,0,0,1-1.071,1.886Zm-248.242,0H315.23l-12.873-22.3a1.279,1.279,0,0,1,0-1.255l6.671-11.543L328.2,410.49a1.247,1.247,0,0,1-1.071,1.886Zm-202.772-.625a1.247,1.247,0,0,1,.009-1.262l6.224-10.773,7.294,12.659H125.426A1.247,1.247,0,0,1,124.346,411.752Zm-45.47.625H66.988l-12.843-22.3a1.279,1.279,0,0,1,0-1.255l6.671-11.543L79.962,410.49a1.247,1.247,0,0,1-1.071,1.886Zm459.184-.623a1.247,1.247,0,0,1,0-1.256l6.215-10.773,7.339,12.652H539.139A1.249,1.249,0,0,1,538.06,411.754Zm-248.242,0a1.249,1.249,0,0,1,0-1.256l6.215-10.773,7.339,12.652H290.9A1.25,1.25,0,0,1,289.818,411.754Zm-248.242,0a1.249,1.249,0,0,1,0-1.256L47.8,399.724l7.34,12.652H42.657A1.25,1.25,0,0,1,41.576,411.754Zm120.052.623H149.739l-12.872-22.3a1.239,1.239,0,0,1,0-1.255l6.664-11.543,19.176,33.215a1.248,1.248,0,0,1-1.072,1.886Zm484.594,0-12.872-22.3a1.239,1.239,0,0,1,0-1.255l6.664-11.543L659.2,410.49a1.255,1.255,0,0,1-1.086,1.886Zm-24.3,0a1.256,1.256,0,0,1-1.086-1.879l6.223-10.773,7.3,12.652Zm-141.2,0-12.873-22.3a1.243,1.243,0,0,1,0-1.255l6.671-11.543L493.7,410.49a1.255,1.255,0,0,1-1.085,1.886Zm-24.314,0a1.256,1.256,0,0,1-1.086-1.879l6.224-10.773,7.3,12.652Zm-58.432,0-12.85-22.3a1.243,1.243,0,0,1,0-1.255l6.664-11.543,19.162,33.215a1.255,1.255,0,0,1-1.086,1.886Zm-24.3,0A1.256,1.256,0,0,1,372.6,410.5l6.224-10.773,7.3,12.652Zm-32.526,0-25.869-44.744a1.277,1.277,0,0,1,0-1.255l5.585-9.665a1.255,1.255,0,0,1,2.2,0l31.051,53.778a1.255,1.255,0,0,1-1.079,1.886Zm-108.672,0-12.873-22.3a1.243,1.243,0,0,1,0-1.255l6.672-11.543L245.46,410.49a1.255,1.255,0,0,1-1.086,1.886Zm-24.335,0a1.256,1.256,0,0,1-1.086-1.879l6.223-10.773,7.339,12.652Zm319.574-15.558-31.05-53.785a1.254,1.254,0,0,1,1.115-1.908h11.889l25.833,44.766a1.277,1.277,0,0,1,0,1.255l-5.584,9.672a1.263,1.263,0,0,1-2.2,0Zm-82.744,0-31.051-53.785a1.248,1.248,0,0,1,1.086-1.842H426.9l25.854,44.7a1.237,1.237,0,0,1,0,1.255l-5.577,9.672a1.262,1.262,0,0,1-2.2,0Zm-82.752,0-31.05-53.785a1.254,1.254,0,0,1,1.115-1.908h11.889l25.833,44.766a1.242,1.242,0,0,1,0,1.255l-5.585,9.672a1.262,1.262,0,0,1-2.2,0Zm-82.715,0-31.08-53.785a1.254,1.254,0,0,1,1.145-1.908h11.889L287.3,385.891a1.277,1.277,0,0,1,0,1.255l-5.585,9.672a1.262,1.262,0,0,1-2.2,0Zm-82.774,0-31.051-53.785a1.248,1.248,0,0,1,1.086-1.842h11.889l25.854,44.7a1.238,1.238,0,0,1,0,1.255l-5.577,9.672a1.262,1.262,0,0,1-2.2,0Zm-82.752,0-31.05-53.785a1.255,1.255,0,0,1,1.071-1.908H95.9l25.833,44.766a1.277,1.277,0,0,1,0,1.255l-5.541,9.672a1.262,1.262,0,0,1-2.2,0Zm-82.744,0L.19,343.033a1.248,1.248,0,0,1,1.116-1.908H13.194l25.833,44.766a1.277,1.277,0,0,1,0,1.255l-5.584,9.672a1.262,1.262,0,0,1-2.2,0Zm579.249,0-31.064-53.785a1.247,1.247,0,0,1,1.094-1.908h11.888l25.833,44.766a1.237,1.237,0,0,1,0,1.255l-5.584,9.672a1.255,1.255,0,0,1-2.165,0Zm-5.137-53.785a1.248,1.248,0,0,1,1.072-1.842h11.889l12.872,22.229a1.277,1.277,0,0,1,0,1.255l-6.656,11.573Zm-82.759,0a1.248,1.248,0,0,1,1.078-1.842h11.889l12.872,22.229a1.237,1.237,0,0,1,0,1.255l-6.664,11.573Zm-82.752,0a1.255,1.255,0,0,1,1.122-1.842h11.852l12.873,22.229a1.242,1.242,0,0,1,0,1.255l-6.671,11.573Zm-82.745,0a1.248,1.248,0,0,1,1.086-1.842h11.889l12.872,22.229a1.277,1.277,0,0,1,0,1.255l-6.671,11.573Zm-82.723,0a1.255,1.255,0,0,1,1.057-1.842H287.32l12.873,22.229a1.242,1.242,0,0,1,0,1.255l-6.635,11.573Zm-82.774,0a1.255,1.255,0,0,1,1.086-1.842h11.889l12.872,22.229a1.242,1.242,0,0,1,0,1.255l-6.671,11.573Zm-82.745,0a1.248,1.248,0,0,1,1.086-1.842H121.83L134.7,363.42a1.272,1.272,0,0,1,0,1.255l-6.671,11.573Zm-82.751,0a1.255,1.255,0,0,1,1.085-1.842H39.078L51.951,363.42a1.242,1.242,0,0,1,0,1.255l-6.664,11.573Zm604.062-1.842H642.6a1.248,1.248,0,0,1,1.116,1.879L637.5,353.843Zm-82.745,0h12.432a1.248,1.248,0,0,1,1.13,1.879l-6.224,10.773Zm-82.744,0h12.439a1.256,1.256,0,0,1,1.086,1.879l-6.224,10.773Zm-82.752,0h12.439a1.248,1.248,0,0,1,1.1,1.842l-6.2,10.81Zm-82.745,0h12.44a1.255,1.255,0,0,1,1.085,1.879l-6.223,10.773Zm-82.744,0h12.439A1.256,1.256,0,0,1,230,343.07l-6.224,10.773Zm-82.752,0h12.439a1.248,1.248,0,0,1,1.116,1.879l-6.216,10.773Zm-82.745,0h12.44a1.255,1.255,0,0,1,1.108,1.842l-6.245,10.81Zm516.9-14.032H555.948l-25.825-44.766a1.237,1.237,0,0,1,0-1.255l5.577-9.665a1.255,1.255,0,0,1,2.2,0l31.051,53.778a1.248,1.248,0,0,1-1.058,1.909Zm-248.242,0H307.706l-25.825-44.766a1.238,1.238,0,0,1,0-1.255l5.577-9.665a1.255,1.255,0,0,1,2.2,0l31.051,53.778a1.248,1.248,0,0,1-1.058,1.909Zm413.746,0H721.453L695.62,282.393a1.277,1.277,0,0,1,0-1.255l5.577-9.665a1.255,1.255,0,0,1,2.2,0l31.051,53.778a1.248,1.248,0,0,1-1.057,1.909Zm-82.752,0H638.7l-25.833-44.766a1.277,1.277,0,0,1,0-1.255l5.585-9.665a1.255,1.255,0,0,1,2.2,0l31.05,53.778a1.254,1.254,0,0,1-1.069,1.909Zm-165.5,0H473.2l-25.833-44.766a1.277,1.277,0,0,1,0-1.255l5.584-9.665a1.255,1.255,0,0,1,2.2,0l31.05,53.778a1.254,1.254,0,0,1-1.069,1.909Zm-82.731,0H390.473l-25.832-44.766a1.238,1.238,0,0,1,0-1.255l5.6-9.665a1.248,1.248,0,0,1,2.165,0l31.057,53.778a1.254,1.254,0,0,1-1.071,1.908Zm-165.482,0H224.991l-25.832-44.766a1.277,1.277,0,0,1,0-1.255l5.555-9.665a1.255,1.255,0,0,1,2.2,0l31.05,53.778a1.255,1.255,0,0,1-1.071,1.908Zm350.511-.652a1.248,1.248,0,0,1,0-1.255l6.216-10.773,7.339,12.652H588.471A1.247,1.247,0,0,1,587.391,326.507Zm-165.46,0a1.246,1.246,0,0,1,0-1.255l6.223-10.773,7.3,12.652h-12.45A1.248,1.248,0,0,1,421.931,326.507Zm-45.474.624H364.568l-12.872-22.3a1.277,1.277,0,0,1,0-1.255l6.671-11.551,19.176,33.229a1.248,1.248,0,0,1-1.076,1.879Zm-37.3-.624a1.248,1.248,0,0,1,0-1.255l6.216-10.773,7.339,12.652H340.237A1.248,1.248,0,0,1,339.157,326.507Zm-128.2.624H199.078L186.2,304.843a1.279,1.279,0,0,1,0-1.256l6.672-11.565,19.175,33.229a1.248,1.248,0,0,1-1.075,1.879Zm-37.271-.624a1.248,1.248,0,0,1,0-1.255l6.187-10.773,7.339,12.652h-12.45A1.249,1.249,0,0,1,173.689,326.507Zm-45.474.624H116.326l-12.872-22.288a1.279,1.279,0,0,1,0-1.256l6.671-11.565L129.3,325.251a1.248,1.248,0,0,1-1.076,1.879Zm543.01,0a1.255,1.255,0,0,1-1.085-1.879l6.223-10.773L683.7,327.13Zm-165.5,0a1.256,1.256,0,0,1-1.086-1.879l6.224-10.773L518.2,327.13Zm-248.234,0a1.255,1.255,0,0,1-1.085-1.879l6.223-10.773,7.339,12.652Zm-115.218,0-25.9-44.737a1.242,1.242,0,0,1,0-1.255l5.585-9.665a1.247,1.247,0,0,1,2.2,0l31.05,53.778a1.248,1.248,0,0,1-1.049,1.879ZM92,327.13a1.248,1.248,0,0,1-1.079-1.879l6.216-10.773,7.339,12.652Zm603.563-.015-12.873-22.288a1.242,1.242,0,0,1,0-1.255l6.664-11.551,19.184,33.229a1.254,1.254,0,0,1-1.085,1.864Zm-70.863,0H612.809l-12.872-22.288a1.272,1.272,0,0,1,0-1.255l6.671-11.551,19.176,33.229a1.248,1.248,0,0,1-1.084,1.864Zm-94.6,0-12.872-22.288a1.237,1.237,0,0,1,0-1.255l6.671-11.551,19.147,33.229a1.255,1.255,0,0,1-1.057,1.864Zm-82.774,0-12.873-22.288a1.242,1.242,0,0,1,0-1.255l6.664-11.551,19.176,33.229a1.247,1.247,0,0,1-1.078,1.864Zm-165.5,0-12.873-22.288a1.242,1.242,0,0,1,0-1.255l6.664-11.551L294.8,325.251a1.254,1.254,0,0,1-1.086,1.864Zm377.983-15.536-31.05-53.785a1.254,1.254,0,0,1,1.115-1.908H641.76l25.833,44.766a1.237,1.237,0,0,1,0,1.255l-5.584,9.672a1.255,1.255,0,0,1-2.2,0Zm-82.744,0-31.051-53.785a1.255,1.255,0,0,1,1.072-1.908h11.889L584.8,300.652a1.277,1.277,0,0,1,0,1.255l-5.541,9.672a1.255,1.255,0,0,1-2.2,0Zm-82.745,0-31.05-53.785a1.254,1.254,0,0,1,1.115-1.908h11.889L502.1,300.652a1.242,1.242,0,0,1,0,1.255l-5.577,9.672a1.255,1.255,0,0,1-2.2,0Zm-82.751,0-31.051-53.785a1.255,1.255,0,0,1,1.116-1.908h11.888l25.833,44.766a1.277,1.277,0,0,1,0,1.255l-5.585,9.672a1.255,1.255,0,0,1-2.2,0Zm-82.745,0-31.05-53.785a1.254,1.254,0,0,1,1.115-1.908h11.889l25.833,44.766a1.277,1.277,0,0,1,0,1.255l-5.585,9.672a1.255,1.255,0,0,1-2.2,0Zm-165.5,0-31.051-53.785a1.255,1.255,0,0,1,1.086-1.908h11.919l25.832,44.766a1.272,1.272,0,0,1,0,1.255l-5.585,9.672a1.255,1.255,0,0,1-2.2,0Zm-82.745,0-31.05-53.785a1.254,1.254,0,0,1,1.115-1.908H62.533l25.825,44.766a1.242,1.242,0,0,1,0,1.255l-5.578,9.672a1.255,1.255,0,0,1-2.2,0Zm165.5,0-31.05-53.785a1.255,1.255,0,0,1,1.086-1.908H228l25.825,44.766a1.238,1.238,0,0,1,0,1.255l-5.585,9.672a1.248,1.248,0,0,1-2.165,0Zm408.6-53.785a1.256,1.256,0,0,1,1.086-1.879h11.888l12.873,22.3a1.277,1.277,0,0,1,0,1.255l-6.671,11.551Zm-82.752,0a1.256,1.256,0,0,1,1.086-1.879H584.9l12.872,22.3a1.237,1.237,0,0,1,0,1.255l-6.664,11.551Zm-82.745,0a1.256,1.256,0,0,1,1.086-1.879h11.889l12.873,22.3a1.242,1.242,0,0,1,0,1.255l-6.672,11.551Zm-82.707,0a1.255,1.255,0,0,1,1.049-1.879H419.41l12.873,22.3a1.277,1.277,0,0,1,0,1.255l-6.671,11.551Zm-82.789,0a1.256,1.256,0,0,1,1.086-1.879h11.889l12.872,22.3a1.238,1.238,0,0,1,0,1.255l-6.664,11.551Zm-82.744,0a1.255,1.255,0,0,1,1.085-1.879h11.889l12.873,22.3a1.277,1.277,0,0,1,0,1.255l-6.672,11.551Zm-82.745,0a1.256,1.256,0,0,1,1.086-1.879h11.889l12.872,22.3a1.277,1.277,0,0,1,0,1.255l-6.671,11.551Zm-82.752,0a1.256,1.256,0,0,1,1.086-1.879H88.417l12.872,22.3a1.238,1.238,0,0,1,0,1.255l-6.664,11.551Zm521.318-1.879h12.476a1.256,1.256,0,0,1,1.086,1.879L604.1,268.567Zm-82.745,0h12.461a1.256,1.256,0,0,1,1.086,1.879l-6.209,10.773Zm-82.752,0h12.469a1.255,1.255,0,0,1,1.086,1.879L438.6,268.567Zm-165.5,0h12.476a1.248,1.248,0,0,1,1.079,1.879L273.1,268.567Zm413.709,0h12.476a1.256,1.256,0,0,1,1.079,1.849l-6.216,10.773Zm-330.979,0h12.477a1.254,1.254,0,0,1,1.085,1.849l-6.223,10.773Zm-165.474,0H195.5a1.256,1.256,0,0,1,1.086,1.879l-6.253,10.743Zm-82.745,0,12.439-.029a1.254,1.254,0,0,1,1.086,1.878l-6.223,10.773Zm682.418-13.958H770.806l-25.833-44.766a1.277,1.277,0,0,1,0-1.255l5.585-9.665a1.255,1.255,0,0,1,2.2,0l31.05,53.778a1.247,1.247,0,0,1-1.058,1.909Zm-165.5,0H605.309l-25.825-44.766a1.238,1.238,0,0,1,0-1.255l5.577-9.665a1.255,1.255,0,0,1,2.2,0l31.051,53.778a1.248,1.248,0,0,1-1.058,1.909Zm-248.242,0H357.068l-25.826-44.766a1.238,1.238,0,0,1,0-1.255l5.577-9.665a1.255,1.255,0,0,1,2.2,0l31.051,53.778a1.248,1.248,0,0,1-1.058,1.909Zm330.994,0H688.061l-25.833-44.766a1.277,1.277,0,0,1,0-1.255l5.585-9.665a1.255,1.255,0,0,1,2.2,0l31.05,53.778a1.255,1.255,0,0,1-1.071,1.909Zm-248.242,0H439.819l-25.832-44.766a1.238,1.238,0,0,1,0-1.255l5.585-9.665a1.255,1.255,0,0,1,2.2,0l31.051,53.778a1.255,1.255,0,0,1-1.072,1.909Zm-165.5,0H274.323L248.49,197.191a1.277,1.277,0,0,1,0-1.255l5.585-9.665a1.255,1.255,0,0,1,2.2,0l31.05,53.778a1.255,1.255,0,0,1-1.071,1.909Zm248.249,0H522.572l-25.833-44.766a1.277,1.277,0,0,1,0-1.255l5.577-9.665a1.255,1.255,0,0,1,2.2,0l31.05,53.778a1.254,1.254,0,0,1-1.071,1.909Zm-330.964,0H191.586L165.76,197.191a1.237,1.237,0,0,1,0-1.255l5.6-9.665a1.247,1.247,0,0,1,2.165,0l31.051,53.778a1.248,1.248,0,0,1-1.057,1.908Zm433.263-.652a1.248,1.248,0,0,1,0-1.256l6.216-10.773,7.339,12.652H637.839A1.248,1.248,0,0,1,636.759,241.3Zm-165.468,0a1.248,1.248,0,0,1,0-1.256l6.223-10.773,7.3,12.652h-12.45A1.249,1.249,0,0,1,471.291,241.3Zm-45.474.624H413.928l-12.872-22.3a1.263,1.263,0,0,1,0-1.247l6.671-11.551L426.9,240.049a1.248,1.248,0,0,1-1.076,1.879ZM388.51,241.3a1.248,1.248,0,0,1,0-1.256l6.216-10.773,7.339,12.652H389.59A1.248,1.248,0,0,1,388.51,241.3Zm-165.489,0a1.248,1.248,0,0,1,0-1.256l6.216-10.773,7.339,12.652H224.1A1.248,1.248,0,0,1,223.021,241.3Zm-45.445.624H165.686l-12.872-22.3a1.263,1.263,0,0,1,0-1.247l6.671-11.551,19.176,33.214a1.248,1.248,0,0,1-1.076,1.879Zm567.347,0-12.873-22.3a1.228,1.228,0,0,1,0-1.247l6.664-11.551L757.9,240.049a1.256,1.256,0,0,1-1.086,1.879Zm-24.3,0a1.255,1.255,0,0,1-1.085-1.879l6.223-10.773,7.287,12.652Zm-58.431,0-12.873-22.3a1.263,1.263,0,0,1,0-1.247l6.671-11.551,19.155,33.214a1.248,1.248,0,0,1-1.065,1.879Zm-82.767,0-12.873-22.3a1.224,1.224,0,0,1,0-1.247l6.671-11.551L592.4,240.049a1.256,1.256,0,0,1-1.086,1.879Zm-24.336,0A1.256,1.256,0,0,1,554,240.049l6.224-10.773,7.339,12.652Zm-58.409,0-12.872-22.3a1.224,1.224,0,0,1,0-1.247l6.664-11.551,19.184,33.214a1.256,1.256,0,0,1-1.086,1.879Zm-165.468,0-12.872-22.3a1.224,1.224,0,0,1,0-1.247l6.671-11.551,19.147,33.214a1.255,1.255,0,0,1-1.057,1.879Zm-24.328,0a1.256,1.256,0,0,1-1.086-1.879l6.224-10.773,7.3,12.652Zm-46.557,0H248.439l-12.872-22.3a1.224,1.224,0,0,1,0-1.247l6.664-11.551,19.176,33.214a1.248,1.248,0,0,1-1.077,1.879Zm-118.939,0a1.248,1.248,0,0,1-1.079-1.879l6.187-10.773,7.339,12.652Zm485.034-15.551-31.05-53.785a1.254,1.254,0,0,1,1.115-1.908h11.889l25.833,44.766a1.277,1.277,0,0,1,0,1.255l-5.585,9.672a1.255,1.255,0,0,1-2.2,0Zm-82.715,0-31.08-53.785a1.255,1.255,0,0,1,1.145-1.908h11.889l25.826,44.766a1.242,1.242,0,0,1,0,1.255l-5.578,9.672a1.255,1.255,0,0,1-2.2,0Zm-82.781,0-31.051-53.785a1.255,1.255,0,0,1,1.116-1.908H442.88l25.832,44.766a1.272,1.272,0,0,1,0,1.255l-5.585,9.672a1.255,1.255,0,0,1-2.2,0Zm-82.745,0-31.05-53.785a1.255,1.255,0,0,1,1.071-1.908h11.889l25.833,44.766a1.277,1.277,0,0,1,0,1.255l-5.541,9.672a1.255,1.255,0,0,1-2.2,0Zm-82.744,0-31.051-53.785a1.255,1.255,0,0,1,1.116-1.908H277.39l25.826,44.766a1.237,1.237,0,0,1,0,1.255l-5.577,9.672a1.255,1.255,0,0,1-2.2,0Zm-82.752,0-31.05-53.785a1.254,1.254,0,0,1,1.085-1.908h11.919l25.833,44.766a1.277,1.277,0,0,1,0,1.255l-5.585,9.672a1.255,1.255,0,0,1-2.2,0Zm-82.745,0-31.05-53.785A1.254,1.254,0,0,1,100,170.684h11.889l25.826,44.766a1.242,1.242,0,0,1,0,1.255l-5.577,9.672a1.255,1.255,0,0,1-2.2,0Zm579.236,0-31.058-53.785a1.255,1.255,0,0,1,1.065-1.908H691.07L716.9,215.45a1.237,1.237,0,0,1,0,1.255l-5.563,9.672a1.247,1.247,0,0,1-2.164,0Zm-5.137-53.785a1.256,1.256,0,0,1,1.122-1.879h11.852l12.873,22.295a1.279,1.279,0,0,1,0,1.255l-6.671,11.551Zm-82.745,0a1.248,1.248,0,0,1,1.079-1.879h11.889l12.872,22.295a1.239,1.239,0,0,1,0,1.255l-6.664,11.551Zm-82.723,0a1.256,1.256,0,0,1,1.057-1.879h11.889l12.9,22.295a1.239,1.239,0,0,1,0,1.255l-6.671,11.551Zm-82.774,0a1.256,1.256,0,0,1,1.086-1.879h11.889l12.872,22.295a1.279,1.279,0,0,1,0,1.255l-6.671,11.551Zm-82.752,0a1.256,1.256,0,0,1,1.086-1.879h11.889l12.872,22.295a1.239,1.239,0,0,1,0,1.255l-6.664,11.551Zm-82.744,0a1.255,1.255,0,0,1,1.086-1.879h11.888l12.873,22.295a1.279,1.279,0,0,1,0,1.255l-6.671,11.551Zm-82.708,0a1.255,1.255,0,0,1,1.049-1.879H220.53l12.909,22.295a1.279,1.279,0,0,1,0,1.255l-6.671,11.551Zm-82.789,0a1.256,1.256,0,0,1,1.086-1.879h11.889l12.872,22.295a1.239,1.239,0,0,1,0,1.255l-6.664,11.551Zm604.062-1.879h12.469a1.255,1.255,0,0,1,1.086,1.879L736.2,183.365Zm-82.744,0h12.454a1.255,1.255,0,0,1,1.085,1.879l-6.2,10.773Zm-82.745,0h12.477a1.255,1.255,0,0,1,1.085,1.879l-6.223,10.773Zm-82.781,0H493.07a1.255,1.255,0,0,1,1.079,1.879l-6.216,10.773Zm-82.715,0h12.439a1.256,1.256,0,0,1,1.086,1.879l-6.223,10.773Zm-82.745,0h12.461a1.256,1.256,0,0,1,1.086,1.879l-6.208,10.773Zm-82.751,0H244.85a1.256,1.256,0,0,1,1.086,1.879l-6.216,10.773Zm-82.767,0h12.476a1.256,1.256,0,0,1,1.086,1.879l-6.223,10.773Zm351.616-14.061H489.342l-25.826-44.766a1.242,1.242,0,0,1,0-1.255l5.577-9.673a1.263,1.263,0,0,1,2.2,0l31.05,53.786a1.247,1.247,0,0,1-1.057,1.909Zm-248.242,0H241.1l-25.826-44.766a1.242,1.242,0,0,1,0-1.255l5.578-9.673a1.262,1.262,0,0,1,2.2,0l31.05,53.786a1.247,1.247,0,0,1-1.057,1.909Zm496.49,0H737.591l-25.826-44.766a1.242,1.242,0,0,1,0-1.255l5.57-9.673a1.263,1.263,0,0,1,2.2,0l31.05,53.786a1.248,1.248,0,0,1-1.057,1.909Zm-82.752,0H654.838l-25.833-44.766a1.277,1.277,0,0,1,0-1.255l5.585-9.673a1.262,1.262,0,0,1,2.2,0l31.05,53.786a1.255,1.255,0,0,1-1.071,1.909Zm-82.745,0H572.094l-25.833-44.766a1.238,1.238,0,0,1,0-1.255l5.585-9.673a1.262,1.262,0,0,1,2.2,0L585.1,154.744a1.256,1.256,0,0,1-1.072,1.909Zm-165.475,0H406.619l-25.833-44.766a1.277,1.277,0,0,1,0-1.255l5.563-9.673a1.262,1.262,0,0,1,2.2,0l31.05,53.786a1.254,1.254,0,0,1-1.071,1.908Zm-82.737,0h-11.9l-25.825-44.766a1.238,1.238,0,0,1,0-1.255l5.585-9.673a1.255,1.255,0,0,1,2.164,0l31.051,53.786a1.247,1.247,0,0,1-1.059,1.908Zm-165.5,0H158.385l-25.833-44.766a1.277,1.277,0,0,1,0-1.255l5.556-9.673a1.262,1.262,0,0,1,2.2,0l31.051,53.786a1.255,1.255,0,0,1-1.071,1.908Zm387.817-.03H546.2l-12.836-22.295a1.277,1.277,0,0,1,0-1.255l6.671-11.551,19.139,33.223a1.247,1.247,0,0,1-1.076,1.878Zm-37.3-.623a1.248,1.248,0,0,1,0-1.256l6.215-10.773,7.339,12.651H521.871A1.248,1.248,0,0,1,520.791,156Zm-165.467,0a1.248,1.248,0,0,1,0-1.256l6.224-10.773,7.3,12.651H356.4A1.246,1.246,0,0,1,355.325,156Zm-45.475.623H297.961l-12.873-22.295a1.277,1.277,0,0,1,0-1.255l6.671-11.551,19.176,33.223a1.247,1.247,0,0,1-1.076,1.878Zm-165.5,0H132.464l-12.872-22.295a1.277,1.277,0,0,1,0-1.255l6.671-11.551,19.176,33.223a1.247,1.247,0,0,1-1.076,1.878Zm-37.3-.623a1.246,1.246,0,0,1,0-1.256l6.215-10.773,7.339,12.651H108.133A1.247,1.247,0,0,1,107.053,156Zm604.646.623-12.873-22.295a1.242,1.242,0,0,1,0-1.255l6.671-11.551,19.176,33.223a1.254,1.254,0,0,1-1.085,1.878Zm-24.335,0a1.254,1.254,0,0,1-1.086-1.878l6.223-10.773,7.34,12.651Zm-58.41,0-12.872-22.295a1.238,1.238,0,0,1,0-1.255l6.664-11.551,19.183,33.223a1.255,1.255,0,0,1-1.086,1.878Zm-24.335,0a1.255,1.255,0,0,1-1.086-1.878l6.223-10.773,7.339,12.651Zm-141.161,0-12.872-22.295a1.238,1.238,0,0,1,0-1.255l6.671-11.551,19.176,33.223a1.255,1.255,0,0,1-1.086,1.878Zm-24.3,0a1.254,1.254,0,0,1-1.085-1.878l6.223-10.773,7.3,12.651Zm-46.557,0H380.713l-12.872-22.295a1.237,1.237,0,0,1,0-1.255l6.664-11.551,19.176,33.223a1.248,1.248,0,0,1-1.077,1.878Zm-118.961,0a1.248,1.248,0,0,1-1.079-1.878l6.216-10.773,7.339,12.651Zm-58.424,0-12.872-22.295a1.238,1.238,0,0,1,0-1.255l6.664-11.551,19.184,33.223a1.255,1.255,0,0,1-1.086,1.878Zm-24.3,0a1.254,1.254,0,0,1-1.086-1.878l6.187-10.773,7.339,12.651Zm485.034-15.557L644.9,87.272a1.248,1.248,0,0,1,1.116-1.894h11.889l25.825,44.766a1.239,1.239,0,0,1,0,1.256l-5.577,9.665a1.255,1.255,0,0,1-2.2,0ZM593.2,141.05,562.15,87.272a1.254,1.254,0,0,1,1.078-1.894h11.889l25.833,44.766a1.279,1.279,0,0,1,0,1.256l-5.549,9.65a1.255,1.255,0,0,1-2.2,0Zm-82.745,0L479.4,87.272a1.247,1.247,0,0,1,1.115-1.908h11.889l25.833,44.766a1.277,1.277,0,0,1,0,1.255l-5.585,9.665a1.255,1.255,0,0,1-2.2,0Zm-82.744,0L396.66,87.272a1.248,1.248,0,0,1,1.116-1.908h11.889l25.825,44.766a1.238,1.238,0,0,1,0,1.255l-5.577,9.665a1.255,1.255,0,0,1-2.2,0Zm-82.752,0-31.05-53.778a1.255,1.255,0,0,1,1.115-1.908h11.889l25.833,44.766a1.277,1.277,0,0,1,0,1.255l-5.585,9.665a1.255,1.255,0,0,1-2.2,0Zm-82.744,0L231.163,87.272a1.248,1.248,0,0,1,1.086-1.894h11.889l25.833,44.766a1.279,1.279,0,0,1,0,1.256l-5.556,9.65a1.255,1.255,0,0,1-2.2,0Zm-165.5,0L65.667,87.272a1.255,1.255,0,0,1,1.115-1.908H78.671L104.5,130.13a1.277,1.277,0,0,1,0,1.255l-5.585,9.665a1.255,1.255,0,0,1-2.2,0Zm82.752.015-31.05-53.793a1.247,1.247,0,0,1,1.078-1.894h11.9l25.826,44.766a1.243,1.243,0,0,1,0,1.256l-5.585,9.665a1.247,1.247,0,0,1-2.164,0ZM670.815,87.272a1.255,1.255,0,0,1,1.086-1.878h11.888l12.873,22.295a1.224,1.224,0,0,1,0,1.247l-6.671,11.551Zm-82.745,0a1.248,1.248,0,0,1,1.086-1.878h11.889l12.872,22.295a1.259,1.259,0,0,1,0,1.247l-6.671,11.551Zm-82.752,0a1.255,1.255,0,0,1,1.086-1.878h11.889l12.873,22.295a1.228,1.228,0,0,1,0,1.247L524.5,120.487Zm-82.744,0a1.255,1.255,0,0,1,1.086-1.878h11.889l12.872,22.295a1.263,1.263,0,0,1,0,1.247l-6.671,11.551Zm-82.745,0a1.248,1.248,0,0,1,1.086-1.878H352.8l12.872,22.295a1.259,1.259,0,0,1,0,1.247L359,120.487Zm-82.751,0a1.254,1.254,0,0,1,1.085-1.878h11.889l12.873,22.295a1.228,1.228,0,0,1,0,1.247l-6.664,11.551Zm-82.745,0a1.248,1.248,0,0,1,1.086-1.864h11.889l12.872,22.28a1.263,1.263,0,0,1,0,1.247l-6.671,11.551Zm-82.745,0a1.248,1.248,0,0,1,1.086-1.864h11.882l12.88,22.28a1.263,1.263,0,0,1,0,1.247l-6.672,11.551ZM695.62,85.408l12.469-.014a1.255,1.255,0,0,1,1.086,1.878L702.958,98.06Zm-82.723,0,12.439-.014a1.248,1.248,0,0,1,1.086,1.878L620.236,98.06Zm-82.745,0,12.469-.014a1.255,1.255,0,0,1,1.086,1.878L537.492,98.06Zm-82.744,0,12.439-.014a1.255,1.255,0,0,1,1.086,1.878L454.747,98.06Zm-82.767,0,12.453-.014a1.247,1.247,0,0,1,1.086,1.878l-6.2,10.788Zm-82.731,0,12.44-.014a1.255,1.255,0,0,1,1.086,1.878L289.213,98.06Zm-82.751,0,12.446-.014a1.247,1.247,0,0,1,1.079,1.878L206.5,98.06Zm-82.745,0,12.44-.014a1.247,1.247,0,0,1,1.085,1.878L123.753,98.06ZM716.271,71.274H704.382L678.55,26.508a1.277,1.277,0,0,1,0-1.255l5.585-9.672a1.255,1.255,0,0,1,2.2,0l31.05,53.785a1.255,1.255,0,0,1-1.071,1.909Zm-165.5,0H538.886L513.06,26.508a1.242,1.242,0,0,1,0-1.255l5.577-9.672a1.255,1.255,0,0,1,2.2,0l31.05,53.785a1.255,1.255,0,0,1-1.071,1.909Zm-82.745,0H456.141L430.308,26.508a1.277,1.277,0,0,1,0-1.255l5.585-9.672a1.255,1.255,0,0,1,2.2,0l31.05,53.785a1.255,1.255,0,0,1-1.071,1.909Zm-248.242,0H207.9L182.067,26.508a1.272,1.272,0,0,1,0-1.255l5.585-9.672a1.255,1.255,0,0,1,2.2,0L220.9,69.366a1.255,1.255,0,0,1-1.072,1.909Zm413.745,0H621.645L595.813,26.508a1.237,1.237,0,0,1,0-1.255l5.57-9.672a1.247,1.247,0,0,1,2.2,0l31.051,53.785a1.248,1.248,0,0,1-1.058,1.909Zm-330.979,0H290.666L264.834,26.508a1.272,1.272,0,0,1,0-1.255l5.563-9.672a1.255,1.255,0,0,1,2.2,0l31.05,53.785a1.255,1.255,0,0,1-1.071,1.908Zm82.752,0H373.418L347.594,26.508a1.238,1.238,0,0,1,0-1.255l5.585-9.672a1.247,1.247,0,0,1,2.164,0l31.051,53.785a1.255,1.255,0,0,1-1.071,1.908Zm-248.242,0H125.148L99.322,26.508a1.242,1.242,0,0,1,0-1.255l5.577-9.672a1.255,1.255,0,0,1,2.2,0l31.051,53.785a1.255,1.255,0,0,1-1.071,1.908Zm553.322-.03H678.5L665.627,48.949a1.237,1.237,0,0,1,0-1.255l6.664-11.552,19.176,33.223a1.247,1.247,0,0,1-1.077,1.878Zm-36.224,0a1.255,1.255,0,0,1-1.086-1.878L659.3,58.593l7.339,12.651Zm-58.417,0L582.874,48.949a1.277,1.277,0,0,1,0-1.255l6.671-11.552,19.176,33.223a1.255,1.255,0,0,1-1.086,1.878Zm-24.321,0a1.254,1.254,0,0,1-1.085-1.878l6.215-10.773,7.339,12.651Zm-58.423,0L500.129,48.949a1.242,1.242,0,0,1,0-1.255l6.664-11.552,19.184,33.223a1.255,1.255,0,0,1-1.086,1.878Zm-24.3,0a1.254,1.254,0,0,1-1.085-1.878l6.223-10.773,7.3,12.651Zm-58.416,0L417.415,48.949a1.272,1.272,0,0,1,0-1.255l6.671-11.552,19.139,33.223a1.254,1.254,0,0,1-1.049,1.878Zm-24.358,0a1.255,1.255,0,0,1-1.086-1.878l6.216-10.773L418.4,71.244Zm-58.423,0L334.633,48.949a1.277,1.277,0,0,1,0-1.255L341.3,36.143,360.48,69.366a1.254,1.254,0,0,1-1.086,1.878Zm-24.329,0a1.247,1.247,0,0,1-1.078-1.878l6.215-10.773,7.339,12.651Zm-58.416,0L251.888,48.949a1.237,1.237,0,0,1,0-1.255l6.664-11.552,19.184,33.223a1.255,1.255,0,0,1-1.086,1.878Zm-24.335,0a1.255,1.255,0,0,1-1.086-1.878l6.223-10.773L252.9,71.244Zm-58.417,0L169.136,48.949a1.277,1.277,0,0,1,0-1.255l6.671-11.552,19.176,33.223a1.255,1.255,0,0,1-1.086,1.878Zm-24.321,0a1.254,1.254,0,0,1-1.057-1.878l6.194-10.773,7.339,12.651Zm-58.424,0L86.391,48.949a1.242,1.242,0,0,1,0-1.255l6.671-11.552,19.176,33.223a1.254,1.254,0,0,1-1.085,1.878Zm-24.3,0a1.255,1.255,0,0,1-1.086-1.878L80.1,58.593l7.3,12.651ZM642.781,55.715,611.694,1.908A1.255,1.255,0,0,1,612.846.03h11.889L650.567,44.8a1.277,1.277,0,0,1,0,1.255l-5.585,9.665a1.255,1.255,0,0,1-2.2,0Zm-82.782,0L528.949,1.908A1.247,1.247,0,0,1,530.064.03h11.889L567.786,44.8a1.277,1.277,0,0,1,0,1.255L562.2,55.715a1.255,1.255,0,0,1-2.2,0Zm-165.5,0L363.452,1.908A1.254,1.254,0,0,1,364.568.03h11.889L402.289,44.8a1.277,1.277,0,0,1,0,1.255L396.7,55.715a1.255,1.255,0,0,1-2.2,0Zm-82.744,0L280.707,1.908A1.248,1.248,0,0,1,281.823.03h11.888L319.537,44.8a1.237,1.237,0,0,1,0,1.255l-5.577,9.665a1.255,1.255,0,0,1-2.2,0Zm-165.5,0L115.211,1.908A1.255,1.255,0,0,1,116.3,0h11.888l25.833,44.766a1.279,1.279,0,0,1,0,1.255l-5.555,9.694a1.255,1.255,0,0,1-2.2,0Zm-82.744,0L32.466,1.908A1.248,1.248,0,0,1,33.582.03H45.471L71.3,44.8a1.238,1.238,0,0,1,0,1.255l-5.577,9.665a1.255,1.255,0,0,1-2.2,0Zm413.738,0L446.2,1.908A1.248,1.248,0,0,1,447.283,0h11.889L485,44.766a1.243,1.243,0,0,1,0,1.255l-5.578,9.694a1.247,1.247,0,0,1-2.165,0Zm-248.242,0L197.963,1.908A1.247,1.247,0,0,1,199.041.03H210.93L236.763,44.8a1.242,1.242,0,0,1,0,1.255l-5.585,9.665a1.247,1.247,0,0,1-2.165,0ZM637.644,1.908A1.247,1.247,0,0,1,638.73.03h11.888l12.873,22.295a1.264,1.264,0,0,1,0,1.247L656.82,35.123Zm-82.782,0A1.255,1.255,0,0,1,555.948.03h11.889L580.71,22.325a1.228,1.228,0,0,1,0,1.247l-6.664,11.552Zm-82.744,0A1.247,1.247,0,0,1,473.2.03h11.889l12.872,22.295a1.263,1.263,0,0,1,0,1.247l-6.671,11.552Zm-82.745,0A1.247,1.247,0,0,1,390.459.03h11.889L415.22,22.325a1.259,1.259,0,0,1,0,1.247l-6.671,11.552Zm-82.751,0A1.254,1.254,0,0,1,307.706.03H319.6l12.873,22.295a1.228,1.228,0,0,1,0,1.247L325.8,35.123Zm-82.745,0A1.247,1.247,0,0,1,224.962.03h11.889l12.872,22.295a1.263,1.263,0,0,1,0,1.247l-6.671,11.552Zm-82.745,0A1.248,1.248,0,0,1,142.21.03H154.1l12.872,22.295a1.224,1.224,0,0,1,0,1.247l-6.664,11.552Zm-82.751,0A1.255,1.255,0,0,1,59.466.03H71.354L84.227,22.325a1.224,1.224,0,0,1,0,1.247L77.556,35.123ZM662.441.03H674.91A1.247,1.247,0,0,1,676,1.908L669.78,12.682Zm-82.774,0h12.476a1.255,1.255,0,0,1,1.086,1.878l-6.224,10.774Zm-82.723,0h12.476A1.247,1.247,0,0,1,510.5,1.908l-6.215,10.774ZM414.2.03h12.469a1.247,1.247,0,0,1,1.086,1.878l-6.216,10.774Zm-82.745,0h12.477a1.254,1.254,0,0,1,1.085,1.878l-6.223,10.774Zm-82.767,0h12.469a1.247,1.247,0,0,1,1.086,1.878l-6.215,10.774Zm-82.73,0H178.4a1.247,1.247,0,0,1,1.086,1.878l-6.223,10.774ZM83.214.03H95.69a1.255,1.255,0,0,1,1.086,1.878L90.553,12.682Z" transform="translate(-112 -16)" fill="#ee484b"/>
    </g>
  </g>
</svg>
